SplineFontDB: 3.2
FontName: GenSekiGothicJP-R
FullName: GenSekiGothic JP R
FamilyName: GenSekiGothic JP R
Weight: Book
Copyright: 
Version: 1.501;PS 1;hotconv 16.6.51;makeotf.lib2.5.65220
ItalicAngle: 0
UnderlinePosition: -100
UnderlineWidth: 50
Ascent: 880
Descent: 120
InvalidEm: 0
sfntRevision: 0x00018041
LayerCount: 2
Layer: 0 1 "+gMyXYgAA" 1
Layer: 1 1 "+Uk2XYgAA" 0
HasVMetrics: 1
XUID: [1021 1008 -2030067150 10006419]
BaseHoriz: 4 'icfb' 'icft' 'ideo' 'romn'
BaseScript: 'DFLT' 2  -74 834 -120 0
BaseScript: 'cyrl' 3  -74 834 -120 0
BaseScript: 'grek' 3  -74 834 -120 0
BaseScript: 'hani' 2  -74 834 -120 0
BaseScript: 'kana' 2  -74 834 -120 0
BaseScript: 'latn' 3  -74 834 -120 0
BaseVert: 4 'icfb' 'icft' 'ideo' 'romn'
BaseScript: 'DFLT' 2  46 954 0 120
BaseScript: 'cyrl' 3  46 954 0 120
BaseScript: 'grek' 3  46 954 0 120
BaseScript: 'hani' 2  46 954 0 120
BaseScript: 'kana' 2  46 954 0 120
BaseScript: 'latn' 3  46 954 0 120
StyleMap: 0x0040
FSType: 0
OS2Version: 3
OS2_WeightWidthSlopeOnly: 0
OS2_UseTypoMetrics: 0
CreationTime: 1586687987
ModificationTime: 1744287168
PfmFamily: 17
TTFWeight: 400
TTFWidth: 5
LineGap: 0
VLineGap: 0
Panose: 2 11 5 0 0 0 0 0 0 0
OS2TypoAscent: 880
OS2TypoAOffset: 0
OS2TypoDescent: -120
OS2TypoDOffset: 0
OS2TypoLinegap: 0
OS2WinAscent: 880
OS2WinAOffset: 0
OS2WinDescent: 240
OS2WinDOffset: 0
HheadAscent: 880
HheadAOffset: 0
HheadDescent: -120
HheadDOffset: 0
OS2SubXSize: 650
OS2SubYSize: 600
OS2SubXOff: 0
OS2SubYOff: 75
OS2SupXSize: 650
OS2SupYSize: 600
OS2SupXOff: 0
OS2SupYOff: 350
OS2StrikeYSize: 50
OS2StrikeYPos: 325
OS2CapHeight: 733
OS2XHeight: 543
OS2Vendor: 'ZIHI'
OS2CodePages: 00020001.00000000
OS2UnicodeRanges: a00002ff.6acffdff.00000016.00000000
MarkAttachClasses: 1
DEI: 91125
ShortTable: maxp 16
  1
  0
  -31581
  690
  41
  0
  0
  0
  0
  0
  0
  0
  0
  0
  0
  0
EndShort
LangName: 1041 "" "+bpB38zC0MLcwwzCv R" "Regular" "" "+bpB38zC0MLcwwzCv R" "" "" "" "" "" "" "" "" "" "" "" "+bpB38zC0MLcwwzCv" "R"

StartChar: uni3071
Encoding: 0 12401 0
Width: 1000
GlyphClass: 1
Flags: W
LayerCount: 2
Fore
SplineSet
540 49 m 0,0,1
 596 49 596 49 621 76 c 0,2,3
 642 101 642 101 642 151 c 0,4,5
 642 171 642 171 641 184 c 1,6,7
 599 198 599 198 546 198 c 0,8,9
 494 198 494 198 461.5 177 c 128,-1,10
 429 156 429 156 429 121.5 c 128,-1,11
 429 87 429 87 460 68 c 0,12,13
 489 49 489 49 540 49 c 0,0,1
554 -22 m 0,14,15
 461 -22 461 -22 410.5 14.5 c 128,-1,16
 360 51 360 51 360 116 c 0,17,18
 360 178 360 178 410 218 c 0,19,20
 463 260 463 260 552 260 c 0,21,22
 599 260 599 260 638 251 c 1,23,24
 637 270 637 270 635 310 c 0,25,26
 630 435 630 435 628 494 c 1,27,-1
 626 494 l 2,28,29
 569 492 569 492 539 492 c 0,30,31
 479 492 479 492 383 499 c 1,32,-1
 383 571 l 1,33,34
 463 562 463 562 541 562 c 0,35,36
 571 562 571 562 629 564 c 1,37,-1
 629 623 l 1,38,-1
 629 682 l 2,39,40
 629 705 629 705 625 741 c 1,41,-1
 696 741 l 1,42,43
 702 790 702 790 740 828 c 0,44,45
 785 872 785 872 847 873 c 0,46,47
 911 873 911 873 955.5 828.5 c 128,-1,48
 1000 784 1000 784 1000 721 c 128,-1,49
 1000 658 1000 658 956 613 c 0,50,51
 917 573 917 573 862 569 c 1,52,-1
 862 516 l 1,53,54
 800 505 800 505 701 498 c 1,55,56
 702 436 702 436 708 317 c 0,57,58
 711 256 711 256 712 228 c 1,59,60
 796 194 796 194 896 104 c 1,61,-1
 855 42 l 1,62,63
 782 113 782 113 715 151 c 1,64,-1
 715 133 l 2,65,66
 715 65 715 65 682 26 c 0,67,68
 641 -22 641 -22 554 -22 c 0,14,15
154 -27 m 1,69,70
 118 102 118 102 118 274 c 0,71,72
 118 361 118 361 135 497 c 0,73,74
 142 550 142 550 156 637 c 0,75,76
 160 663 160 663 162 674 c 0,77,78
 162 680 162 680 164 691 c 0,79,80
 167 727 167 727 167 742 c 1,81,82
 199 739 199 739 229 732 c 128,-1,83
 259 725 259 725 258 721.5 c 128,-1,84
 257 718 257 718 252 715 c 0,85,86
 243 712 243 712 241 704 c 0,87,88
 239 695 239 695 236 678 c 0,89,90
 234 673 234 673 234 671 c 0,91,92
 218 596 218 596 204 486 c 0,93,94
 188 362 188 362 188 288 c 0,95,96
 188 218 188 218 196 157 c 1,97,98
 221 228 221 228 249 295 c 1,99,100
 267 280 267 280 281 265 c 0,101,102
 298 245 298 245 295 237 c 0,103,104
 293 230 293 230 285 226 c 0,105,106
 273 219 273 219 267 200 c 0,107,108
 231 94 231 94 223 53 c 0,109,110
 217 28 217 28 218 11 c 0,111,112
 219 6 219 6 220 -7 c 0,113,114
 221 -18 221 -18 221 -22 c 2,115,-1
 154 -27 l 1,69,70
847 619 m 128,-1,117
 890 619 890 619 919 648.5 c 128,-1,118
 948 678 948 678 948 721 c 0,119,120
 948 763 948 763 918.5 792.5 c 128,-1,121
 889 822 889 822 847 822 c 0,122,123
 806 822 806 822 776 792 c 128,-1,124
 746 762 746 762 746 720.5 c 128,-1,125
 746 679 746 679 776 649 c 0,126,116
 804 619 804 619 847 619 c 128,-1,117
704 670 m 1,127,128
 703 639 703 639 701 569 c 1,129,130
 749 573 749 573 790 579 c 1,131,132
 763 590 763 590 740 613 c 0,133,134
 715 639 715 639 704 670 c 1,127,128
EndSplineSet
EndChar

StartChar: uni3074
Encoding: 1 12404 1
Width: 1000
GlyphClass: 1
Flags: W
LayerCount: 2
Fore
SplineSet
408 -45 m 0,0,1
 296 -45 296 -45 231 23.5 c 128,-1,2
 166 92 166 92 166 207 c 0,3,4
 166 319 166 319 221 436 c 0,5,6
 267 533 267 533 334 603 c 1,7,8
 256 591 256 591 180 577 c 0,9,10
 170 575 170 575 151 571 c 0,11,12
 137 568 137 568 129 566 c 1,13,-1
 117 647 l 1,14,15
 142 647 142 647 167 650 c 0,16,17
 232 655 232 655 327 671 c 0,18,19
 428 689 428 689 467 704 c 1,20,-1
 489 635 l 1,21,22
 484 633 484 633 470 629 c 0,23,24
 448 622 448 622 440 618 c 0,25,26
 405 592 405 592 362 533 c 0,27,28
 310 464 310 464 279 389 c 0,29,30
 240 298 240 298 240 218 c 0,31,32
 240 125 240 125 291 77 c 0,33,34
 337 35 337 35 411 35 c 0,35,36
 483 35 483 35 539 77 c 0,37,38
 594 117 594 117 627 194 c 0,39,40
 697 359 697 359 649 615 c 0,41,42
 647 622 647 622 642 638 c 0,43,44
 632 668 632 668 627 684 c 1,45,-1
 695 706 l 1,46,47
 699 762 699 762 740 802 c 0,48,49
 785 846 785 846 847 847 c 0,50,51
 911 847 911 847 955.5 802.5 c 128,-1,52
 1000 758 1000 758 1000 695 c 128,-1,53
 1000 632 1000 632 955.5 587 c 128,-1,54
 911 542 911 542 847 542 c 0,55,56
 785 542 785 542 740 587 c 0,57,58
 733 594 733 594 727 601 c 1,59,60
 783 430 783 430 898 314 c 1,61,-1
 842 255 l 1,62,63
 775 339 775 339 727 433 c 1,64,65
 743 238 743 238 665 104 c 0,66,67
 579 -45 579 -45 408 -45 c 0,0,1
847 593 m 128,-1,69
 890 593 890 593 919 622.5 c 128,-1,70
 948 652 948 652 948 695 c 0,71,72
 948 737 948 737 918.5 766.5 c 128,-1,73
 889 796 889 796 847 796 c 0,74,75
 806 796 806 796 776 766 c 128,-1,76
 746 736 746 736 746 694.5 c 128,-1,77
 746 653 746 653 776 623 c 0,78,68
 804 593 804 593 847 593 c 128,-1,69
EndSplineSet
EndChar

StartChar: uni3077
Encoding: 2 12407 2
Width: 1000
GlyphClass: 1
Flags: W
LayerCount: 2
Fore
SplineSet
821 439 m 0,0,1
 759 439 759 439 714 484 c 128,-1,2
 669 529 669 529 669 592 c 128,-1,3
 669 655 669 655 714 699.5 c 128,-1,4
 759 744 759 744 821 744 c 0,5,6
 885 744 885 744 929.5 699.5 c 128,-1,7
 974 655 974 655 974 592 c 128,-1,8
 974 529 974 529 929.5 484 c 128,-1,9
 885 439 885 439 821 439 c 0,0,1
821 490 m 256,10,11
 864 490 864 490 893 519.5 c 128,-1,12
 922 549 922 549 922 592 c 0,13,14
 922 634 922 634 892.5 663.5 c 128,-1,15
 863 693 863 693 821 693 c 4,16,17
 780 693 780 693 750 663 c 128,-1,18
 720 633 720 633 720 591.5 c 128,-1,19
 720 550 720 550 750 520 c 0,20,21
 778 490 778 490 821 490 c 256,10,11
465 -17 m 0,22,23
 396 -17 396 -17 314 -3 c 1,24,-1
 303 78 l 1,25,26
 377 56 377 56 454 56 c 0,27,28
 492 56 492 56 516 72 c 0,29,30
 547 93 547 93 547 135 c 0,31,32
 547 210 547 210 427 342 c 0,33,34
 393 378 393 378 352 414 c 1,35,-1
 409 463 l 1,36,37
 442 430 442 430 477 390 c 0,38,39
 547 317 547 317 585 255 c 0,40,41
 626 187 626 187 626 126 c 0,42,43
 626 48 626 48 571 11 c 0,44,45
 529 -17 529 -17 465 -17 c 0,22,23
97 34 m 1,46,-1
 52 97 l 1,47,48
 108 128 108 128 180 184 c 0,49,50
 249 238 249 238 291 283 c 1,51,-1
 335 226 l 1,52,53
 294 182 294 182 230 129 c 128,-1,54
 166 76 166 76 97 34 c 1,46,-1
839 42 m 1,55,56
 819 113 819 113 775 198 c 0,57,58
 729 288 729 288 683 341 c 1,59,-1
 746 377 l 1,60,61
 789 326 789 326 840 231 c 0,62,63
 885 147 885 147 909 80 c 1,64,-1
 839 42 l 1,55,56
530 485 m 1,65,-1
 482 531 l 1,66,67
 523 558 523 558 547 579 c 1,68,69
 481 632 481 632 347 690 c 1,70,-1
 392 746 l 1,71,72
 445 724 445 724 512 688 c 0,73,74
 577 654 577 654 621 621 c 1,75,-1
 639 571 l 1,76,77
 566 511 566 511 530 485 c 1,65,-1
465 -17 m 0,78,79
 391 -17 391 -17 314 -2 c 1,80,-1
 303 78 l 1,81,82
 378 56 378 56 453 56 c 0,83,84
 491 56 491 56 516 73 c 0,85,86
 547 93 547 93 547 135 c 0,87,88
 547 210 547 210 428 343 c 0,89,90
 386 385 386 385 352 414 c 1,91,-1
 410 464 l 1,92,93
 413 461 413 461 418 455 c 0,94,95
 459 411 459 411 477 390 c 0,96,97
 546 317 546 317 585 256 c 0,98,99
 626 188 626 188 626 127 c 0,100,101
 626 48 626 48 571 11 c 0,102,103
 529 -17 529 -17 465 -17 c 0,78,79
98 34 m 1,104,-1
 53 98 l 1,105,106
 112 131 112 131 181 185 c 0,107,108
 252 241 252 241 290 285 c 1,109,-1
 336 227 l 1,110,111
 287 176 287 176 230 130 c 0,112,113
 163 74 163 74 98 34 c 1,104,-1
839 42 m 1,114,115
 819 113 819 113 775 198 c 0,116,117
 729 288 729 288 683 342 c 1,118,-1
 746 377 l 1,119,120
 793 321 793 321 841 232 c 0,121,122
 888 144 888 144 909 80 c 1,123,-1
 839 42 l 1,114,115
530 486 m 1,124,-1
 482 532 l 1,125,126
 517 554 517 554 546 579 c 1,127,128
 517 604 517 604 459 636 c 0,129,130
 404 667 404 667 348 690 c 1,131,-1
 392 746 l 1,132,133
 452 721 452 721 513 689 c 0,134,135
 583 651 583 651 621 622 c 1,136,-1
 639 572 l 1,137,138
 593 533 593 533 530 486 c 1,124,-1
EndSplineSet
EndChar

StartChar: uni3078
Encoding: 3 12408 3
Width: 1000
GlyphClass: 1
Flags: W
LayerCount: 2
Fore
SplineSet
861 54 m 1,0,1
 779 133 779 133 641 292 c 0,2,3
 611 327 611 327 548 404 c 0,4,5
 467 504 467 504 422 504 c 0,6,7
 381 504 381 504 313 415 c 0,8,9
 237 316 237 316 210 281 c 0,10,11
 182 244 182 244 156 207 c 1,12,-1
 121 244 l 1,13,-1
 86 281 l 1,14,15
 112 300 112 300 153 343 c 0,16,17
 186 378 186 378 275 493 c 0,18,19
 342 581 342 581 417 581 c 0,20,21
 504 581 504 581 601 464 c 0,22,23
 661 392 661 392 688 362 c 0,24,25
 833 202 833 202 920 122 c 1,26,-1
 861 54 l 1,0,1
EndSplineSet
EndChar

StartChar: uni3079
Encoding: 4 12409 4
Width: 1000
GlyphClass: 1
Flags: W
LayerCount: 2
Fore
SplineSet
853 36 m 1,0,1
 725 159 725 159 633 276 c 0,2,3
 608 308 608 308 551 375 c 0,4,5
 454 489 454 489 412 488 c 0,6,7
 372 488 372 488 283 371 c 0,8,9
 224 293 224 293 202 265 c 0,10,11
 193 253 193 253 175 228 c 0,12,13
 155 200 155 200 147 190 c 1,14,-1
 112 226 l 1,15,-1
 78 263 l 1,16,17
 105 283 105 283 145 326 c 0,18,19
 181 363 181 363 279 490 c 0,20,21
 336 564 336 564 407 564 c 0,22,23
 496 564 496 564 592 448 c 0,24,25
 653 375 653 375 681 344 c 0,26,27
 817 191 817 191 912 104 c 1,28,-1
 853 36 l 1,0,1
715 483 m 1,29,30
 693 529 693 529 674 563 c 0,31,32
 645 612 645 612 626 638 c 1,33,-1
 681 662 l 1,34,35
 736 576 736 576 770 508 c 1,36,-1
 715 483 l 1,29,30
841 533 m 1,37,38
 823 570 823 570 797 613 c 0,39,40
 773 654 773 654 749 686 c 1,41,-1
 802 711 l 1,42,43
 861 627 861 627 894 560 c 1,44,-1
 841 533 l 1,37,38
EndSplineSet
EndChar

StartChar: uni307A
Encoding: 5 12410 5
Width: 1000
GlyphClass: 1
Flags: W
LayerCount: 2
Fore
SplineSet
758 430 m 0,0,1
 696 430 696 430 651 475 c 128,-1,2
 606 520 606 520 606 583 c 128,-1,3
 606 646 606 646 651 690.5 c 128,-1,4
 696 735 696 735 758 735 c 0,5,6
 822 735 822 735 866.5 690.5 c 128,-1,7
 911 646 911 646 911 583 c 128,-1,8
 911 520 911 520 866.5 475 c 128,-1,9
 822 430 822 430 758 430 c 0,0,1
758 481 m 256,10,11
 801 481 801 481 830 510.5 c 128,-1,12
 859 540 859 540 859 583 c 0,13,14
 859 625 859 625 829.5 654.5 c 128,-1,15
 800 684 800 684 758 684 c 0,16,17
 717 684 717 684 687 654 c 128,-1,18
 657 624 657 624 657 582.5 c 128,-1,19
 657 541 657 541 687 511 c 0,20,21
 715 481 715 481 758 481 c 256,10,11
853 36 m 1,22,23
 797 89 797 89 633 276 c 0,24,25
 604 309 604 309 543 384 c 0,26,27
 458 486 458 486 415 486 c 0,28,29
 366 486 366 486 297 391.5 c 128,-1,30
 228 297 228 297 202 265 c 0,31,32
 191 251 191 251 170 221 c 0,33,34
 154 199 154 199 147 190 c 1,35,-1
 112 226 l 1,36,-1
 78 263 l 1,37,38
 105 283 105 283 145 326 c 0,39,40
 167 349 167 349 269 478 c 0,41,42
 335 562 335 562 409 562 c 0,43,44
 496 562 496 562 594 445 c 0,45,46
 653 374 653 374 680 344 c 0,47,48
 825 184 825 184 912 104 c 1,49,-1
 853 36 l 1,22,23
EndSplineSet
EndChar

StartChar: uni307D
Encoding: 6 12413 6
Width: 1000
GlyphClass: 1
Flags: W
LayerCount: 2
Fore
SplineSet
535 49 m 0,0,1
 626 49 626 49 626 136 c 0,2,3
 626 160 626 160 625 175 c 1,4,5
 583 188 583 188 539 188 c 0,6,7
 490 188 490 188 460 169 c 128,-1,8
 430 150 430 150 430 120 c 0,9,10
 430 85 430 85 459 67 c 0,11,12
 486 49 486 49 535 49 c 0,0,1
541 -19 m 0,13,14
 461 -19 461 -19 413 15 c 0,15,16
 363 51 363 51 363 116 c 0,17,18
 363 170 363 170 406 206 c 0,19,20
 454 246 454 246 540 246 c 0,21,22
 570 246 570 246 622 240 c 1,23,24
 618 309 618 309 616 394 c 1,25,26
 491 391 491 391 391 396 c 1,27,-1
 391 467 l 1,28,29
 495 459 495 459 615 462 c 1,30,-1
 615 539 l 1,31,-1
 615 617 l 1,32,33
 524 614 524 614 406 619 c 1,34,-1
 406 687 l 1,35,36
 563 674 563 674 701 686 c 1,37,38
 695 707 695 707 695 730 c 0,39,40
 695 793 695 793 740 837.5 c 128,-1,41
 785 882 785 882 847 882 c 0,42,43
 911 882 911 882 955.5 837.5 c 128,-1,44
 1000 793 1000 793 1000 730 c 128,-1,45
 1000 667 1000 667 955.5 622 c 128,-1,46
 911 577 911 577 847 577 c 0,47,48
 785 577 785 577 740 622 c 0,49,50
 739 623 739 623 739 623 c 0,51,52
 707 621 707 621 683 620 c 1,53,-1
 683 465 l 1,54,55
 763 470 763 470 856 481 c 1,56,-1
 856 410 l 1,57,58
 774 402 774 402 684 396 c 1,59,60
 685 360 685 360 688 285 c 0,61,62
 690 241 690 241 691 221 c 1,63,64
 797 186 797 186 888 99 c 1,65,-1
 849 32 l 1,66,67
 776 110 776 110 695 148 c 1,68,69
 696 132 696 132 696 105 c 0,70,71
 696 46 696 46 656 13.5 c 128,-1,72
 616 -19 616 -19 541 -19 c 0,13,14
149 -30 m 1,73,74
 115 98 115 98 115 271 c 0,75,76
 115 357 115 357 132 491 c 0,77,78
 140 559 140 559 156 658 c 0,79,80
 157 664 157 664 157 666 c 0,81,82
 163 710 163 710 163 733 c 1,83,84
 195 730 195 730 225 723 c 128,-1,85
 255 716 255 716 254 712.5 c 128,-1,86
 253 709 253 709 248 706 c 0,87,88
 239 703 239 703 237 695 c 128,-1,89
 235 687 235 687 232 673 c 0,90,91
 231 666 231 666 230 663 c 0,92,93
 214 588 214 588 200 480 c 0,94,95
 184 358 184 358 184 284 c 0,96,97
 184 212 184 212 193 152 c 1,98,99
 218 223 218 223 245 292 c 1,100,101
 263 277 263 277 277 262 c 0,102,103
 294 242 294 242 291 234 c 0,104,105
 289 227 289 227 281 223 c 0,106,107
 269 216 269 216 263 197 c 0,108,109
 226 90 226 90 219 50 c 0,110,111
 213 26 213 26 215 8 c 0,112,113
 215 -6 215 -6 217 -24 c 1,114,-1
 149 -30 l 1,73,74
847 628 m 128,-1,116
 890 628 890 628 919 657.5 c 128,-1,117
 948 687 948 687 948 730 c 0,118,119
 948 772 948 772 918.5 801.5 c 128,-1,120
 889 831 889 831 847 831 c 0,121,122
 806 831 806 831 776 801 c 128,-1,123
 746 771 746 771 746 729.5 c 128,-1,124
 746 688 746 688 776 658 c 0,125,115
 804 628 804 628 847 628 c 128,-1,116
EndSplineSet
EndChar

StartChar: uni309A
Encoding: 7 12442 7
Width: 1000
GlyphClass: 1
Flags: W
LayerCount: 2
Fore
SplineSet
178 517 m 0,0,1
 116 517 116 517 71 562 c 128,-1,2
 26 607 26 607 26 670 c 128,-1,3
 26 733 26 733 71 777.5 c 128,-1,4
 116 822 116 822 178 822 c 0,5,6
 242 822 242 822 286.5 777.5 c 128,-1,7
 331 733 331 733 331 670 c 128,-1,8
 331 607 331 607 286.5 562 c 128,-1,9
 242 517 242 517 178 517 c 0,0,1
178 568 m 256,10,11
 221 568 221 568 250 597.5 c 128,-1,12
 279 627 279 627 279 670 c 0,13,14
 279 712 279 712 249.5 741.5 c 128,-1,15
 220 771 220 771 178 771 c 0,16,17
 137 771 137 771 107 741 c 128,-1,18
 77 711 77 711 77 669.5 c 128,-1,19
 77 628 77 628 107 598 c 0,20,21
 135 568 135 568 178 568 c 256,10,11
EndSplineSet
EndChar

StartChar: uni309C
Encoding: 8 12444 8
Width: 1000
GlyphClass: 1
Flags: W
LayerCount: 2
Fore
SplineSet
178 517 m 0,0,1
 116 517 116 517 71 562 c 128,-1,2
 26 607 26 607 26 670 c 128,-1,3
 26 733 26 733 71 777.5 c 128,-1,4
 116 822 116 822 178 822 c 0,5,6
 242 822 242 822 286.5 777.5 c 128,-1,7
 331 733 331 733 331 670 c 128,-1,8
 331 607 331 607 286.5 562 c 128,-1,9
 242 517 242 517 178 517 c 0,0,1
178 568 m 256,10,11
 221 568 221 568 250 597.5 c 128,-1,12
 279 627 279 627 279 670 c 0,13,14
 279 712 279 712 249.5 741.5 c 128,-1,15
 220 771 220 771 178 771 c 0,16,17
 137 771 137 771 107 741 c 128,-1,18
 77 711 77 711 77 669.5 c 128,-1,19
 77 628 77 628 107 598 c 0,20,21
 135 568 135 568 178 568 c 256,10,11
EndSplineSet
EndChar

StartChar: uni30D1
Encoding: 9 12497 9
Width: 1000
GlyphClass: 1
Flags: W
LayerCount: 2
Fore
SplineSet
828 532 m 0,0,1
 766 532 766 532 721 577 c 128,-1,2
 676 622 676 622 676 685 c 128,-1,3
 676 748 676 748 721 792.5 c 128,-1,4
 766 837 766 837 828 837 c 0,5,6
 892 837 892 837 936.5 792.5 c 128,-1,7
 981 748 981 748 981 685 c 128,-1,8
 981 622 981 622 936.5 577 c 128,-1,9
 892 532 892 532 828 532 c 0,0,1
828 583 m 256,10,11
 871 583 871 583 900 612.5 c 128,-1,12
 929 642 929 642 929 685 c 0,13,14
 929 727 929 727 899.5 756.5 c 128,-1,15
 870 786 870 786 828 786 c 0,16,17
 787 786 787 786 757 756 c 128,-1,18
 727 726 727 726 727 684.5 c 128,-1,19
 727 643 727 643 757 613 c 0,20,21
 785 583 785 583 828 583 c 256,10,11
170 7 m 1,22,-1
 130 24 l 1,23,-1
 90 42 l 1,24,25
 176 159 176 159 235 303 c 0,26,27
 266 380 266 380 292 476 c 0,28,29
 318 578 318 578 327 658 c 1,30,-1
 411 641 l 1,31,32
 400 603 400 603 394 571 c 0,33,34
 353 381 353 381 308 271 c 0,35,36
 248 121 248 121 170 7 c 1,22,-1
804 9 m 1,37,38
 767 161 767 161 697 339 c 0,39,40
 624 533 624 533 561 643 c 1,41,-1
 637 669 l 1,42,43
 705 546 705 546 774 365 c 1,44,45
 841 202 841 202 887 37 c 1,46,-1
 845 23 l 1,47,-1
 804 9 l 1,37,38
EndSplineSet
EndChar

StartChar: uni30D4
Encoding: 10 12500 10
Width: 1000
GlyphClass: 1
Flags: W
LayerCount: 2
Fore
SplineSet
462 -6 m 0,0,1
 370 -6 370 -6 311 3 c 0,2,3
 254 14 254 14 228 42 c 0,4,5
 198 72 198 72 198 128 c 2,6,-1
 198 392 l 1,7,-1
 198 656 l 2,8,9
 198 712 198 712 193 734 c 1,10,-1
 280 734 l 1,11,12
 276 705 276 705 276 656 c 2,13,-1
 276 439 l 1,14,15
 491 494 491 494 633 556 c 0,16,17
 660 568 660 568 683 581 c 1,18,19
 641 625 641 625 641 686 c 0,20,21
 641 749 641 749 686 793.5 c 128,-1,22
 731 838 731 838 793 838 c 0,23,24
 857 838 857 838 901.5 793.5 c 128,-1,25
 946 749 946 749 946 686 c 128,-1,26
 946 623 946 623 901.5 578 c 128,-1,27
 857 533 857 533 793 533 c 0,28,29
 765 533 765 533 740 542 c 1,30,-1
 748 523 l 1,31,32
 698 500 698 500 660 485 c 0,33,34
 496 418 496 418 276 361 c 1,35,-1
 276 149 l 2,36,37
 276 114 276 114 291 99 c 0,38,39
 304 86 304 86 341 78 c 0,40,41
 394 71 394 71 465 71 c 0,42,43
 549 71 549 71 634 78 c 0,44,45
 733 86 733 86 787 101 c 1,46,-1
 787 14 l 1,47,48
 650 -6 650 -6 462 -6 c 0,0,1
793 584 m 128,-1,50
 836 584 836 584 865 613.5 c 128,-1,51
 894 643 894 643 894 686 c 0,52,53
 894 728 894 728 864.5 757.5 c 128,-1,54
 835 787 835 787 793 787 c 0,55,56
 752 787 752 787 722 757 c 128,-1,57
 692 727 692 727 692 685.5 c 128,-1,58
 692 644 692 644 722 614 c 0,59,49
 750 584 750 584 793 584 c 128,-1,50
EndSplineSet
EndChar

StartChar: uni30D7
Encoding: 11 12503 11
Width: 1000
GlyphClass: 1
Flags: W
LayerCount: 2
Fore
SplineSet
301 -20 m 1,0,-1
 237 52 l 1,1,2
 370 86 370 86 459 146 c 0,3,4
 539 200 539 200 603 283 c 0,5,6
 650 344 650 344 685 438 c 0,7,8
 715 519 715 519 727 596 c 1,9,-1
 486 596 l 1,10,-1
 245 596 l 2,11,12
 190 596 190 596 168 594 c 0,13,14
 157 593 157 593 152 593 c 1,15,-1
 152 677 l 1,16,17
 195 672 195 672 246 672 c 2,18,-1
 699 672 l 1,19,20
 695 688 695 688 695 706 c 0,21,22
 695 769 695 769 740 813.5 c 128,-1,23
 785 858 785 858 847 858 c 0,24,25
 911 858 911 858 955.5 813.5 c 128,-1,26
 1000 769 1000 769 1000 706 c 128,-1,27
 1000 643 1000 643 955.5 598 c 128,-1,28
 911 553 911 553 847 553 c 0,29,30
 824 553 824 553 804 559 c 1,31,32
 757 351 757 351 671 237 c 0,33,34
 532 54 532 54 301 -20 c 1,0,-1
847 604 m 128,-1,36
 890 604 890 604 919 633.5 c 128,-1,37
 948 663 948 663 948 706 c 0,38,39
 948 748 948 748 918.5 777.5 c 128,-1,40
 889 807 889 807 847 807 c 0,41,42
 806 807 806 807 776 777 c 128,-1,43
 746 747 746 747 746 705.5 c 128,-1,44
 746 664 746 664 776 634 c 0,45,35
 804 604 804 604 847 604 c 128,-1,36
EndSplineSet
EndChar

StartChar: uni30D8
Encoding: 12 12504 12
Width: 1000
GlyphClass: 1
Flags: W
LayerCount: 2
Fore
SplineSet
858 59 m 1,0,1
 802 133 802 133 674 280 c 0,2,3
 655 302 655 302 646 312 c 0,4,5
 514 465 514 465 463 507 c 0,6,7
 440 529 440 529 418 551 c 1,8,9
 398 526 398 526 379 500 c 0,10,11
 357 472 357 472 295.5 392 c 128,-1,12
 234 312 234 312 213 286 c 0,13,14
 202 269 202 269 177 236 c 0,15,16
 164 219 164 219 159 212 c 1,17,-1
 124 248 l 1,18,-1
 89 285 l 1,19,20
 113 306 113 306 155 348 c 0,21,22
 184 378 184 378 272 488 c 0,23,24
 320 548 320 548 341 573 c 0,25,26
 346 579 346 579 351 585 c 2,27,-1
 361 597 l 2,28,29
 412 658 412 658 412 670 c 1,30,31
 412 654 412 654 480 597 c 2,32,-1
 494 585 l 2,33,34
 496 583 496 583 498 582 c 0,35,36
 583 511 583 511 692 384 c 0,37,38
 704 370 704 370 732 339 c 0,39,40
 864 194 864 194 919 127 c 1,41,-1
 858 59 l 1,0,1
EndSplineSet
EndChar

StartChar: uni30D9
Encoding: 13 12505 13
Width: 1000
GlyphClass: 1
Flags: W
LayerCount: 2
Fore
SplineSet
837 537 m 1,0,1
 823 568 823 568 795 616 c 0,2,3
 763 668 763 668 747 689 c 1,4,-1
 799 714 l 1,5,6
 852 642 852 642 891 564 c 1,7,-1
 837 537 l 1,0,1
713 487 m 1,8,9
 696 524 696 524 672 567 c 0,10,11
 647 612 647 612 625 641 c 1,12,-1
 679 665 l 1,13,14
 738 575 738 575 767 513 c 1,15,-1
 713 487 l 1,8,9
849 41 m 1,16,17
 783 135 783 135 641 292 c 0,18,19
 639 295 639 295 638 296 c 0,20,21
 514 437 514 437 454 491 c 0,22,23
 432 514 432 514 410 536 c 1,24,25
 390 510 390 510 370 483 c 0,26,27
 325 428 325 428 281 370 c 0,28,29
 223 295 223 295 203 269 c 0,30,31
 175 232 175 232 149 195 c 1,32,-1
 114 230 l 1,33,-1
 80 266 l 1,34,35
 118 301 118 301 146 330 c 0,36,37
 189 374 189 374 268 475 c 0,38,39
 312 531 312 531 332 554 c 0,40,41
 347 573 347 573 359 587 c 0,42,43
 403 640 403 640 403 651 c 1,44,45
 403 636 403 636 454 592 c 0,46,47
 469 580 469 580 488 564 c 0,48,49
 579 487 579 487 683 365 c 0,50,51
 689 358 689 358 703 343 c 0,52,53
 849 184 849 184 910 109 c 1,54,-1
 849 41 l 1,16,17
EndSplineSet
EndChar

StartChar: uni30DA
Encoding: 14 12506 14
Width: 1000
GlyphClass: 1
Flags: W
LayerCount: 2
Fore
SplineSet
850 41 m 1,0,1
 772 143 772 143 659 272 c 0,2,3
 645 288 645 288 638 296 c 0,4,5
 501 452 501 452 455 491 c 0,6,7
 432 514 432 514 410 536 c 1,8,9
 390 510 390 510 370 483 c 0,10,11
 344 451 344 451 270 355 c 0,12,13
 221 291 221 291 204 269 c 0,14,15
 178 237 178 237 149 195 c 1,16,-1
 115 230 l 1,17,-1
 81 266 l 1,18,19
 84 269 84 269 91 275 c 0,20,21
 126 309 126 309 147 330 c 0,22,23
 175 359 175 359 258 462 c 0,24,25
 310 527 310 527 333 554 c 0,26,27
 348 573 348 573 360 587 c 0,28,29
 404 640 404 640 404 651 c 1,30,31
 404 636 404 636 455 592 c 0,32,33
 470 580 470 580 489 564 c 0,34,35
 565 500 565 500 683 365 c 0,36,37
 690 357 690 357 705 340 c 0,38,39
 850 183 850 183 911 109 c 1,40,-1
 850 41 l 1,0,1
761 490 m 128,-1,42
 804 490 804 490 833 519.5 c 128,-1,43
 862 549 862 549 862 592 c 0,44,45
 862 634 862 634 832.5 663.5 c 128,-1,46
 803 693 803 693 761 693 c 0,47,48
 720 693 720 693 690 663 c 128,-1,49
 660 633 660 633 660 591.5 c 128,-1,50
 660 550 660 550 690 520 c 0,51,41
 718 490 718 490 761 490 c 128,-1,42
761 439 m 0,52,53
 699 439 699 439 654 484 c 128,-1,54
 609 529 609 529 609 592 c 128,-1,55
 609 655 609 655 654 699.5 c 128,-1,56
 699 744 699 744 761 744 c 0,57,58
 825 744 825 744 869.5 699.5 c 128,-1,59
 914 655 914 655 914 592 c 128,-1,60
 914 529 914 529 869.5 484 c 128,-1,61
 825 439 825 439 761 439 c 0,52,53
EndSplineSet
EndChar

StartChar: uni30DD
Encoding: 15 12509 15
Width: 1000
GlyphClass: 1
Flags: W
LayerCount: 2
Fore
SplineSet
819 108 m 1,0,1
 792 164 792 164 745 241 c 0,2,3
 698 320 698 320 662 363 c 1,4,-1
 726 398 l 1,5,6
 762 354 762 354 812 276 c 0,7,8
 859 202 859 202 888 147 c 1,9,-1
 819 108 l 1,0,1
152 102 m 1,10,-1
 87 147 l 1,11,12
 133 192 133 192 186 266 c 128,-1,13
 239 340 239 340 267 399 c 1,14,15
 294 385 294 385 316 367 c 0,16,17
 340 348 340 348 336 341 c 0,18,19
 333 336 333 336 326 333 c 0,20,21
 313 329 313 329 305 314 c 0,22,23
 275 265 275 265 247 226 c 0,24,25
 193 148 193 148 152 102 c 1,10,-1
453 -27 m 0,26,27
 394 -27 394 -27 320 -21 c 1,28,-1
 312 56 l 1,29,30
 376 45 376 45 421 45 c 0,31,32
 458 45 458 45 458 81 c 2,33,-1
 458 514 l 1,34,-1
 196 514 l 2,35,36
 155 514 155 514 116 511 c 1,37,-1
 116 592 l 1,38,39
 161 587 161 587 196 587 c 2,40,-1
 458 587 l 1,41,-1
 458 686 l 2,42,43
 458 730 458 730 451 754 c 1,44,-1
 539 754 l 1,45,46
 534 722 534 722 534 685 c 2,47,-1
 534 587 l 1,48,-1
 733 587 l 1,49,50
 712 598 712 598 694 616 c 0,51,52
 649 661 649 661 649 724 c 128,-1,53
 649 787 649 787 694 831.5 c 128,-1,54
 739 876 739 876 801 876 c 0,55,56
 865 876 865 876 909.5 831.5 c 128,-1,57
 954 787 954 787 954 724 c 128,-1,58
 954 661 954 661 910 616 c 0,59,60
 887 593 887 593 859 582 c 1,61,-1
 859 512 l 1,62,63
 834 514 834 514 783 514 c 2,64,-1
 534 514 l 1,65,-1
 534 282 l 1,66,-1
 534 50 l 2,67,68
 534 -27 534 -27 453 -27 c 0,26,27
801 622 m 128,-1,70
 844 622 844 622 873 651.5 c 128,-1,71
 902 681 902 681 902 724 c 0,72,73
 902 766 902 766 872.5 795.5 c 128,-1,74
 843 825 843 825 801 825 c 0,75,76
 760 825 760 825 730 795 c 128,-1,77
 700 765 700 765 700 723.5 c 128,-1,78
 700 682 700 682 730 652 c 0,79,69
 758 622 758 622 801 622 c 128,-1,70
EndSplineSet
EndChar

StartChar: uni30FC
Encoding: 16 12540 16
Width: 1000
GlyphClass: 1
Flags: W
LayerCount: 2
Fore
SplineSet
125 453 m 1,0,-1
 172 534 l 1,1,2
 215 505 215 505 283 465 c 2,3,-1
 351 425 l 1,4,-1
 771 425 l 2,5,6
 821 425 821 425 873 430 c 1,7,-1
 873 336 l 1,8,9
 869 336 869 336 860 337 c 0,10,11
 806 340 806 340 772 340 c 2,12,-1
 514 340 l 1,13,-1
 366 340 l 2,14,15
 329 340 329 340 310 351 c 2,16,17
 310 353 310 353 240 391 c 2,18,19
 177 427 177 427 125 453 c 1,0,-1
EndSplineSet
EndChar

StartChar: uni4E00
Encoding: 17 19968 17
Width: 1000
GlyphClass: 1
Flags: W
LayerCount: 2
Fore
SplineSet
57 341 m 1,0,1
 54 347 54 347 54 389.5 c 128,-1,2
 54 432 54 432 57 438 c 1,3,4
 177 430 177 430 357 430 c 2,5,-1
 652 430 l 2,6,7
 730 430 730 430 814 433 c 1,8,9
 815 448 815 448 823 461 c 0,10,11
 832 476 832 476 847 485 c 0,12,13
 863 494 863 494 881 494 c 128,-1,14
 899 494 899 494 915 485 c 0,15,16
 930 476 930 476 939 461 c 0,17,18
 947 448 947 448 948 433 c 0,19,20
 950 422 950 422 950 390 c 0,21,22
 950 348 950 348 947 341 c 1,23,24
 859 349 859 349 725 349 c 2,25,-1
 502 349 l 1,26,-1
 279 349 l 2,27,28
 175 349 175 349 57 341 c 1,0,1
EndSplineSet
EndChar

StartChar: uni4E8C
Encoding: 18 20108 18
Width: 1000
GlyphClass: 1
Flags: W
LayerCount: 2
Fore
SplineSet
151 607 m 1,0,1
 148 612 148 612 148 653.5 c 128,-1,2
 148 695 148 695 151 701 c 1,3,4
 271 693 271 693 451 693 c 2,5,-1
 651 693 l 2,6,7
 744 693 744 693 850 701 c 1,8,9
 853 695 853 695 853 653.5 c 128,-1,10
 853 612 853 612 850 607 c 1,11,12
 775 614 775 614 675 614 c 2,13,-1
 500 614 l 1,14,-1
 325 614 l 2,15,16
 253 614 253 614 151 607 c 1,0,1
69 15 m 1,17,18
 66 21 66 21 66 63.5 c 128,-1,19
 66 106 66 106 69 112 c 1,20,21
 189 104 189 104 369 104 c 2,22,-1
 651 104 l 2,23,24
 722 104 722 104 799 106 c 1,25,26
 800 122 800 122 808 137 c 0,27,28
 817 152 817 152 832 161 c 0,29,30
 848 170 848 170 866 170 c 128,-1,31
 884 170 884 170 900 161 c 0,32,33
 915 152 915 152 924 137 c 0,34,35
 932 122 932 122 933 106 c 0,36,37
 935 94 935 94 935 64 c 0,38,39
 935 22 935 22 932 15 c 1,40,41
 846 23 846 23 716 23 c 2,42,-1
 500 23 l 1,43,-1
 284 23 l 2,44,45
 183 23 183 23 69 15 c 1,17,18
EndSplineSet
EndChar

StartChar: uni529B
Encoding: 19 21147 19
AltUni2: 00f98a.ffffffff.0 00f98a.ffffffff.0
Width: 1000
GlyphClass: 1
Flags: W
LayerCount: 2
Fore
SplineSet
122 -81 m 1,0,1
 96 -42 96 -42 66 -22 c 1,2,3
 246 88 246 88 331 252 c 0,4,5
 395 376 395 376 409 545 c 1,6,-1
 252 545 l 2,7,8
 186 545 186 545 95 538 c 1,9,10
 92 543 92 543 92 582 c 128,-1,11
 92 621 92 621 95 626 c 1,12,13
 163 619 163 619 254 619 c 2,14,-1
 413 619 l 1,15,16
 413 641 413 641 413 662 c 2,17,-1
 413 749 l 2,18,19
 413 789 413 789 409 839 c 1,20,21
 438 841 438 841 469 838 c 0,22,23
 508 834 508 834 508 825 c 1,24,25
 488 793 488 793 488 761 c 2,26,-1
 488 662 l 2,27,28
 488 641 488 641 488 619 c 1,29,-1
 692 619 l 1,30,-1
 761 619 l 1,31,32
 762 636 762 636 770 650 c 0,33,34
 779 665 779 665 794 674 c 0,35,36
 810 683 810 683 828 683.5 c 128,-1,37
 846 684 846 684 862 674 c 0,38,39
 877 665 877 665 886 650 c 0,40,41
 894 636 894 636 895 619 c 1,42,-1
 896 619 l 1,43,44
 895 600 895 600 894 580 c 0,45,46
 877 271 877 271 859 141 c 0,47,48
 841 8 841 8 809 -29 c 0,49,50
 793 -49 793 -49 773 -58 c 0,51,52
 755 -66 755 -66 725 -69 c 0,53,54
 676 -73 676 -73 569 -66 c 1,55,56
 567 -24 567 -24 544 10 c 1,57,58
 622 3 622 3 698 3 c 0,59,60
 728 3 728 3 743 18 c 0,61,62
 770 44 770 44 787 162 c 0,63,64
 805 285 805 285 819 545 c 1,65,-1
 484 545 l 1,66,67
 472 358 472 358 405 221 c 0,68,69
 316 40 316 40 122 -81 c 1,0,1
EndSplineSet
EndChar

StartChar: uni53E3
Encoding: 20 21475 20
Width: 1000
GlyphClass: 1
Flags: W
LayerCount: 2
Fore
SplineSet
174 -57 m 0,0,1
 136 -57 136 -57 130 -52 c 1,2,3
 138 26 138 26 138 144 c 2,4,-1
 138 340 l 1,5,-1
 138 537 l 2,6,7
 138 655 138 655 130 733 c 0,8,9
 130 741 130 741 138 741 c 0,10,11
 258 733 258 733 438 733 c 2,12,-1
 652 733 l 2,13,14
 699 733 699 733 740 734 c 1,15,16
 740 736 740 736 740 739 c 0,17,18
 740 757 740 757 749 773 c 0,19,20
 758 788 758 788 773 797 c 0,21,22
 789 806 789 806 807 806 c 128,-1,23
 825 806 825 806 841 797 c 0,24,25
 856 788 856 788 865 773 c 0,26,27
 874 757 874 757 874 739 c 0,28,29
 874 733 874 733 874 728 c 0,30,31
 866 633 866 633 866 493 c 2,32,-1
 866 253 l 2,33,34
 866 73 866 73 874 -47 c 1,35,36
 868 -52 868 -52 828 -52 c 128,-1,37
 788 -52 788 -52 786 -47 c 0,38,39
 788 -27 788 -27 788 -7 c 2,40,-1
 788 33 l 1,41,-1
 212 33 l 1,42,-1
 212 -10 l 2,43,44
 212 -32 212 -32 214 -52 c 0,45,46
 213 -57 213 -57 174 -57 c 0,0,1
212 108 m 1,47,-1
 788 108 l 1,48,-1
 788 659 l 1,49,-1
 500 659 l 1,50,-1
 212 659 l 1,51,-1
 212 108 l 1,47,-1
EndSplineSet
EndChar

StartChar: uni5DE5
Encoding: 21 24037 21
Width: 1000
GlyphClass: 1
Flags: W
LayerCount: 2
Fore
SplineSet
64 -8 m 1,0,1
 61 -2 61 -2 61 37 c 128,-1,2
 61 76 61 76 64 82 c 1,3,4
 142 74 142 74 261 74 c 2,5,-1
 458 74 l 1,6,-1
 458 648 l 1,7,-1
 286 648 l 2,8,9
 215 648 215 648 115 641 c 1,10,11
 112 646 112 646 112 686 c 128,-1,12
 112 726 112 726 115 732 c 1,13,14
 235 724 235 724 415 724 c 2,15,-1
 652 724 l 2,16,17
 763 724 763 724 889 732 c 1,18,19
 892 726 892 726 892 686 c 128,-1,20
 892 646 892 646 889 640 c 1,21,22
 819 648 819 648 713 648 c 2,23,-1
 537 648 l 1,24,-1
 537 74 l 1,25,-1
 738 74 l 2,26,27
 771 74 771 74 805 75 c 1,28,29
 806 90 806 90 814 104 c 0,30,31
 823 119 823 119 838 128 c 0,32,33
 854 137 854 137 872 137.5 c 128,-1,34
 890 138 890 138 906 128 c 0,35,36
 921 119 921 119 930 104 c 0,37,38
 937 92 937 92 939 79 c 0,39,40
 941 69 941 69 941 37 c 0,41,42
 941 -2 941 -2 938 -8 c 1,43,44
 852 0 852 0 720 0 c 2,45,-1
 501 0 l 1,46,-1
 282 0 l 2,47,48
 179 0 179 0 64 -8 c 1,0,1
EndSplineSet
EndChar

StartChar: uni304B_uni309A.ccmp
Encoding: 22 -1 22
Width: 1000
GlyphClass: 1
Flags: W
LayerCount: 2
Fore
SplineSet
847 601 m 128,-1,1
 890 601 890 601 919 630.5 c 128,-1,2
 948 660 948 660 948 703 c 0,3,4
 948 745 948 745 918.5 774.5 c 128,-1,5
 889 804 889 804 847 804 c 0,6,7
 806 804 806 804 776 774 c 128,-1,8
 746 744 746 744 746 702.5 c 128,-1,9
 746 661 746 661 776 631 c 0,10,0
 804 601 804 601 847 601 c 128,-1,1
186 -24 m 1,11,-1
 109 7 l 1,12,13
 173 95 173 95 230 244 c 0,14,15
 275 359 275 359 305 479 c 1,16,17
 234 472 234 472 186 466 c 0,18,19
 169 463 169 463 115 456 c 0,20,21
 107 455 107 455 104 455 c 2,22,-1
 95 538 l 1,23,24
 123 536 123 536 174 538 c 0,25,26
 177 538 177 538 178 538 c 0,27,28
 208 539 208 539 312 548 c 0,29,30
 317 549 317 549 320 549 c 0,31,32
 343 661 343 661 343 754 c 1,33,-1
 387 750 l 1,34,-1
 431 746 l 1,35,36
 430 739 430 739 427 725 c 0,37,38
 422 701 422 701 421 690 c 0,39,40
 418 676 418 676 410 629 c 0,41,42
 401 580 401 580 396 555 c 1,43,44
 402 555 402 555 413 556 c 0,45,46
 481 561 481 561 500 561 c 0,47,48
 570 561 570 561 607 529 c 0,49,50
 652 490 652 490 652 400 c 0,51,52
 652 305 652 305 640 216 c 0,53,54
 625 113 625 113 598 57 c 0,55,56
 577 12 577 12 541 -6 c 0,57,58
 511 -22 511 -22 462 -22 c 0,59,60
 405 -22 405 -22 352 -8 c 1,61,-1
 340 73 l 1,62,63
 404 51 404 51 454 51 c 0,64,65
 483 51 483 51 500 60 c 0,66,67
 522 71 522 71 535 100 c 0,68,69
 556 146 556 146 568 231 c 0,70,71
 579 308 579 308 579 390 c 0,72,73
 579 451 579 451 552 474 c 0,74,75
 531 492 531 492 481 492 c 0,76,77
 460 492 460 492 393 487 c 0,78,79
 385 486 385 486 381 486 c 0,80,81
 302 167 302 167 186 -24 c 1,11,-1
849 269 m 1,82,83
 826 350 826 350 780 448 c 0,84,85
 727 560 727 560 683 614 c 1,86,-1
 714 628 l 1,87,88
 695 662 695 662 695 703 c 0,89,90
 695 766 695 766 740 810.5 c 128,-1,91
 785 855 785 855 847 855 c 0,92,93
 911 855 911 855 955.5 810.5 c 128,-1,94
 1000 766 1000 766 1000 703 c 128,-1,95
 1000 640 1000 640 955.5 595 c 128,-1,96
 911 550 911 550 847 550 c 0,97,98
 826 550 826 550 808 555 c 1,99,100
 827 521 827 521 847 479 c 0,101,102
 896 379 896 379 922 305 c 1,103,-1
 849 269 l 1,82,83
EndSplineSet
LCarets2: 1 0
EndChar

StartChar: uni304D_uni309A.ccmp
Encoding: 23 -1 23
Width: 1000
GlyphClass: 1
Flags: W
LayerCount: 2
Fore
SplineSet
716 188 m 1,0,1
 652 199 652 199 535 215 c 1,2,-1
 542 273 l 1,3,4
 601 265 601 265 640 262 c 0,5,6
 654 261 654 261 660 260 c 1,7,8
 650 281 650 281 627 334 c 0,9,10
 608 376 608 376 599 397 c 1,11,12
 420 373 420 373 183 388 c 1,13,-1
 180 458 l 1,14,15
 397 438 397 438 571 460 c 1,16,17
 565 475 565 475 553 502 c 0,18,19
 542 527 542 527 538 538 c 2,20,-1
 517 587 l 1,21,22
 365 572 365 572 190 589 c 1,23,-1
 185 659 l 1,24,25
 349 641 349 641 490 651 c 1,26,-1
 478 680 l 2,27,28
 466 709 466 709 443 747 c 1,29,-1
 485 756 l 1,30,-1
 528 766 l 1,31,32
 539 721 539 721 562 660 c 1,33,34
 638 673 638 673 696 688 c 1,35,36
 695 696 695 696 695 705 c 0,37,38
 695 768 695 768 740 812.5 c 128,-1,39
 785 857 785 857 847 857 c 0,40,41
 911 857 911 857 955.5 812.5 c 128,-1,42
 1000 768 1000 768 1000 705 c 128,-1,43
 1000 642 1000 642 955.5 597 c 128,-1,44
 911 552 911 552 847 552 c 0,45,46
 785 552 785 552 740 597 c 0,47,48
 727 610 727 610 718 624 c 1,49,50
 654 607 654 607 588 597 c 1,51,-1
 605 557 l 2,52,53
 612 540 612 540 633 490 c 0,54,55
 638 478 638 478 641 472 c 1,56,57
 731 488 731 488 813 519 c 1,58,-1
 827 450 l 1,59,60
 771 429 771 429 669 410 c 1,61,62
 722 295 722 295 753 235 c 1,63,-1
 716 188 l 1,0,1
463 -38 m 0,64,65
 338 -38 338 -38 268 6 c 0,66,67
 199 52 199 52 199 140 c 0,68,69
 199 186 199 186 220 259 c 1,70,71
 249 256 249 256 274 248 c 0,72,73
 301 239 301 239 299 232 c 0,74,75
 297 227 297 227 292 223 c 0,76,77
 282 217 282 217 278 202 c 0,78,79
 271 172 271 172 271 155 c 0,80,81
 271 36 271 36 461 36 c 0,82,83
 592 36 592 36 689 58 c 1,84,-1
 687 -20 l 1,85,86
 584 -38 584 -38 463 -38 c 0,64,65
847 603 m 128,-1,88
 890 603 890 603 919 632.5 c 128,-1,89
 948 662 948 662 948 705 c 0,90,91
 948 747 948 747 918.5 776.5 c 128,-1,92
 889 806 889 806 847 806 c 0,93,94
 806 806 806 806 776 776 c 128,-1,95
 746 746 746 746 746 704.5 c 128,-1,96
 746 663 746 663 776 633 c 0,97,87
 804 603 804 603 847 603 c 128,-1,88
EndSplineSet
EndChar

StartChar: uni304F_uni309A.ccmp
Encoding: 24 -1 24
Width: 1000
GlyphClass: 1
Flags: W
LayerCount: 2
Fore
SplineSet
739 370 m 0,0,1
 677 370 677 370 632 415 c 128,-1,2
 587 460 587 460 587 523 c 128,-1,3
 587 586 587 586 632 630.5 c 128,-1,4
 677 675 677 675 739 675 c 0,5,6
 803 675 803 675 847.5 630.5 c 128,-1,7
 892 586 892 586 892 523 c 128,-1,8
 892 460 892 460 847.5 415 c 128,-1,9
 803 370 803 370 739 370 c 0,0,1
739 421 m 256,10,11
 782 421 782 421 811 450.5 c 128,-1,12
 840 480 840 480 840 523 c 0,13,14
 840 565 840 565 810.5 594.5 c 128,-1,15
 781 624 781 624 739 624 c 0,16,17
 698 624 698 624 668 594 c 128,-1,18
 638 564 638 564 638 522.5 c 128,-1,19
 638 481 638 481 668 451 c 0,20,21
 696 421 696 421 739 421 c 256,10,11
631 -46 m 1,22,23
 620 -32 620 -32 594 -5 c 0,24,25
 575 15 575 15 567 24 c 0,26,27
 532 62 532 62 434 149 c 0,28,29
 347 226 347 226 273 288 c 0,30,31
 209 342 209 342 212 384 c 0,32,33
 215 423 215 423 280 478 c 0,34,35
 300 496 300 496 356 542 c 0,36,37
 509 670 509 670 554 717 c 0,38,39
 596 761 596 761 607 780 c 1,40,-1
 642 748 l 1,41,-1
 677 717 l 1,42,43
 662 705 662 705 626 674 c 0,44,45
 618 666 618 666 614 663 c 0,46,47
 575 629 575 629 451 526 c 0,48,49
 374 462 374 462 347 439 c 0,50,51
 304 401 304 401 304.5 381.5 c 128,-1,52
 305 362 305 362 350 324 c 0,53,54
 575 141 575 141 698 17 c 1,55,-1
 631 -46 l 1,22,23
EndSplineSet
EndChar

StartChar: uni3051_uni309A.ccmp
Encoding: 25 -1 25
Width: 1000
GlyphClass: 1
Flags: W
LayerCount: 2
Fore
SplineSet
183 10 m 1,0,1
 165 66 165 66 151 138 c 0,2,3
 134 231 134 231 134 312 c 0,4,5
 134 438 134 438 163 643 c 0,6,7
 167 677 167 677 169 691 c 0,8,9
 172 710 172 710 175 747 c 0,10,11
 175 752 175 752 175 754 c 1,12,-1
 218 750 l 1,13,-1
 262 746 l 1,14,15
 255 726 255 726 246 684 c 0,16,17
 178 371 178 371 220 184 c 1,18,19
 242 258 242 258 269 328 c 1,20,21
 287 316 287 316 302 302 c 0,22,23
 319 284 319 284 316 276 c 0,24,25
 314 269 314 269 307 264 c 0,26,27
 295 256 295 256 289 238 c 0,28,29
 261 148 261 148 249 93 c 0,30,31
 244 66 244 66 245 50 c 0,32,33
 245 46 245 46 246 34.5 c 128,-1,34
 247 23 247 23 247 18 c 1,35,-1
 183 10 l 1,0,1
535 -38 m 1,36,-1
 500 -10 l 1,37,-1
 466 18 l 1,38,39
 521 41 521 41 556 77 c 0,40,41
 625 138 625 138 646 231 c 0,42,43
 661 297 661 297 661 456 c 1,44,-1
 660 483 l 1,45,-1
 658 483 l 2,46,47
 581 481 581 481 543 481 c 0,48,49
 454 481 454 481 392 487 c 1,50,-1
 392 564 l 1,51,52
 451 554 451 554 542 554 c 0,53,54
 619 554 619 554 659 556 c 1,55,56
 657 665 657 665 654 703 c 0,57,58
 651 730 651 730 645 760 c 1,59,-1
 698 760 l 1,60,61
 707 802 707 802 740 834 c 0,62,63
 785 878 785 878 847 879 c 0,64,65
 911 879 911 879 955.5 834.5 c 128,-1,66
 1000 790 1000 790 1000 727 c 128,-1,67
 1000 664 1000 664 956 619 c 0,68,69
 924 587 924 587 882 578 c 1,70,-1
 881 505 l 1,71,72
 820 493 820 493 732 487 c 1,73,-1
 732 455 l 2,74,75
 732 317 732 317 724 256 c 0,76,77
 713 160 713 160 673 94 c 0,78,79
 628 18 628 18 535 -38 c 1,36,-1
847 625 m 128,-1,81
 890 625 890 625 919 654.5 c 128,-1,82
 948 684 948 684 948 727 c 0,83,84
 948 769 948 769 918.5 798.5 c 128,-1,85
 889 828 889 828 847 828 c 0,86,87
 806 828 806 828 776 798 c 128,-1,88
 746 768 746 768 746 726.5 c 128,-1,89
 746 685 746 685 776 655 c 0,90,80
 804 625 804 625 847 625 c 128,-1,81
730 630 m 1,91,92
 730 623 730 623 730 616 c 0,93,94
 731 580 731 580 731 561 c 1,95,96
 791 566 791 566 838 574 c 1,97,98
 782 577 782 577 740 619 c 0,99,100
 735 624 735 624 730 630 c 1,91,92
EndSplineSet
EndChar

StartChar: uni3053_uni309A.ccmp
Encoding: 26 -1 26
Width: 1000
GlyphClass: 1
Flags: W
LayerCount: 2
Fore
SplineSet
483 585 m 0,0,1
 371 585 371 585 237 596 c 1,2,-1
 237 674 l 1,3,4
 338 662 338 662 483 662 c 0,5,6
 574 662 574 662 698 672 c 1,7,8
 695 687 695 687 695 703 c 0,9,10
 695 766 695 766 740 810.5 c 128,-1,11
 785 855 785 855 847 855 c 0,12,13
 911 855 911 855 955.5 810.5 c 128,-1,14
 1000 766 1000 766 1000 703 c 128,-1,15
 1000 640 1000 640 955.5 595 c 128,-1,16
 911 550 911 550 847 550 c 0,17,18
 785 550 785 550 740 595 c 0,19,20
 737 598 737 598 734 601 c 1,21,-1
 734 597 l 1,22,23
 714 596 714 596 664 592 c 0,24,25
 633 590 633 590 617 589 c 0,26,27
 529 585 529 585 483 585 c 0,0,1
478 -18 m 0,28,29
 335 -18 335 -18 258 29 c 0,30,31
 179 79 179 79 179 166 c 0,32,33
 179 210 179 210 195 284 c 0,34,35
 197 293 197 293 198 298 c 1,36,37
 229 295 229 295 257 286 c 0,38,39
 287 276 287 276 285 268 c 0,40,41
 283 262 283 262 276 258 c 0,42,43
 265 252 265 252 261 236 c 0,44,45
 256 206 256 206 256 183 c 0,46,47
 256 128 256 128 311 95 c 0,48,49
 369 61 369 61 476 61 c 0,50,51
 682 61 682 61 795 98 c 1,52,-1
 796 16 l 1,53,54
 676 -18 676 -18 478 -18 c 0,28,29
847 601 m 128,-1,56
 890 601 890 601 919 630.5 c 128,-1,57
 948 660 948 660 948 703 c 0,58,59
 948 745 948 745 918.5 774.5 c 128,-1,60
 889 804 889 804 847 804 c 0,61,62
 806 804 806 804 776 774 c 128,-1,63
 746 744 746 744 746 702.5 c 128,-1,64
 746 661 746 661 776 631 c 0,65,55
 804 601 804 601 847 601 c 128,-1,56
EndSplineSet
EndChar

StartChar: uni30AB_uni309A.ccmp
Encoding: 27 -1 27
Width: 1000
GlyphClass: 1
Flags: W
LayerCount: 2
Fore
SplineSet
182 -18 m 1,0,-1
 115 39 l 1,1,2
 165 66 165 66 211 110 c 0,3,4
 285 178 285 178 329 270 c 0,5,6
 378 372 378 372 397 514 c 1,7,-1
 239 514 l 2,8,9
 165 514 165 514 131 510 c 1,10,-1
 131 592 l 1,11,12
 181 586 181 586 239 586 c 2,13,-1
 403 586 l 1,14,15
 407 648 407 648 407 684 c 0,16,17
 407 730 407 730 401 763 c 1,18,-1
 489 763 l 1,19,20
 486 745 486 745 484 696 c 0,21,22
 484 688 484 688 484 685 c 0,23,24
 483 650 483 650 479 586 c 1,25,-1
 703 586 l 2,26,27
 725 586 725 586 746 588 c 1,28,29
 742 592 742 592 738 596 c 0,30,31
 693 641 693 641 693 704 c 128,-1,32
 693 767 693 767 738 811.5 c 128,-1,33
 783 856 783 856 845 856 c 0,34,35
 909 856 909 856 953.5 811.5 c 128,-1,36
 998 767 998 767 998 704 c 128,-1,37
 998 641 998 641 953.5 596 c 128,-1,38
 909 551 909 551 845 551 c 0,39,40
 833 551 833 551 822 553 c 0,41,42
 821 552 821 552 819 550 c 0,43,44
 813 547 813 547 812 540 c 0,45,46
 810 524 810 524 810 517 c 0,47,48
 798 153 798 153 753 53 c 0,49,50
 725 -5 725 -5 652 -5 c 0,51,52
 612 -5 612 -5 524 1 c 0,53,54
 508 2 508 2 501 2 c 1,55,-1
 493 81 l 1,56,57
 563 71 563 71 633 71 c 0,58,59
 673 71 673 71 687 102 c 0,60,61
 711 150 711 150 724 297 c 0,62,63
 734 408 734 408 734 514 c 1,64,-1
 603 514 l 1,65,-1
 472 514 l 1,66,67
 447 316 447 316 373 187 c 0,68,69
 306 70 306 70 182 -18 c 1,0,-1
845 602 m 128,-1,71
 888 602 888 602 917 631.5 c 128,-1,72
 946 661 946 661 946 704 c 0,73,74
 946 746 946 746 916.5 775.5 c 128,-1,75
 887 805 887 805 845 805 c 0,76,77
 804 805 804 805 774 775 c 128,-1,78
 744 745 744 745 744 703.5 c 128,-1,79
 744 662 744 662 774 632 c 0,80,70
 802 602 802 602 845 602 c 128,-1,71
EndSplineSet
LCarets2: 1 0
EndChar

StartChar: uni30AD_uni309A.ccmp
Encoding: 28 -1 28
Width: 1000
GlyphClass: 1
Flags: W
LayerCount: 2
Fore
SplineSet
516 -46 m 1,0,1
 515 -42 515 -42 514 -33 c 0,2,3
 508 21 508 21 502 45 c 0,4,5
 501 52 501 52 495 84 c 0,6,7
 478 176 478 176 466 239 c 1,8,9
 417 230 417 230 329 215 c 0,10,11
 238 200 238 200 213 195 c 0,12,13
 167 188 167 188 130 177 c 1,14,-1
 113 261 l 1,15,16
 150 263 150 263 196 270 c 0,17,18
 303 286 303 286 452 311 c 1,19,-1
 416 504 l 1,20,21
 389 499 389 499 337 491 c 0,22,23
 233 474 233 474 208 469 c 0,24,25
 153 458 153 458 132 453 c 1,26,-1
 116 538 l 1,27,28
 122 539 122 539 134 540 c 0,29,30
 172 543 172 543 194 545 c 0,31,32
 265 553 265 553 402 576 c 1,33,34
 397 600 397 600 389 639 c 0,35,36
 383 670 383 670 381 676 c 0,37,38
 373 716 373 716 364 743 c 1,39,-1
 448 757 l 1,40,41
 449 731 449 731 457 691 c 0,42,43
 459 675 459 675 476 587 c 1,44,45
 630 612 630 612 693 625 c 0,46,47
 710 628 710 628 725 632 c 1,48,49
 691 673 691 673 691 728 c 0,50,51
 691 791 691 791 736 835.5 c 128,-1,52
 781 880 781 880 843 880 c 0,53,54
 907 880 907 880 951.5 835.5 c 128,-1,55
 996 791 996 791 996 728 c 128,-1,56
 996 665 996 665 951.5 620 c 128,-1,57
 907 575 907 575 843 575 c 0,58,59
 803 575 803 575 770 594 c 1,60,-1
 776 560 l 1,61,62
 768 559 768 559 742 556 c 0,63,64
 719 552 719 552 708 551 c 2,65,-1
 490 515 l 1,66,-1
 527 323 l 1,67,68
 587 333 587 333 691 351 c 0,69,70
 742 360 742 360 759 363 c 0,71,72
 810 373 810 373 841 383 c 1,73,-1
 857 302 l 1,74,75
 847 301 847 301 819 296 c 0,76,77
 789 291 789 291 772 289 c 2,78,-1
 656 270 l 1,79,-1
 541 251 l 1,80,81
 552 196 552 196 569 111 c 0,82,83
 577 67 577 67 579 58 c 0,84,85
 581 52 581 52 584 38 c 0,86,87
 595 -8 595 -8 603 -29 c 1,88,-1
 516 -46 l 1,0,1
843 626 m 128,-1,90
 886 626 886 626 915 655.5 c 128,-1,91
 944 685 944 685 944 728 c 0,92,93
 944 770 944 770 914.5 799.5 c 128,-1,94
 885 829 885 829 843 829 c 0,95,96
 802 829 802 829 772 799 c 128,-1,97
 742 769 742 769 742 727.5 c 128,-1,98
 742 686 742 686 772 656 c 0,99,89
 800 626 800 626 843 626 c 128,-1,90
EndSplineSet
EndChar

StartChar: uni30AF_uni309A.ccmp
Encoding: 29 -1 29
Width: 1000
GlyphClass: 1
Flags: W
LayerCount: 2
Fore
SplineSet
249 -50 m 1,0,-1
 181 13 l 1,1,2
 413 83 413 83 556 254 c 0,3,4
 609 317 609 317 651 404 c 0,5,6
 691 485 691 485 706 554 c 1,7,-1
 547 554 l 1,8,-1
 388 554 l 1,9,10
 289 409 289 409 150 317 c 1,11,-1
 85 366 l 1,12,13
 194 433 194 433 278 533 c 0,14,15
 341 609 341 609 381 691 c 0,16,17
 400 727 400 727 410 768 c 1,18,-1
 496 738 l 1,19,20
 483 717 483 717 460 672 c 0,21,22
 456 666 456 666 455 663.5 c 128,-1,23
 454 661 454 661 451 656 c 0,24,25
 439 634 439 634 432 623 c 1,26,-1
 687 623 l 2,27,28
 713 623 713 623 733 627 c 1,29,30
 695 670 695 670 695 727 c 0,31,32
 695 790 695 790 740 834.5 c 128,-1,33
 785 879 785 879 847 879 c 0,34,35
 911 879 911 879 955.5 834.5 c 128,-1,36
 1000 790 1000 790 1000 727 c 128,-1,37
 1000 664 1000 664 955.5 619 c 128,-1,38
 911 574 911 574 847 574 c 0,39,40
 831 574 831 574 816 577 c 0,41,42
 815 576 815 576 812 576 c 0,43,44
 803 575 803 575 800 568 c 0,45,46
 792 550 792 550 790 542 c 0,47,48
 769 462 769 462 728 379 c 0,49,50
 682 284 682 284 623 211 c 0,51,52
 488 41 488 41 249 -50 c 1,0,-1
847 625 m 128,-1,54
 890 625 890 625 919 654.5 c 128,-1,55
 948 684 948 684 948 727 c 0,56,57
 948 769 948 769 918.5 798.5 c 128,-1,58
 889 828 889 828 847 828 c 0,59,60
 806 828 806 828 776 798 c 128,-1,61
 746 768 746 768 746 726.5 c 128,-1,62
 746 685 746 685 776 655 c 0,63,53
 804 625 804 625 847 625 c 128,-1,54
EndSplineSet
EndChar

StartChar: uni30B1_uni309A.ccmp
Encoding: 30 -1 30
Width: 1000
GlyphClass: 1
Flags: W
LayerCount: 2
Fore
SplineSet
347 -40 m 1,0,-1
 267 16 l 1,1,2
 308 31 308 31 343 61 c 0,3,4
 534 209 534 209 551 501 c 1,5,-1
 310 501 l 1,6,7
 280 445 280 445 237 389 c 0,8,9
 192 329 192 329 153 295 c 1,10,-1
 79 341 l 1,11,12
 125 374 125 374 176 441 c 0,13,14
 216 493 216 493 247 548 c 0,15,16
 280 611 280 611 299 682 c 0,17,18
 310 717 310 717 313 758 c 1,19,-1
 404 740 l 1,20,21
 397 721 397 721 382 680 c 0,22,23
 381 675 381 675 380 673 c 0,24,25
 368 634 368 634 344 576 c 1,26,-1
 566 576 l 1,27,-1
 788 576 l 2,28,29
 804 576 804 576 819 576 c 1,30,31
 775 584 775 584 740 619 c 0,32,33
 695 664 695 664 695 727 c 128,-1,34
 695 790 695 790 740 834.5 c 128,-1,35
 785 879 785 879 847 879 c 0,36,37
 911 879 911 879 955.5 834.5 c 128,-1,38
 1000 790 1000 790 1000 727 c 128,-1,39
 1000 664 1000 664 956 619 c 0,40,41
 922 585 922 585 876 576 c 1,42,-1
 876 499 l 1,43,44
 847 501 847 501 788 501 c 2,45,-1
 629 501 l 1,46,47
 618 303 618 303 543 167 c 0,48,49
 475 43 475 43 347 -40 c 1,0,-1
847 625 m 128,-1,51
 890 625 890 625 919 654.5 c 128,-1,52
 948 684 948 684 948 727 c 0,53,54
 948 769 948 769 918.5 798.5 c 128,-1,55
 889 828 889 828 847 828 c 0,56,57
 806 828 806 828 776 798 c 128,-1,58
 746 768 746 768 746 726.5 c 128,-1,59
 746 685 746 685 776 655 c 0,60,50
 804 625 804 625 847 625 c 128,-1,51
EndSplineSet
EndChar

StartChar: uni30B3_uni309A.ccmp
Encoding: 31 -1 31
Width: 1000
GlyphClass: 1
Flags: W
LayerCount: 2
Fore
SplineSet
726 -3 m 1,0,1
 726 3 726 3 727 23 c 0,2,3
 728 40 728 40 728 50 c 1,4,-1
 268 50 l 2,5,6
 200 50 200 50 162 47 c 1,7,-1
 162 133 l 1,8,9
 225 128 225 128 266 128 c 2,10,-1
 728 128 l 1,11,-1
 728 581 l 1,12,-1
 278 581 l 2,13,14
 243 581 243 581 174 578 c 1,15,-1
 174 663 l 1,16,17
 226 658 226 658 277 658 c 2,18,-1
 712 658 l 1,19,20
 695 690 695 690 695 728 c 0,21,22
 695 791 695 791 740 835.5 c 128,-1,23
 785 880 785 880 847 880 c 0,24,25
 911 880 911 880 955.5 835.5 c 128,-1,26
 1000 791 1000 791 1000 728 c 128,-1,27
 1000 665 1000 665 955.5 620 c 128,-1,28
 911 575 911 575 847 575 c 0,29,30
 826 575 826 575 807 580 c 1,31,-1
 807 337 l 1,32,-1
 807 90 l 2,33,34
 807 53 807 53 811 -3 c 1,35,-1
 726 -3 l 1,0,1
847 626 m 128,-1,37
 890 626 890 626 919 655.5 c 128,-1,38
 948 685 948 685 948 728 c 0,39,40
 948 770 948 770 918.5 799.5 c 128,-1,41
 889 829 889 829 847 829 c 0,42,43
 806 829 806 829 776 799 c 128,-1,44
 746 769 746 769 746 727.5 c 128,-1,45
 746 686 746 686 776 656 c 0,46,36
 804 626 804 626 847 626 c 128,-1,37
EndSplineSet
EndChar

StartChar: uni30BB_uni309A.ccmp
Encoding: 32 -1 32
Width: 1000
GlyphClass: 1
Flags: W
LayerCount: 2
Fore
SplineSet
847 623 m 128,-1,1
 890 623 890 623 919 652.5 c 128,-1,2
 948 682 948 682 948 725 c 0,3,4
 948 767 948 767 918.5 796.5 c 128,-1,5
 889 826 889 826 847 826 c 0,6,7
 806 826 806 826 776 796 c 128,-1,8
 746 766 746 766 746 724.5 c 128,-1,9
 746 683 746 683 776 653 c 0,10,0
 804 623 804 623 847 623 c 128,-1,1
513 -21 m 0,11,12
 388 -21 388 -21 343 14 c 0,13,14
 305 44 305 44 305 121 c 2,15,-1
 305 266 l 1,16,-1
 305 411 l 1,17,18
 281 406 281 406 235 396 c 0,19,20
 117 372 117 372 89 365 c 1,21,-1
 74 446 l 1,22,23
 142 456 142 456 305 487 c 1,24,-1
 305 650 l 2,25,26
 305 705 305 705 299 739 c 1,27,-1
 388 739 l 1,28,29
 382 705 382 705 382 650 c 2,30,-1
 382 502 l 1,31,32
 633 551 633 551 746 577 c 0,33,34
 767 581 767 581 781 587 c 1,35,36
 759 598 759 598 740 617 c 0,37,38
 695 662 695 662 695 725 c 128,-1,39
 695 788 695 788 740 832.5 c 128,-1,40
 785 877 785 877 847 877 c 0,41,42
 911 877 911 877 955.5 832.5 c 128,-1,43
 1000 788 1000 788 1000 725 c 128,-1,44
 1000 662 1000 662 955.5 617 c 128,-1,45
 911 572 911 572 847 572 c 0,46,47
 833 572 833 572 820 574 c 1,48,49
 830 566 830 566 838 558 c 0,50,51
 858 540 858 540 856.5 538 c 128,-1,52
 855 536 855 536 850 536 c 0,53,54
 843 536 843 536 839.5 530.5 c 128,-1,55
 836 525 836 525 828 511 c 0,56,57
 730 330 730 330 635 232 c 1,58,-1
 570 271 l 1,59,60
 619 318 619 318 670 389 c 0,61,62
 714 452 714 452 738 500 c 1,63,64
 728 498 728 498 574 466 c 0,65,66
 448 441 448 441 382 427 c 1,67,-1
 382 141 l 2,68,69
 382 90 382 90 408 72 c 0,70,71
 436 53 436 53 518 53 c 0,72,73
 668 53 668 53 811 82 c 1,74,-1
 808 0 l 1,75,76
 672 -21 672 -21 513 -21 c 0,11,12
EndSplineSet
EndChar

StartChar: uni30C4_uni309A.ccmp
Encoding: 33 -1 33
Width: 1000
GlyphClass: 1
Flags: W
LayerCount: 2
Fore
SplineSet
461 449 m 1,0,1
 449 492 449 492 418 577 c 0,2,3
 386 666 386 666 369 702 c 1,4,-1
 441 727 l 1,5,6
 452 705 452 705 490 605 c 0,7,8
 524 515 524 515 535 475 c 1,9,-1
 461 449 l 1,0,1
210 379 m 1,10,11
 194 434 194 434 159 517 c 0,12,13
 121 616 121 616 105 643 c 1,14,-1
 179 670 l 1,15,16
 198 629 198 629 233.5 541.5 c 128,-1,17
 269 454 269 454 285 407 c 1,18,-1
 210 379 l 1,10,11
317 -25 m 1,19,-1
 285 8 l 1,20,-1
 253 41 l 1,21,22
 356 72 356 72 452 137 c 0,23,24
 552 206 552 206 621 296 c 0,25,26
 681 375 681 375 716 466 c 0,27,28
 743 535 743 535 757 605 c 1,29,30
 748 612 748 612 740 620 c 0,31,32
 695 665 695 665 695 728 c 128,-1,33
 695 791 695 791 740 835.5 c 128,-1,34
 785 880 785 880 847 880 c 0,35,36
 911 880 911 880 955.5 835.5 c 128,-1,37
 1000 791 1000 791 1000 728 c 128,-1,38
 1000 665 1000 665 955.5 620 c 128,-1,39
 911 575 911 575 847 575 c 0,40,41
 840 575 840 575 834 576 c 1,42,43
 782 382 782 382 685 251 c 0,44,45
 614 156 614 156 515 83 c 0,46,47
 419 12 419 12 317 -25 c 1,19,-1
847 626 m 128,-1,49
 890 626 890 626 919 655.5 c 128,-1,50
 948 685 948 685 948 728 c 0,51,52
 948 770 948 770 918.5 799.5 c 128,-1,53
 889 829 889 829 847 829 c 0,54,55
 806 829 806 829 776 799 c 128,-1,56
 746 769 746 769 746 727.5 c 128,-1,57
 746 686 746 686 776 656 c 0,58,48
 804 626 804 626 847 626 c 128,-1,49
EndSplineSet
EndChar

StartChar: uni30C8_uni309A.ccmp
Encoding: 34 -1 34
Width: 1000
GlyphClass: 1
Flags: W
LayerCount: 2
Fore
SplineSet
721 510 m 0,0,1
 659 510 659 510 614 555 c 128,-1,2
 569 600 569 600 569 663 c 128,-1,3
 569 726 569 726 614 770.5 c 128,-1,4
 659 815 659 815 721 815 c 0,5,6
 785 815 785 815 829.5 770.5 c 128,-1,7
 874 726 874 726 874 663 c 128,-1,8
 874 600 874 600 829.5 555 c 128,-1,9
 785 510 785 510 721 510 c 0,0,1
721 561 m 256,10,11
 764 561 764 561 793 590.5 c 128,-1,12
 822 620 822 620 822 663 c 0,13,14
 822 705 822 705 792.5 734.5 c 128,-1,15
 763 764 763 764 721 764 c 0,16,17
 680 764 680 764 650 734 c 128,-1,18
 620 704 620 704 620 662.5 c 128,-1,19
 620 621 620 621 650 591 c 0,20,21
 678 561 678 561 721 561 c 256,10,11
311 -27 m 1,22,23
 316 11 316 11 316 86 c 2,24,-1
 316 365 l 1,25,-1
 316 645 l 2,26,27
 316 710 316 710 309 745 c 1,28,-1
 401 745 l 1,29,30
 394 675 394 675 394 645 c 2,31,-1
 394 487 l 1,32,33
 489 459 489 459 605 414 c 0,34,35
 722 368 722 368 796 330 c 1,36,-1
 764 248 l 1,37,38
 691 288 691 288 580 334 c 0,39,40
 480 375 480 375 394 403 c 1,41,-1
 395 86 l 2,42,43
 395 18 395 18 401 -27 c 1,44,-1
 311 -27 l 1,22,23
EndSplineSet
EndChar

StartChar: uni31F7_uni309A.ccmp
Encoding: 35 -1 35
Width: 1000
GlyphClass: 1
Flags: W
LayerCount: 2
Fore
SplineSet
336 -67 m 1,0,-1
 282 -2 l 1,1,2
 369 20 369 20 444.5 68 c 128,-1,3
 520 116 520 116 570 181 c 0,4,5
 610 232 610 232 639 310 c 0,6,7
 663 377 663 377 671 437 c 1,8,-1
 476 437 l 1,9,-1
 282 437 l 2,10,11
 231 437 231 437 201 434 c 1,12,-1
 201 510 l 1,13,14
 230 506 230 506 282 506 c 2,15,-1
 631 506 l 1,16,17
 621 532 621 532 621 562 c 0,18,19
 621 625 621 625 666 669.5 c 128,-1,20
 711 714 711 714 773 714 c 0,21,22
 837 714 837 714 881.5 669.5 c 128,-1,23
 926 625 926 625 926 562 c 128,-1,24
 926 499 926 499 881.5 454 c 128,-1,25
 837 409 837 409 773 409 c 0,26,27
 756 409 756 409 739 413 c 1,28,29
 701 237 701 237 630 143 c 0,30,31
 514 -8 514 -8 336 -67 c 1,0,-1
773 460 m 128,-1,33
 816 460 816 460 845 489.5 c 128,-1,34
 874 519 874 519 874 562 c 0,35,36
 874 604 874 604 844.5 633.5 c 128,-1,37
 815 663 815 663 773 663 c 0,38,39
 732 663 732 663 702 633 c 128,-1,40
 672 603 672 603 672 561.5 c 128,-1,41
 672 520 672 520 702 490 c 0,42,32
 730 460 730 460 773 460 c 128,-1,33
EndSplineSet
LCarets2: 1 0
EndChar

StartChar: uni3042_uni3099.ccmp
Encoding: 36 -1 36
Width: 1000
GlyphClass: 1
Flags: W
LayerCount: 2
Fore
SplineSet
573 -29 m 1,0,-1
 533 35 l 1,1,2
 658 48 658 48 731 110.5 c 128,-1,3
 804 173 804 173 804 265 c 0,4,5
 804 321 804 321 770 364 c 0,6,7
 734 409 734 409 670 426 c 1,8,9
 595 232 595 232 464 119 c 1,10,11
 466 111 466 111 471 94 c 0,12,13
 481 59 481 59 487 42 c 1,14,-1
 418 21 l 1,15,16
 416 29 416 29 411 45 c 0,17,18
 406 63 406 63 403 74 c 1,19,20
 320 22 320 22 247 22 c 0,21,22
 197 22 197 22 168 51 c 0,23,24
 136 83 136 83 136 142 c 0,25,26
 136 231 136 231 204 319 c 0,27,28
 270 403 270 403 368 449 c 1,29,30
 370 489 370 489 377 566 c 0,31,32
 378 581 378 581 379 589 c 1,33,34
 360 588 360 588 322 588 c 0,35,36
 285 588 285 588 182 593 c 0,37,38
 175 594 175 594 172 594 c 2,39,-1
 170 666 l 1,40,41
 247 654 247 654 323 654 c 0,42,43
 366 654 366 654 385 655 c 1,44,45
 386 667 386 667 389 690 c 0,46,47
 392 717 392 717 393 728 c 0,48,49
 396 752 396 752 396 773 c 1,50,51
 425 772 425 772 453.5 768 c 128,-1,52
 482 764 482 764 481 761 c 128,-1,53
 480 758 480 758 476 757 c 0,54,55
 470 756 470 756 468 750 c 0,56,57
 467 747 467 747 465.5 740 c 128,-1,58
 464 733 464 733 463 729 c 0,59,60
 462 721 462 721 459 701 c 0,61,62
 454 673 454 673 452 657 c 1,63,64
 617 665 617 665 743 691 c 1,65,-1
 744 620 l 1,66,67
 618 599 618 599 444 591 c 1,68,69
 440 554 440 554 434 474 c 1,70,71
 515 499 515 499 590 499 c 0,72,73
 613 499 613 499 624 498 c 1,74,-1
 627 506 l 2,75,76
 634 533 634 533 636 561 c 1,77,78
 666 553 666 553 693 543 c 256,79,80
 720 533 720 533 719 529 c 0,81,82
 718 527 718 527 713 526 c 0,83,84
 705 524 705 524 702 517 c 0,85,86
 696 497 696 497 693 489 c 2,87,-1
 692 485 l 1,88,89
 778 462 778 462 829 400 c 0,90,91
 878 340 878 340 878 261 c 0,92,93
 878 152 878 152 807 77 c 0,94,95
 728 -5 728 -5 573 -29 c 1,0,-1
259 96 m 0,96,97
 318 96 318 96 387 146 c 1,98,99
 366 256 366 256 366 361 c 2,100,-1
 366 377 l 1,101,102
 298 338 298 338 252 274 c 0,103,104
 207 210 207 210 207 153 c 128,-1,105
 207 96 207 96 259 96 c 0,96,97
447 196 m 1,106,107
 496 243 496 243 533 299 c 0,108,109
 576 362 576 362 604 436 c 1,110,-1
 589 436 l 2,111,112
 513 436 513 436 431 407 c 1,113,-1
 431 369 l 2,114,115
 431 294 431 294 447 196 c 1,106,107
807 627 m 1,116,117
 794 658 794 658 772 697 c 128,-1,118
 750 736 750 736 731 763 c 1,119,-1
 778 784 l 1,120,121
 824 719 824 719 856 650 c 1,122,-1
 807 627 l 1,116,117
910 668 m 1,123,124
 896 696 896 696 873 736 c 0,125,126
 852 774 852 774 831 800 c 1,127,-1
 877 822 l 1,128,129
 914 773 914 773 958 692 c 1,130,-1
 910 668 l 1,123,124
EndSplineSet
LCarets2: 1 0
EndChar

StartChar: uni3044_uni3099.ccmp
Encoding: 37 -1 37
Width: 1000
GlyphClass: 1
Flags: W
LayerCount: 2
Fore
SplineSet
366 10 m 0,0,1
 294 10 294 10 244 85 c 0,2,3
 186 172 186 172 168 346 c 0,4,5
 158 438 158 438 158 600 c 0,6,7
 158 656 158 656 152 684 c 1,8,-1
 242 682 l 1,9,10
 237 645 237 645 235 590 c 0,11,12
 233 466 233 466 242 365 c 0,13,14
 253 243 253 243 286 173 c 0,15,16
 319 101 319 101 367 101 c 0,17,18
 401 101 401 101 434 162 c 0,19,20
 463 215 463 215 483 295 c 1,21,-1
 512 260 l 1,22,-1
 542 226 l 1,23,24
 502 110 502 110 457 58 c 0,25,26
 416 10 416 10 366 10 c 0,0,1
815 160 m 1,27,28
 803 293 803 293 762 418 c 0,29,30
 718 552 718 552 654 630 c 1,31,-1
 727 656 l 1,32,33
 789 574 789 574 836 442 c 0,34,35
 881 312 881 312 891 191 c 1,36,-1
 815 160 l 1,27,28
807 627 m 1,37,38
 794 658 794 658 772 697 c 128,-1,39
 750 736 750 736 731 763 c 1,40,-1
 778 784 l 1,41,42
 824 719 824 719 856 650 c 1,43,-1
 807 627 l 1,37,38
910 668 m 1,44,45
 896 696 896 696 873 736 c 0,46,47
 852 774 852 774 831 800 c 1,48,-1
 877 822 l 1,49,50
 914 773 914 773 958 692 c 1,51,-1
 910 668 l 1,44,45
EndSplineSet
EndChar

StartChar: uni3048_uni3099.ccmp
Encoding: 38 -1 38
Width: 1000
GlyphClass: 1
Flags: W
LayerCount: 2
Fore
SplineSet
214 -21 m 1,0,-1
 178 4 l 1,1,-1
 142 29 l 1,2,3
 168 51 168 51 188 73 c 0,4,5
 220 104 220 104 519 410 c 0,6,7
 557 449 557 449 571 463 c 1,8,9
 508 459 508 459 313 441 c 0,10,11
 293 440 293 440 285 439 c 0,12,13
 246 436 246 436 210 431 c 1,14,-1
 203 515 l 1,15,16
 241 512 241 512 282 513 c 0,17,18
 322 514 322 514 445.5 523 c 128,-1,19
 569 532 569 532 622 538 c 0,20,21
 651 542 651 542 666 549 c 1,22,23
 684 528 684 528 698 506 c 0,24,25
 713 483 713 483 709 480 c 0,26,27
 706 477 706 477 701 479 c 0,28,29
 692 481 692 481 684 475 c 0,30,31
 666 459 666 459 661 454 c 0,32,33
 548 350 548 350 487 286 c 1,34,35
 507 288 507 288 522 283 c 0,36,37
 572 277 572 277 593 215 c 0,38,39
 597 201 597 201 608 164 c 0,40,41
 619 124 619 124 624 108 c 0,42,43
 632 81 632 81 650.5 69 c 128,-1,44
 669 57 669 57 704 57 c 0,45,46
 802 57 802 57 880 77 c 1,47,-1
 875 -4 l 1,48,49
 797 -18 797 -18 700 -18 c 0,50,51
 641 -18 641 -18 609 -1 c 0,52,53
 573 18 573 18 558 63 c 0,54,55
 555 73 555 73 548 101 c 0,56,57
 533 156 533 156 527 174 c 0,58,59
 510 224 510 224 471 224 c 0,60,61
 438 224 438 224 402 190 c 0,62,63
 290 78 290 78 214 -21 c 1,0,-1
796 627 m 1,64,65
 781 660 781 660 760 697 c 0,66,67
 742 732 742 732 720 763 c 1,68,-1
 767 784 l 1,69,70
 811 723 811 723 844 650 c 1,71,-1
 796 627 l 1,64,65
680 648 m 1,72,73
 602 655 602 655 504 668 c 0,74,75
 414 680 414 680 313 698 c 1,76,-1
 325 769 l 1,77,78
 398 753 398 753 513 737 c 0,79,80
 620 723 620 723 690 719 c 1,81,-1
 680 648 l 1,72,73
899 668 m 1,82,83
 885 696 885 696 862 736 c 0,84,85
 841 774 841 774 820 800 c 1,86,-1
 866 822 l 1,87,88
 903 773 903 773 947 692 c 1,89,-1
 899 668 l 1,82,83
EndSplineSet
EndChar

StartChar: uni304A_uni3099.ccmp
Encoding: 39 -1 39
Width: 1000
GlyphClass: 1
Flags: W
LayerCount: 2
Fore
SplineSet
326 -11 m 0,0,1
 266 -11 266 -11 202 36 c 0,2,3
 132 86 132 86 132 146 c 0,4,5
 132 202 132 202 194 262 c 0,6,7
 250 317 250 317 336 354 c 1,8,-1
 336 408 l 2,9,10
 336 470 336 470 336 532 c 1,11,12
 311 530 311 530 268 530 c 0,13,14
 185 530 185 530 149 534 c 1,15,-1
 148 607 l 1,16,17
 206 600 206 600 266 600 c 0,18,19
 287 600 287 600 334 602 c 0,20,21
 336 602 336 602 337 602 c 1,22,23
 337 615 337 615 338 639 c 0,24,25
 339 698 339 698 339 711 c 0,26,27
 339 751 339 751 334 778 c 1,28,-1
 415 778 l 1,29,30
 415 772 415 772 414 757 c 0,31,32
 412 727 412 727 411 713 c 0,33,34
 410 685 410 685 408 610 c 1,35,36
 526 626 526 626 599 649 c 1,37,-1
 600 573 l 1,38,39
 514 553 514 553 406 540 c 1,40,41
 404 450 404 450 404 411 c 2,42,-1
 404 380 l 1,43,44
 509 414 509 414 608 414 c 0,45,46
 710 414 710 414 775 362 c 0,47,48
 841 310 841 310 841 225 c 0,49,50
 841 55 841 55 643 5 c 0,51,52
 598 -5 598 -5 528 -7 c 1,53,-1
 502 69 l 1,54,55
 506 69 506 69 514 69 c 0,56,57
 579 69 579 69 611 75 c 0,58,59
 679 88 679 88 720 123 c 0,60,61
 767 162 767 162 767 224 c 0,62,63
 767 283 767 283 720 316 c 0,64,65
 677 348 677 348 607 348 c 0,66,67
 508 348 508 348 405 311 c 1,68,69
 409 149 409 149 409 105 c 0,70,71
 409 -11 409 -11 326 -11 c 0,0,1
306 69 m 0,72,73
 339 69 339 69 339 115 c 0,74,75
 339 134 339 134 338 195 c 0,76,77
 336 252 336 252 336 283 c 1,78,79
 280 256 280 256 243 219 c 0,80,81
 206 180 206 180 206 149 c 0,82,83
 206 119 206 119 243 93 c 0,84,85
 276 69 276 69 306 69 c 0,72,73
881 450 m 1,86,87
 827 502 827 502 672 592 c 1,88,-1
 706 650 l 1,89,90
 759 621 759 621 820 582 c 0,91,92
 895 532 895 532 918 511 c 1,93,-1
 881 450 l 1,86,87
808 637 m 1,94,95
 798 661 798 661 774 705 c 0,96,97
 755 740 755 740 734 768 c 1,98,-1
 782 789 l 1,99,100
 827 724 827 724 857 660 c 1,101,-1
 808 637 l 1,94,95
913 675 m 1,102,103
 897 710 897 710 877 741 c 0,104,105
 862 768 862 768 836 803 c 1,106,-1
 883 825 l 1,107,108
 924 770 924 770 961 699 c 1,109,-1
 913 675 l 1,102,103
EndSplineSet
EndChar

StartChar: uni3093_uni3099.ccmp
Encoding: 40 -1 40
Width: 1000
GlyphClass: 1
Flags: W
LayerCount: 2
Fore
SplineSet
186 -17 m 1,0,-1
 104 11 l 1,1,2
 149 135 149 135 276 392 c 0,3,4
 365 572 365 572 433 697 c 0,5,6
 436 703 436 703 441 715 c 0,7,8
 459 750 459 750 467 770 c 1,9,-1
 509 753 l 1,10,-1
 551 736 l 1,11,12
 537 719 537 719 521 690 c 0,13,14
 463 600 463 600 341 364 c 1,15,16
 403 422 403 422 477 422 c 0,17,18
 525 422 525 422 555 392 c 0,19,20
 586 361 586 361 587 306 c 0,21,22
 588 283 588 283 588 233 c 0,23,24
 589 158 589 158 591 130 c 0,25,26
 595 63 595 63 665 63 c 0,27,28
 736 63 736 63 790 141 c 0,29,30
 832 203 832 203 854 294 c 1,31,32
 928 232 928 232 920 213 c 0,33,34
 917 205 917 205 909 199 c 0,35,36
 896 190 896 190 888 168 c 0,37,38
 807 -17 807 -17 653 -17 c 0,39,40
 586 -17 586 -17 550 23 c 0,41,42
 522 55 522 55 519 104 c 0,43,44
 517 134 517 134 516 204 c 0,45,46
 515 262 515 262 514 285 c 0,47,48
 511 351 511 351 446 351 c 0,49,50
 394 351 394 351 342 303 c 0,51,52
 297 262 297 262 266 199 c 0,53,54
 246 159 246 159 220 88 c 0,55,56
 196 21 196 21 186 -17 c 1,0,-1
782 522 m 1,57,58
 772 541 772 541 742 597 c 0,59,60
 716 646 716 646 698 672 c 1,61,-1
 748 694 l 1,62,63
 768 664 768 664 824 566 c 0,64,65
 832 552 832 552 835 546 c 1,66,-1
 782 522 l 1,57,58
897 568 m 1,67,68
 895 572 895 572 890 580 c 0,69,70
 868 621 868 621 855 643 c 0,71,72
 823 697 823 697 809 714 c 1,73,-1
 860 737 l 1,74,75
 902 678 902 678 947 592 c 1,76,-1
 897 568 l 1,67,68
EndSplineSet
EndChar

StartChar: uni30A2_uni3099.ccmp
Encoding: 41 -1 41
Width: 1000
GlyphClass: 1
Flags: W
LayerCount: 2
Fore
SplineSet
268 -37 m 1,0,-1
 233 -8 l 1,1,-1
 199 22 l 1,2,3
 241 35 241 35 283 64 c 0,4,5
 383 127 383 127 421 232 c 0,6,7
 449 311 449 311 449 452 c 0,8,9
 449 487 449 487 445 522 c 1,10,-1
 530 522 l 1,11,12
 530 372 530 372 515 289 c 0,13,14
 496 179 496 179 443 105 c 0,15,16
 383 22 383 22 268 -37 c 1,0,-1
646 349 m 1,17,-1
 584 400 l 1,18,19
 645 436 645 436 708 504 c 0,20,21
 765 565 765 565 790 615 c 1,22,-1
 254 615 l 2,23,24
 221 615 221 615 153 609 c 0,25,26
 149 609 149 609 147 609 c 1,27,-1
 147 696 l 1,28,29
 205 687 205 687 254 687 c 2,30,-1
 523 687 l 1,31,-1
 793 687 l 2,32,33
 835 687 835 687 859 694 c 1,34,35
 911 642 911 642 908 637 c 0,36,37
 907 635 907 635 903 636 c 0,38,39
 897 637 897 637 893 632 c 0,40,41
 883 620 883 620 880 614 c 0,42,43
 843 551 843 551 789 486 c 0,44,45
 718 400 718 400 646 349 c 1,17,-1
756 700 m 1,46,47
 748 720 748 720 728 756 c 0,48,49
 716 779 716 779 697 808 c 1,50,-1
 753 824 l 1,51,52
 780 784 780 784 815 718 c 1,53,-1
 756 700 l 1,46,47
884 711 m 1,54,55
 875 735 875 735 856 768 c 0,56,57
 839 799 839 799 823 820 c 1,58,-1
 879 837 l 1,59,60
 917 777 917 777 941 728 c 1,61,-1
 884 711 l 1,54,55
EndSplineSet
EndChar

StartChar: uni30A4_uni3099.ccmp
Encoding: 42 -1 42
Width: 1000
GlyphClass: 1
Flags: W
LayerCount: 2
Fore
SplineSet
501 -16 m 1,0,1
 507 20 507 20 507 87 c 2,2,-1
 507 450 l 1,3,4
 348 360 348 360 153 300 c 1,5,-1
 110 375 l 1,6,7
 223 402 223 402 340 452 c 0,8,9
 448 499 448 499 530 552 c 0,10,11
 603 597 603 597 670 655 c 0,12,13
 738 714 738 714 777 764 c 1,14,15
 802 741 802 741 821 715 c 0,16,17
 842 687 842 687 836 681 c 0,18,19
 831 676 831 676 823 677 c 0,20,21
 810 677 810 677 798 665 c 0,22,23
 695 567 695 567 587 498 c 1,24,-1
 587 292 l 1,25,-1
 587 87 l 2,26,27
 587 13 587 13 593 -16 c 1,28,-1
 501 -16 l 1,0,1
806 378 m 1,29,30
 794 406 794 406 770 451 c 0,31,32
 745 495 745 495 727 518 c 1,33,-1
 775 539 l 1,34,35
 828 460 828 460 854 402 c 1,36,-1
 806 378 l 1,29,30
912 418 m 1,37,38
 871 499 871 499 831 555 c 1,39,-1
 877 578 l 1,40,41
 891 560 891 560 919 514 c 0,42,43
 943 477 943 477 961 442 c 1,44,-1
 912 418 l 1,37,38
EndSplineSet
EndChar

StartChar: uni30A8_uni3099.ccmp
Encoding: 43 -1 43
Width: 1000
GlyphClass: 1
Flags: W
LayerCount: 2
Fore
SplineSet
109 29 m 1,0,-1
 109 117 l 1,1,2
 151 111 151 111 192 111 c 2,3,-1
 457 111 l 1,4,-1
 457 553 l 1,5,-1
 245 553 l 2,6,7
 198 553 198 553 166 549 c 1,8,-1
 166 633 l 1,9,10
 197 628 197 628 245 628 c 2,11,-1
 762 628 l 2,12,13
 805 628 805 628 842 633 c 1,14,-1
 842 549 l 1,15,16
 811 553 811 553 762 553 c 2,17,-1
 537 553 l 1,18,-1
 537 111 l 1,19,-1
 813 111 l 2,20,21
 843 111 843 111 891 117 c 1,22,-1
 891 29 l 1,23,24
 866 33 866 33 813 33 c 2,25,-1
 502 33 l 1,26,-1
 192 33 l 2,27,28
 148 33 148 33 109 29 c 1,0,-1
791 647 m 1,29,30
 781 671 781 671 757 713 c 0,31,32
 739 745 739 745 717 774 c 1,33,-1
 767 795 l 1,34,35
 810 736 810 736 842 671 c 1,36,-1
 791 647 l 1,29,30
905 675 m 1,37,38
 894 699 894 699 870 741 c 0,39,40
 844 781 844 781 829 800 c 1,41,-1
 877 822 l 1,42,43
 921 766 921 766 956 700 c 1,44,-1
 905 675 l 1,37,38
EndSplineSet
EndChar

StartChar: uni30AA_uni3099.ccmp
Encoding: 44 -1 44
Width: 1000
GlyphClass: 1
Flags: W
LayerCount: 2
Fore
SplineSet
569 -13 m 0,0,1
 487 -13 487 -13 418 -7 c 1,2,-1
 412 72 l 1,3,4
 480 60 480 60 544 60 c 0,5,6
 579 60 579 60 579 98 c 0,7,8
 579 254 579 254 576 447 c 1,9,10
 513 356 513 356 405 259 c 0,11,12
 286 152 286 152 165 87 c 1,13,-1
 112 149 l 1,14,15
 247 216 247 216 371 326 c 0,16,17
 482 425 482 425 543 519 c 1,18,-1
 234 519 l 2,19,20
 190 519 190 519 146 516 c 1,21,-1
 146 598 l 1,22,23
 187 592 187 592 232 592 c 2,24,-1
 403 592 l 1,25,-1
 574 592 l 1,26,27
 572 656 572 656 571 685 c 0,28,29
 571 686 571 686 571 689 c 0,30,31
 569 740 569 740 563 766 c 1,32,-1
 650 766 l 1,33,34
 645 721 645 721 645 685 c 2,35,-1
 647 592 l 1,36,-1
 794 592 l 2,37,38
 836 592 836 592 874 598 c 1,39,-1
 874 517 l 1,40,41
 830 519 830 519 797 519 c 2,42,-1
 648 519 l 1,43,44
 648 483 648 483 650 405 c 0,45,46
 653 154 653 154 654 64 c 0,47,48
 654 -13 654 -13 569 -13 c 0,0,1
805 631 m 1,49,50
 787 670 787 670 770 699 c 0,51,52
 750 737 750 737 731 763 c 1,53,-1
 778 784 l 1,54,55
 821 724 821 724 853 654 c 1,56,-1
 805 631 l 1,49,50
908 671 m 1,57,58
 892 706 892 706 872 737 c 0,59,60
 852 774 852 774 832 799 c 1,61,-1
 878 821 l 1,62,63
 916 771 916 771 957 695 c 1,64,-1
 908 671 l 1,57,58
EndSplineSet
EndChar

StartChar: uni30F3_uni3099.ccmp
Encoding: 45 -1 45
Width: 1000
GlyphClass: 1
Flags: W
LayerCount: 2
Fore
SplineSet
212 -9 m 1,0,-1
 187 30 l 1,1,-1
 163 70 l 1,2,3
 367 101 367 101 539 210 c 0,4,5
 642 277 642 277 729 377 c 0,6,7
 809 469 809 469 853 563 c 1,8,-1
 898 482 l 1,9,10
 846 386 846 386 769 300 c 0,11,12
 683 205 683 205 582 141 c 0,13,14
 413 29 413 29 212 -9 c 1,0,-1
424 454 m 1,15,16
 388 492 388 492 315 555 c 0,17,18
 241 619 241 619 190 654 c 1,19,-1
 243 713 l 1,20,21
 282 688 282 688 368 617 c 0,22,23
 444 555 444 555 483 514 c 1,24,-1
 424 454 l 1,15,16
736 577 m 1,25,26
 714 624 714 624 696 653 c 0,27,28
 671 697 671 697 651 725 c 1,29,-1
 703 748 l 1,30,31
 758 668 758 668 790 601 c 1,32,-1
 736 577 l 1,25,26
862 625 m 1,33,34
 850 650 850 650 820 700 c 0,35,36
 793 745 793 745 774 770 c 1,37,-1
 826 794 l 1,38,39
 869 737 869 737 915 650 c 1,40,-1
 862 625 l 1,33,34
EndSplineSet
EndChar

StartChar: uni52FB
Encoding: 46 21243 46
Width: 1000
Flags: W
LayerCount: 2
Fore
SplineSet
540 -66 m 1,1,2
 536 -26 536 -26 518 3 c 1,3,4
 590 -3 590 -3 681 -3 c 0,5,6
 712 -3 712 -3 725 11 c 0,7,8
 750 35 750 35 765 160.5 c 128,-1,9
 780 286 780 286 791 565 c 1,10,-1
 287 565 l 1,11,12
 220 446 220 446 137 364 c 1,13,14
 107 392 107 392 77 409 c 1,15,16
 150 473 150 473 210 572 c 0,17,18
 269 668 269 668 306 779 c 1,19,20
 334 772 334 772 359 758 c 0,21,22
 384 745 384 745 382 738 c 0,23,24
 380 732 380 732 373 729 c 0,25,26
 361 722 361 722 355 705 c 0,27,28
 341 670 341 670 322 632 c 1,29,-1
 592 632 l 1,30,-1
 862 632 l 1,31,32
 861 612 861 612 861 594 c 0,33,34
 848 269 848 269 834 142 c 0,35,36
 818 7 818 7 788 -29 c 0,37,38
 771 -49 771 -49 752 -59 c 0,39,40
 735 -66 735 -66 706 -69 c 0,41,0
 656 -73 656 -73 540 -66 c 1,1,2
188 153 m 1,42,43
 185 158 185 158 185 191 c 128,-1,44
 185 224 185 224 188 229 c 1,45,46
 283 222 283 222 428 222 c 2,47,-1
 548 222 l 2,48,49
 609 222 609 222 669 227 c 1,50,51
 672 223 672 223 671.5 190 c 128,-1,52
 671 157 671 157 669 153 c 1,53,54
 624 159 624 159 548 158 c 2,55,-1
 428 158 l 1,56,-1
 308 158 l 2,57,58
 249 159 249 159 188 153 c 1,42,43
235 364 m 1,59,60
 232 368 232 368 232 401.5 c 128,-1,61
 232 435 232 435 235 441 c 1,62,63
 312 434 312 434 432 433 c 2,64,-1
 531 433 l 2,65,66
 576 433 576 433 629 438 c 1,67,68
 632 434 632 434 632 401 c 128,-1,69
 632 368 632 368 629 364 c 1,70,71
 589 369 589 369 531 369 c 2,72,-1
 432 369 l 1,73,-1
 333 369 l 2,74,75
 289 369 289 369 235 364 c 1,59,60
EndSplineSet
EndChar

StartChar: uni5E21
Encoding: 47 24097 47
Width: 1000
Flags: W
LayerCount: 2
Fore
SplineSet
266 -76 m 0,0,1
 234 -76 234 -76 230 -72 c 1,2,3
 237 -5 237 -5 236 81 c 2,4,-1
 236 235 l 1,5,-1
 236 541 l 1,6,-1
 167 541 l 1,7,-1
 167 330 l 2,8,9
 167 202 167 202 175 118 c 1,10,11
 169 114 169 114 142 115 c 0,12,13
 115 115 115 115 109 118 c 1,14,15
 116 215 116 215 117 361 c 2,16,-1
 117 483 l 2,17,18
 117 559 117 559 111 604 c 0,19,20
 111 607 111 607 117 607 c 0,21,22
 139 604 139 604 177 604 c 2,23,-1
 236 604 l 1,24,-1
 236 691 l 2,25,26
 236 732 236 732 232 783 c 1,27,28
 255 785 255 785 282 782 c 0,29,30
 314 778 314 778 314 770 c 1,31,32
 295 740 295 740 295 710 c 2,33,-1
 295 604 l 1,34,-1
 354 604 l 2,35,36
 392 604 392 604 412 607 c 0,37,38
 419 607 419 607 420 604 c 0,39,40
 413 522 413 522 412 398 c 2,41,-1
 412 192 l 2,42,43
 412 147 412 147 393 134 c 0,44,45
 375 121 375 121 322 121 c 1,46,47
 319 148 319 148 306 184 c 1,48,49
 343 182 343 182 354 184 c 0,50,51
 363 184 363 184 363 193 c 2,52,-1
 363 541 l 1,53,-1
 295 541 l 1,54,-1
 295 208 l 2,55,56
 295 40 295 40 302 -72 c 1,57,58
 297 -76 297 -76 266 -76 c 0,0,1
768 -74 m 256,59,60
 736 -74 736 -74 734 -69 c 0,61,62
 738 -26 738 -26 738 18 c 2,63,-1
 738 104 l 1,64,-1
 738 279 l 1,65,-1
 617 279 l 1,66,67
 604 53 604 53 467 -62 c 1,68,69
 447 -35 447 -35 423 -18 c 1,70,71
 543 83 543 83 556 279 c 1,72,-1
 496 279 l 2,73,74
 467 279 467 279 437 276 c 0,75,76
 434 278 434 278 434.5 310.5 c 128,-1,77
 435 343 435 343 437 345 c 0,78,79
 459 342 459 342 497 342 c 2,80,-1
 558 342 l 1,81,-1
 558 519 l 1,82,-1
 508 519 l 2,83,84
 484 519 484 519 460 516 c 0,85,86
 457 518 457 518 457 551 c 128,-1,87
 457 584 457 584 460 588 c 1,88,89
 505 582 505 582 582 582 c 2,90,-1
 704 582 l 1,91,92
 753 676 753 676 785 777 c 1,93,94
 811 766 811 766 833 750 c 0,95,96
 857 733 857 733 853 726 c 0,97,98
 850 720 850 720 843 717 c 0,99,100
 832 712 832 712 824 696 c 0,101,102
 821 690 821 690 816 679 c 0,103,104
 784 612 784 612 768 582 c 1,105,-1
 836 582 l 2,106,107
 870 582 870 582 904 585 c 0,108,109
 907 583 907 583 907 550.5 c 128,-1,110
 907 518 907 518 904 516 c 0,111,112
 884 519 884 519 851 519 c 2,113,-1
 798 519 l 1,114,-1
 798 342 l 1,115,-1
 858 342 l 2,116,117
 888 342 888 342 916 345 c 0,118,119
 919 343 919 343 919 310.5 c 128,-1,120
 919 278 919 278 916 276 c 0,121,122
 896 279 896 279 858 279 c 2,123,-1
 798 279 l 1,124,-1
 798 104 l 2,125,126
 798 0 798 0 806 -69 c 1,127,128
 800 -74 800 -74 768 -74 c 256,59,60
619 342 m 1,129,-1
 738 342 l 1,130,-1
 738 519 l 1,131,-1
 619 519 l 1,132,-1
 619 430 l 1,133,-1
 619 342 l 1,129,-1
581 589 m 1,134,135
 571 622 571 622 550 665 c 0,136,137
 524 724 524 724 510 750 c 1,138,-1
 564 773 l 1,139,140
 612 684 612 684 640 616 c 1,141,-1
 581 589 l 1,134,135
EndSplineSet
EndChar

StartChar: uni657B
Encoding: 48 25979 48
Width: 1000
Flags: W
LayerCount: 2
Fore
SplineSet
157 -76 m 1,0,1
 147 -50 147 -50 121 -20 c 1,2,3
 291 -4 291 -4 410 26 c 1,4,5
 337 57 337 57 289 95 c 1,6,7
 227 65 227 65 149 40 c 1,8,9
 132 65 132 65 108 86 c 1,10,11
 266 129 266 129 357 193 c 1,12,-1
 288 193 l 2,13,14
 245 193 245 193 220 190 c 0,15,16
 216 190 216 190 217 193 c 0,17,18
 222 207 222 207 220 249 c 2,19,20
 220 249 220 249 220 264 c 2,21,-1
 220 335 l 2,22,23
 220 416 220 416 214 478 c 0,24,25
 214 485 214 485 220 485 c 0,26,27
 282 478 282 478 362 478 c 2,28,-1
 505 478 l 1,29,-1
 647 478 l 2,30,31
 728 478 728 478 790 485 c 0,32,33
 794 485 794 485 793 478 c 0,34,35
 789 443 789 443 790 407 c 2,36,-1
 790 335 l 2,37,38
 790 255 790 255 796 193 c 0,39,40
 796 186 796 186 790 185 c 0,41,42
 721 192 721 192 618 193 c 2,43,-1
 447 193 l 1,44,45
 425 173 425 173 405 160 c 1,46,-1
 634 160 l 2,47,48
 741 160 741 160 863 168 c 1,49,50
 866 162 866 162 866 139.5 c 128,-1,51
 866 117 866 117 863 116 c 0,52,53
 840 119 840 119 798 118 c 2,54,-1
 733 118 l 1,55,56
 674 65 674 65 583 26 c 1,57,58
 735 -7 735 -7 911 -15 c 1,59,60
 894 -35 894 -35 876 -72 c 1,61,62
 650 -54 650 -54 497 -6 c 1,63,64
 359 -49 359 -49 157 -76 c 1,0,1
493 49 m 1,65,66
 579 77 579 77 642 118 c 1,67,-1
 491 118 l 1,68,-1
 341 118 l 1,69,70
 400 78 400 78 493 49 c 1,65,66
284 231 m 1,71,-1
 724 231 l 1,72,-1
 724 277 l 1,73,-1
 504 277 l 1,74,-1
 284 277 l 1,75,-1
 284 231 l 1,71,-1
284 314 m 1,76,-1
 724 314 l 1,77,-1
 724 359 l 1,78,-1
 504 359 l 1,79,-1
 284 359 l 1,80,-1
 284 314 l 1,76,-1
284 396 m 1,81,-1
 724 396 l 1,82,-1
 724 439 l 1,83,-1
 504 439 l 1,84,-1
 284 439 l 1,85,-1
 284 396 l 1,81,-1
341 481 m 1,86,87
 330 497 330 497 303 518 c 1,88,89
 442 539 442 539 486 584 c 1,90,-1
 260 584 l 1,91,-1
 260 536 l 2,92,93
 260 506 260 506 263 487 c 0,94,95
 261 483 261 483 229 484 c 0,96,97
 196 484 196 484 194 487 c 0,98,99
 196 509 196 509 196 534 c 2,100,-1
 196 581 l 1,101,102
 176 570 176 570 137 550 c 1,103,104
 116 583 116 583 95 595 c 1,105,106
 178 632 178 632 246 685 c 0,107,108
 308 733 308 733 347 782 c 1,109,110
 371 776 371 776 396 766 c 0,111,112
 419 756 419 756 418 753 c 0,113,114
 416 751 416 751 411 752 c 0,115,116
 403 754 403 754 398 747 c 0,117,118
 389 738 389 738 381 727 c 1,119,-1
 500 727 l 1,120,-1
 619 727 l 1,121,-1
 631 731 l 1,122,-1
 676 699 l 1,123,124
 650 663 650 663 615 630 c 1,125,-1
 823 630 l 1,126,-1
 823 558 l 2,127,128
 823 523 823 523 827 487 c 0,129,130
 824 483 824 483 790 484 c 0,131,132
 755 484 755 484 752 487 c 0,133,134
 755 506 755 506 755 536 c 2,135,-1
 755 584 l 1,136,-1
 546 584 l 1,137,138
 539 573 539 573 534 568 c 1,139,140
 622 548 622 548 714 513 c 1,141,-1
 679 481 l 1,142,143
 617 508 617 508 499 540 c 1,144,145
 450 507 450 507 341 481 c 1,86,87
272 630 m 1,146,-1
 402 630 l 1,147,-1
 533 630 l 1,148,149
 555 649 555 649 580 679 c 1,150,-1
 333 679 l 1,151,152
 304 652 304 652 272 630 c 1,146,-1
EndSplineSet
EndChar

StartChar: uni7BB3
Encoding: 49 31667 49
Width: 1000
Flags: W
LayerCount: 2
Fore
SplineSet
681 -76 m 0,0,1
 649 -76 649 -76 646 -72 c 0,2,3
 650 -29 650 -29 650 15 c 2,4,-1
 650 102 l 1,5,-1
 469 102 l 1,6,7
 444 -16 444 -16 314 -75 c 1,8,9
 294 -48 294 -48 273 -34 c 1,10,11
 381 14 381 14 406 102 c 1,12,-1
 323 102 l 2,13,14
 295 102 295 102 241 98 c 0,15,16
 238 101 238 101 238 129.5 c 128,-1,17
 238 158 238 158 241 161 c 0,18,19
 284 157 284 157 328 157 c 2,20,-1
 414 157 l 1,21,-1
 414 166 l 1,22,-1
 414 235 l 1,23,-1
 347 235 l 2,24,25
 313 235 313 235 281 232 c 0,26,27
 278 234 278 234 278 262 c 128,-1,28
 278 290 278 290 281 293 c 0,29,30
 318 289 318 289 357 289 c 2,31,-1
 434 289 l 1,32,33
 420 322 420 322 385 366 c 1,34,-1
 396 371 l 1,35,-1
 240 371 l 1,36,-1
 240 345 l 2,37,38
 240 65 240 65 127 -69 c 1,39,40
 103 -40 103 -40 81 -28 c 1,41,42
 140 45 140 45 163 157 c 0,43,44
 180 236 180 236 179 346 c 2,45,-1
 179 449 l 2,46,47
 179 511 179 511 175 553 c 0,48,49
 175 560 175 560 179 560 c 0,50,51
 244 553 244 553 346 553 c 2,52,-1
 513 553 l 1,53,-1
 847 553 l 1,54,-1
 847 461 l 2,55,56
 847 415 847 415 850 371 c 0,57,58
 850 368 850 368 847 368 c 0,59,60
 829 371 829 371 795 371 c 2,61,-1
 744 371 l 1,62,63
 720 328 720 328 690 289 c 1,64,-1
 779 289 l 2,65,66
 809 289 809 289 869 293 c 0,67,68
 872 290 872 290 872 262 c 128,-1,69
 872 234 872 234 869 231 c 0,70,71
 830 235 830 235 790 235 c 2,72,-1
 710 235 l 1,73,-1
 710 157 l 1,74,-1
 806 157 l 2,75,76
 848 157 848 157 901 162 c 1,77,78
 904 158 904 158 903.5 129.5 c 128,-1,79
 903 101 903 101 901 97 c 1,80,81
 862 102 862 102 806 102 c 2,82,-1
 710 102 l 1,83,-1
 710 15 l 2,84,85
 710 -29 710 -29 714 -72 c 0,86,87
 712 -76 712 -76 681 -76 c 0,0,1
475 157 m 1,88,-1
 650 157 l 1,89,-1
 650 235 l 1,90,-1
 562 235 l 1,91,-1
 475 235 l 1,92,-1
 475 165 l 1,93,-1
 475 157 l 1,88,-1
467 289 m 1,94,-1
 658 289 l 1,95,-1
 630 296 l 1,96,97
 647 323 647 323 674 371 c 1,98,-1
 561 371 l 1,99,-1
 450 371 l 1,100,101
 482 332 482 332 492 300 c 1,102,-1
 467 289 l 1,94,-1
240 423 m 1,103,-1
 781 423 l 1,104,-1
 781 500 l 1,105,-1
 510 500 l 1,106,-1
 240 500 l 1,107,-1
 240 423 l 1,103,-1
135 545 m 1,108,109
 112 566 112 566 80 582 c 1,110,111
 168 662 168 662 212 783 c 1,112,113
 236 776 236 776 259.5 765.5 c 128,-1,114
 283 755 283 755 281 751 c 128,-1,115
 279 747 279 747 273 746 c 0,116,117
 265 743 265 743 261 734 c 2,118,119
 261 734 261 734 246 701 c 1,120,-1
 367 701 l 1,121,-1
 428 701 l 2,122,123
 460 701 460 701 489 704 c 0,124,125
 492 702 492 702 492 675 c 128,-1,126
 492 648 492 648 489 645 c 0,127,128
 452 649 452 649 413 649 c 2,129,-1
 338 649 l 1,130,131
 363 606 363 606 372 583 c 1,132,-1
 311 565 l 1,133,134
 297 606 297 606 267 649 c 1,135,-1
 215 649 l 1,136,137
 182 593 182 593 135 545 c 1,108,109
699 557 m 1,138,139
 680 598 680 598 641 649 c 1,140,-1
 567 649 l 1,141,142
 529 596 529 596 485 558 c 1,143,144
 468 571 468 571 428 593 c 1,145,146
 474 627 474 627 511.5 677 c 128,-1,147
 549 727 549 727 570 783 c 1,148,149
 594 777 594 777 617 766.5 c 128,-1,150
 640 756 640 756 638 751 c 0,151,152
 636 747 636 747 631 746 c 0,153,154
 623 743 623 743 618 733 c 0,155,156
 611 717 611 717 601 701 c 1,157,-1
 750 701 l 1,158,-1
 824 701 l 2,159,160
 850 701 850 701 899 704 c 0,161,162
 902 701 902 701 902 674.5 c 128,-1,163
 902 648 902 648 899 645 c 0,164,165
 854 649 854 649 807 649 c 2,166,-1
 715 649 l 1,167,168
 749 605 749 605 760 578 c 1,169,-1
 699 557 l 1,138,139
EndSplineSet
EndChar

StartChar: uni8101
Encoding: 50 33025 50
Width: 1000
Flags: W
LayerCount: 2
Fore
SplineSet
131 -74 m 1,0,1
 105 -52 105 -52 78 -42 c 1,2,3
 116 45 116 45 131 180 c 0,4,5
 140 269 140 269 140 406 c 2,6,-1
 140 571 l 2,7,8
 140 670 140 670 133 735 c 0,9,10
 133 740 133 740 140 740 c 0,11,12
 187 735 187 735 253 735 c 2,13,-1
 310 735 l 2,14,15
 346 735 346 735 367 738 c 0,16,17
 374 738 374 738 374 735 c 0,18,19
 367 664 367 664 367 554 c 2,20,-1
 367 371 l 1,21,-1
 367 7 l 2,22,23
 367 -41 367 -41 340 -56 c 0,24,25
 316 -68 316 -68 238 -68 c 1,26,27
 234 -39 234 -39 218 -7 c 1,28,29
 252 -8 252 -8 293 -7 c 0,30,31
 306 -7 306 -7 306 7 c 2,32,-1
 306 234 l 1,33,-1
 193 234 l 1,34,35
 179 38 179 38 131 -74 c 1,0,1
412 -74 m 1,36,37
 392 -47 392 -47 363 -26 c 1,38,39
 453 28 453 28 494 109 c 0,40,41
 528 177 528 177 535 282 c 1,42,43
 499 251 499 251 428 196 c 0,44,45
 411 184 411 184 404 177 c 1,46,-1
 370 238 l 1,47,48
 423 270 423 270 538 350 c 1,49,-1
 538 364 l 1,50,-1
 538 571 l 2,51,52
 538 693 538 693 531 781 c 1,53,54
 558 783 558 783 586 780 c 0,55,56
 620 776 620 776 619 768 c 0,57,58
 600 738 600 738 601 708 c 2,59,-1
 601 570 l 1,60,-1
 601 364 l 2,61,62
 601 205 601 205 569 116 c 0,63,64
 527 -3 527 -3 412 -74 c 1,36,37
757 -64 m 2,65,66
 709 -64 709 -64 693 -42.5 c 128,-1,67
 677 -21 677 -21 677 43 c 2,68,-1
 677 410 l 1,69,-1
 677 594 l 2,70,71
 678 702 678 702 670 782 c 1,72,73
 698 784 698 784 725 781 c 0,74,75
 759 777 759 777 760 769 c 1,76,77
 741 739 741 739 741 709 c 2,78,-1
 741 356 l 1,79,-1
 766 379 l 1,80,81
 872 287 872 287 916 224 c 1,82,-1
 870 181 l 1,83,84
 825 245 825 245 741 326 c 1,85,-1
 741 42 l 2,86,87
 741 13 741 13 746 4.5 c 128,-1,88
 751 -4 751 -4 766 -4 c 2,89,-1
 840 -4 l 2,90,91
 854 -4 854 -4 860 20 c 0,92,93
 865 42 865 42 866 116 c 1,94,95
 892 96 892 96 923 89 c 1,96,97
 917 0 917 0 902 -31 c 0,98,99
 885 -65 885 -65 844 -64 c 2,100,-1
 757 -64 l 2,65,66
197 295 m 1,101,-1
 306 295 l 1,102,-1
 306 376 l 1,103,-1
 306 457 l 1,104,-1
 199 457 l 1,105,-1
 199 406 l 2,106,107
 199 334 199 334 197 295 c 1,101,-1
478 432 m 1,108,109
 469 468 469 468 442 525 c 0,110,111
 414 584 414 584 388 620 c 1,112,-1
 440 643 l 1,113,114
 470 600 470 600 495.5 548.5 c 128,-1,115
 521 497 521 497 533 458 c 1,116,-1
 478 432 l 1,108,109
787 438 m 1,117,-1
 742 465 l 1,118,119
 815 568 815 568 851 650 c 1,120,121
 873 637 873 637 893 621 c 0,122,123
 913 601 913 601 910 596 c 128,-1,124
 907 591 907 591 900 589 c 0,125,126
 888 586 888 586 879 572 c 0,127,128
 876 567 876 567 871 559 c 0,129,130
 856 535 856 535 847 524 c 0,131,132
 819 480 819 480 787 438 c 1,117,-1
199 518 m 1,133,-1
 306 518 l 1,134,-1
 306 595 l 1,135,-1
 306 674 l 1,136,-1
 199 674 l 1,137,-1
 199 518 l 1,133,-1
EndSplineSet
EndChar

StartChar: uni8C5C
Encoding: 51 35932 51
Width: 1000
Flags: W
LayerCount: 2
Fore
SplineSet
790 -75 m 256,0,1
 756 -75 756 -75 750 -71 c 1,2,3
 757 11 757 11 757 135 c 2,4,-1
 757 341 l 1,5,-1
 625 341 l 1,6,7
 621 209 621 209 591 119 c 0,8,9
 552 2 552 2 461 -73 c 1,10,11
 442 -49 442 -49 413 -29 c 1,12,13
 495 39 495 39 531 145 c 0,14,15
 558 225 558 225 560 341 c 1,16,-1
 511 341 l 2,17,18
 487 341 487 341 463 338 c 0,19,20
 460 340 460 340 460 374 c 128,-1,21
 460 408 460 408 463 410 c 0,22,23
 482 407 482 407 512 407 c 2,24,-1
 561 407 l 1,25,-1
 561 660 l 1,26,-1
 519 660 l 2,27,28
 505 660 505 660 478 658 c 0,29,30
 475 660 475 660 475 693 c 128,-1,31
 475 726 475 726 478 730 c 1,32,33
 522 725 522 725 584 725 c 2,34,-1
 691 725 l 1,35,-1
 798 725 l 2,36,37
 846 725 846 725 904 730 c 1,38,39
 907 726 907 726 907 693 c 128,-1,40
 907 660 907 660 904 658 c 0,41,42
 884 660 884 660 863 660 c 2,43,-1
 822 660 l 1,44,-1
 822 407 l 1,45,-1
 870 407 l 2,46,47
 894 407 894 407 917 410 c 0,48,49
 920 408 920 408 920 374 c 128,-1,50
 920 340 920 340 917 338 c 0,51,52
 900 341 900 341 870 341 c 2,53,-1
 822 341 l 1,54,-1
 822 135 l 2,55,56
 822 11 822 11 830 -71 c 1,57,58
 824 -75 824 -75 790 -75 c 256,0,1
232 -69 m 0,59,60
 203 -69 203 -69 170 -66 c 1,61,62
 168 -32 168 -32 156 -5 c 1,63,64
 188 -9 188 -9 218 -8 c 0,65,66
 235 -8 235 -8 244 -5 c 0,67,68
 256 0 256 0 266 15 c 0,69,70
 282 35 282 35 289.5 94 c 128,-1,71
 297 153 297 153 293 228 c 1,72,73
 208 121 208 121 103 61 c 1,74,75
 92 95 92 95 73 119 c 1,76,77
 132 147 132 147 191 199 c 256,78,79
 250 251 250 251 285 309 c 1,80,81
 278 355 278 355 266 403 c 1,82,83
 199 320 199 320 111 265 c 1,84,85
 98 299 98 299 81 320 c 1,86,87
 126 343 126 343 171 381 c 0,88,89
 219 422 219 422 247 462 c 1,90,91
 226 511 226 511 210 536 c 1,92,93
 161 493 161 493 118 469 c 1,94,95
 105 503 105 503 87 526 c 1,96,97
 187 579 187 579 249 663 c 1,98,-1
 169 663 l 2,99,100
 141 663 141 663 89 659 c 0,101,102
 86 662 86 662 86 693.5 c 128,-1,103
 86 725 86 725 89 728 c 0,104,105
 132 724 132 724 177 724 c 2,106,-1
 265 724 l 1,107,-1
 354 724 l 2,108,109
 385 724 385 724 442 728 c 0,110,111
 445 725 445 725 445 693.5 c 128,-1,112
 445 662 445 662 442 660 c 0,113,114
 420 663 420 663 380 663 c 2,115,-1
 317 663 l 1,116,117
 286 615 286 615 249 574 c 1,118,119
 285 523 285 523 311 450 c 1,120,121
 364 518 364 518 396 577 c 1,122,123
 417 563 417 563 435 545 c 0,124,125
 454 525 454 525 449 519 c 0,126,127
 445 514 445 514 437 512 c 0,128,129
 424 509 424 509 414 496 c 0,130,131
 405 485 405 485 387 461 c 0,132,133
 374 444 374 444 368 437 c 1,134,135
 425 364 425 364 449 302 c 1,136,-1
 406 276 l 1,137,138
 386 337 386 337 337 403 c 1,139,-1
 328 392 l 1,140,141
 360 268 360 268 354 138 c 0,142,143
 349 15 349 15 315 -27 c 0,144,145
 287 -66 287 -66 232 -69 c 0,59,60
626 407 m 1,146,-1
 757 407 l 1,147,-1
 757 660 l 1,148,-1
 626 660 l 1,149,-1
 626 533 l 1,150,-1
 626 407 l 1,146,-1
EndSplineSet
EndChar

StartChar: uni8EFF
Encoding: 52 36607 52
Width: 1000
Flags: W
LayerCount: 2
Fore
SplineSet
266 -75 m 256,0,1
 234 -75 234 -75 232 -71 c 0,2,3
 236 -32 236 -32 235 7 c 2,4,-1
 235 86 l 1,5,-1
 161 86 l 2,6,7
 135 86 135 86 86 82 c 0,8,9
 83 85 83 85 83 116 c 128,-1,10
 83 147 83 147 86 150 c 0,11,12
 123 146 123 146 161 146 c 2,13,-1
 235 146 l 1,14,-1
 235 218 l 1,15,-1
 174 218 l 2,16,17
 136 218 136 218 113 215 c 0,18,19
 109 215 109 215 109 218 c 0,20,21
 114 235 114 235 113 283 c 2,22,23
 113 283 113 283 113 301 c 2,24,-1
 113 385 l 2,25,26
 113 486 113 486 106 551 c 0,27,28
 106 554 106 554 113 554 c 0,29,30
 135 551 135 551 174 551 c 2,31,-1
 234 551 l 1,32,-1
 234 621 l 1,33,-1
 164 621 l 2,34,35
 130 621 130 621 95 618 c 0,36,37
 92 620 92 620 92 650.5 c 128,-1,38
 92 681 92 681 95 683 c 0,39,40
 120 680 120 680 164 680 c 2,41,-1
 234 680 l 1,42,-1
 234 730 l 2,43,44
 234 760 234 760 232 783 c 1,45,46
 255 785 255 785 280 782 c 0,47,48
 312 778 312 778 312 770 c 1,49,50
 297 748 297 748 297 725 c 2,51,-1
 297 680 l 1,52,-1
 368 680 l 2,53,54
 392 680 392 680 438 684 c 0,55,56
 441 681 441 681 441 650.5 c 128,-1,57
 441 620 441 620 438 617 c 0,58,59
 403 621 403 621 368 621 c 2,60,-1
 297 621 l 1,61,-1
 297 551 l 1,62,-1
 360 551 l 2,63,64
 400 552 400 552 423 554 c 0,65,66
 427 554 427 554 426 551 c 0,67,68
 422 510 422 510 423 468 c 2,69,-1
 423 384 l 1,70,-1
 423 301 l 2,71,72
 423 259 423 259 426 218 c 0,73,74
 426 215 426 215 423 215 c 0,75,76
 401 218 401 218 360 218 c 2,77,-1
 297 218 l 1,78,-1
 297 146 l 1,79,-1
 369 146 l 2,80,81
 394 146 394 146 440 150 c 0,82,83
 443 147 443 147 443 116 c 128,-1,84
 443 85 443 85 440 82 c 0,85,86
 405 86 405 86 369 86 c 2,87,-1
 297 86 l 1,88,-1
 297 7 l 2,89,90
 296 -32 296 -32 300 -71 c 0,91,92
 298 -75 298 -75 266 -75 c 256,0,1
775 -74 m 256,93,94
 745 -74 745 -74 742 -69 c 0,95,96
 746 -26 746 -26 746 18 c 2,97,-1
 746 104 l 1,98,-1
 746 279 l 1,99,-1
 631 279 l 1,100,101
 616 50 616 50 487 -62 c 1,102,103
 481 -52 481 -52 467.5 -38 c 128,-1,104
 454 -24 454 -24 445 -18 c 1,105,106
 561 84 561 84 573 279 c 1,107,-1
 517 279 l 2,108,109
 489 279 489 279 461 276 c 0,110,111
 458 278 458 278 458 310.5 c 128,-1,112
 458 343 458 343 461 345 c 0,113,114
 482 342 482 342 518 342 c 2,115,-1
 574 342 l 1,116,-1
 574 519 l 1,117,-1
 527 519 l 2,118,119
 510 519 510 519 480 517 c 0,120,121
 477 519 477 519 477.5 551 c 128,-1,122
 478 583 478 583 480 587 c 1,123,124
 528 582 528 582 596 582 c 2,125,-1
 712 582 l 1,126,127
 761 679 761 679 791 777 c 1,128,129
 815 766 815 766 835 750 c 0,130,131
 858 733 858 733 855 726 c 0,132,133
 852 720 852 720 846 717 c 0,134,135
 834 711 834 711 826 695 c 0,136,137
 819 682 819 682 807 655 c 0,138,139
 785 605 785 605 774 582 c 1,140,-1
 839 582 l 2,141,142
 873 582 873 582 904 585 c 0,143,144
 907 583 907 583 907 550.5 c 128,-1,145
 907 518 907 518 904 516 c 0,146,147
 886 519 886 519 854 519 c 2,148,-1
 803 519 l 1,149,-1
 803 342 l 1,150,-1
 861 342 l 2,151,152
 891 342 891 342 918 345 c 0,153,154
 921 343 921 343 921 310.5 c 128,-1,155
 921 278 921 278 918 276 c 0,156,157
 898 279 898 279 861 279 c 2,158,-1
 803 279 l 1,159,-1
 803 104 l 2,160,161
 803 0 803 0 810 -69 c 1,162,163
 805 -74 805 -74 775 -74 c 256,93,94
167 270 m 1,164,-1
 240 270 l 1,165,-1
 240 315 l 1,166,-1
 240 360 l 1,167,-1
 167 360 l 1,168,-1
 167 270 l 1,164,-1
293 270 m 1,169,-1
 367 270 l 1,170,-1
 367 360 l 1,171,-1
 293 360 l 1,172,-1
 293 315 l 1,173,-1
 293 270 l 1,169,-1
633 342 m 1,174,-1
 746 342 l 1,175,-1
 746 519 l 1,176,-1
 633 519 l 1,177,-1
 633 430 l 1,178,-1
 633 342 l 1,174,-1
167 410 m 1,179,-1
 240 410 l 1,180,-1
 240 454 l 1,181,-1
 240 499 l 1,182,-1
 167 499 l 1,183,-1
 167 410 l 1,179,-1
293 410 m 1,184,-1
 367 410 l 1,185,-1
 367 499 l 1,186,-1
 293 499 l 1,187,-1
 293 454 l 1,188,-1
 293 410 l 1,184,-1
598 589 m 1,189,190
 587 624 587 624 569 666 c 0,191,192
 549 714 549 714 529 750 c 1,193,-1
 581 773 l 1,194,195
 626 687 626 687 653 616 c 1,196,-1
 598 589 l 1,189,190
EndSplineSet
EndChar

StartChar: uni9203
Encoding: 53 37379 53
Width: 1000
Flags: W
LayerCount: 2
Fore
SplineSet
784 -75 m 256,0,1
 750 -75 750 -75 744 -71 c 1,2,3
 752 11 752 11 752 135 c 2,4,-1
 752 341 l 1,5,-1
 620 341 l 1,6,7
 616 210 616 210 587 119 c 0,8,9
 549 2 549 2 460 -73 c 1,10,11
 437 -45 437 -45 411 -29 c 1,12,13
 492 39 492 39 527 145 c 0,14,15
 553 225 553 225 556 341 c 1,16,-1
 504 341 l 2,17,18
 478 341 478 341 452 338 c 0,19,20
 449 340 449 340 449.5 374 c 128,-1,21
 450 408 450 408 452 410 c 0,22,23
 472 407 472 407 505 407 c 2,24,-1
 557 407 l 1,25,-1
 557 660 l 1,26,-1
 512 660 l 2,27,28
 497 660 497 660 467 658 c 0,29,30
 464 660 464 660 464 693 c 128,-1,31
 464 726 464 726 467 730 c 1,32,33
 512 725 512 725 576 725 c 2,34,-1
 685 725 l 1,35,-1
 795 725 l 2,36,37
 843 725 843 725 904 730 c 1,38,39
 907 726 907 726 907 693 c 128,-1,40
 907 660 907 660 904 658 c 0,41,42
 884 660 884 660 861 660 c 2,43,-1
 817 660 l 1,44,-1
 817 407 l 1,45,-1
 867 407 l 2,46,47
 892 407 892 407 917 410 c 0,48,49
 920 408 920 408 920 374 c 128,-1,50
 920 340 920 340 917 338 c 0,51,52
 899 341 899 341 867 341 c 2,53,-1
 817 341 l 1,54,-1
 817 135 l 2,55,56
 817 11 817 11 824 -71 c 1,57,58
 818 -75 818 -75 784 -75 c 256,0,1
101 -39 m 1,59,-1
 86 23 l 1,60,61
 165 38 165 38 233 53 c 1,62,-1
 233 187 l 1,63,-1
 233 322 l 1,64,-1
 164 322 l 2,65,66
 130 322 130 322 96 320 c 0,67,68
 93 322 93 322 93.5 353 c 128,-1,69
 94 384 94 384 96 386 c 0,70,71
 121 383 121 383 164 383 c 2,72,-1
 233 383 l 1,73,-1
 233 484 l 1,74,-1
 146 484 l 1,75,-1
 146 526 l 1,76,77
 141 521 141 521 131 512 c 0,78,79
 111 493 111 493 101 484 c 1,80,81
 94 516 94 516 72 554 c 1,82,83
 127 597 127 597 176 655 c 0,84,85
 228 718 228 718 258 785 c 1,86,87
 278 776 278 776 295 764 c 0,88,89
 313 753 313 753 312 750.5 c 128,-1,90
 311 748 311 748 307 748 c 0,91,92
 301 747 301 747 299 742 c 0,93,94
 295 735 295 735 289 722 c 1,95,96
 375 662 375 662 437 601 c 1,97,-1
 406 544 l 1,98,99
 358 599 358 599 260 672 c 1,100,101
 217 602 217 602 163 544 c 1,102,-1
 273 544 l 2,103,104
 323 544 323 544 384 549 c 1,105,106
 387 545 387 545 387 514 c 128,-1,107
 387 483 387 483 384 481 c 0,108,109
 367 484 367 484 337 484 c 2,110,-1
 289 484 l 1,111,-1
 289 383 l 1,112,-1
 351 383 l 2,113,114
 383 383 383 383 411 386 c 0,115,116
 414 384 414 384 414 352.5 c 128,-1,117
 414 321 414 321 411 320 c 0,118,119
 389 323 389 323 351 322 c 2,120,-1
 289 322 l 1,121,-1
 289 65 l 1,122,-1
 410 91 l 1,123,-1
 414 35 l 1,124,125
 237 -7 237 -7 101 -39 c 1,59,-1
148 89 m 1,126,127
 145 121 145 121 136 171 c 0,128,129
 125 222 125 222 114 261 c 1,130,-1
 158 273 l 1,131,132
 185 179 185 179 193 102 c 1,133,-1
 148 89 l 1,126,127
352 99 m 1,134,-1
 312 114 l 1,135,136
 336 189 336 189 354 283 c 1,137,138
 374 276 374 276 391 266 c 0,139,140
 410 255 410 255 409 249.5 c 128,-1,141
 408 244 408 244 402 241 c 0,142,143
 393 235 393 235 390 224 c 0,144,145
 388 217 388 217 384 201 c 128,-1,146
 380 185 380 185 377 178 c 0,147,148
 362 125 362 125 352 99 c 1,134,-1
620 407 m 1,149,-1
 752 407 l 1,150,-1
 752 660 l 1,151,-1
 620 660 l 1,152,-1
 620 533 l 1,153,-1
 620 407 l 1,149,-1
EndSplineSet
EndChar

StartChar: uni3055_uni309A.ccmp
Encoding: 54 -1 54
Width: 1000
Flags: W
LayerCount: 2
Fore
SplineSet
489 -32 m 0,0,1
 351 -31 351 -31 277 19 c 0,2,3
 198 72 198 72 198 176 c 0,4,5
 198 265 198 265 252.5 313 c 128,-1,6
 307 361 307 361 410 361 c 0,7,8
 476 361 476 361 574 343 c 0,9,10
 650 329 650 329 682 315 c 1,11,12
 612 422 612 422 569 534 c 1,13,14
 474 525 474 525 385 527 c 0,15,16
 276 529 276 529 174 537 c 1,17,-1
 172 613 l 1,18,19
 378 589 378 589 543 602 c 1,20,21
 528 653 528 653 516 688 c 0,22,23
 513 697 513 697 506 719 c 0,24,25
 497 749 497 749 492 764 c 1,26,-1
 531 769 l 1,27,-1
 571 773 l 1,28,29
 581 713 581 713 615 609 c 1,30,31
 678 618 678 618 731 630 c 1,32,33
 695 672 695 672 695 728 c 0,34,35
 695 791 695 791 740 835.5 c 128,-1,36
 785 880 785 880 847 880 c 0,37,38
 911 880 911 880 955.5 835.5 c 128,-1,39
 1000 791 1000 791 1000 728 c 128,-1,40
 1000 665 1000 665 955.5 620 c 128,-1,41
 911 575 911 575 847 575 c 0,42,43
 833 575 833 575 820 577 c 1,44,45
 746 557 746 557 638 543 c 1,46,47
 685 421 685 421 743 344 c 0,48,49
 752 332 752 332 771 310 c 0,50,51
 780 299 780 299 785 293 c 1,52,-1
 747 240 l 1,53,54
 693 256 693 256 602 273 c 0,55,56
 480 297 480 297 414 297 c 0,57,58
 272 297 272 297 272 185 c 0,59,60
 272 43 272 43 493 41 c 0,61,62
 622 40 622 40 735 64 c 1,63,-1
 732 -12 l 1,64,65
 607 -33 607 -33 489 -32 c 0,0,1
847 626 m 128,-1,67
 890 626 890 626 919 655.5 c 128,-1,68
 948 685 948 685 948 728 c 0,69,70
 948 770 948 770 918.5 799.5 c 128,-1,71
 889 829 889 829 847 829 c 0,72,73
 806 829 806 829 776 799 c 128,-1,74
 746 769 746 769 746 727.5 c 128,-1,75
 746 686 746 686 776 656 c 0,76,66
 804 626 804 626 847 626 c 128,-1,67
EndSplineSet
Colour: ff00ff
EndChar

StartChar: uni30B5_uni309A.ccmp
Encoding: 55 -1 55
Width: 1000
Flags: W
LayerCount: 2
Fore
SplineSet
832 581 m 128,-1,1
 875 581 875 581 904 610.5 c 128,-1,2
 933 640 933 640 933 683 c 0,3,4
 933 725 933 725 903.5 754.5 c 128,-1,5
 874 784 874 784 832 784 c 0,6,7
 791 784 791 784 761 754 c 128,-1,8
 731 724 731 724 731 682 c 0,9,10
 731 642 731 642 761 611 c 0,11,0
 789 581 789 581 832 581 c 128,-1,1
421 -47 m 1,12,-1
 358 14 l 1,13,14
 450 50 450 50 500 92 c 0,15,16
 559 141 559 141 586 219 c 0,17,18
 614 301 614 301 614 432 c 2,19,-1
 614 472 l 1,20,-1
 480 472 l 1,21,-1
 347 472 l 1,22,-1
 347 316 l 2,23,24
 347 266 347 266 351 230 c 1,25,-1
 267 230 l 1,26,27
 272 275 272 275 272 316 c 2,28,-1
 272 472 l 1,29,-1
 170 472 l 2,30,31
 116 472 116 472 76 468 c 1,32,-1
 76 552 l 1,33,34
 108 545 108 545 170 545 c 2,35,-1
 272 545 l 1,36,-1
 272 668 l 2,37,38
 272 701 272 701 267 738 c 1,39,-1
 351 738 l 1,40,41
 347 702 347 702 347 669 c 2,42,-1
 347 545 l 1,43,-1
 480 545 l 1,44,-1
 614 545 l 1,45,-1
 614 665 l 2,46,47
 614 708 614 708 610 744 c 1,48,-1
 692 744 l 1,49,50
 703 768 703 768 725 790 c 0,51,52
 770 834 770 834 832 835 c 0,53,54
 896 835 896 835 940.5 790.5 c 128,-1,55
 985 746 985 746 985 683 c 0,56,57
 984 620 984 620 940 575 c 0,58,59
 913 548 913 548 879 537 c 1,60,-1
 879 469 l 1,61,62
 846 472 846 472 793 472 c 2,63,-1
 690 472 l 1,64,-1
 690 438 l 2,65,66
 690 240 690 240 636 136 c 0,67,68
 577 24 577 24 421 -47 c 1,12,-1
766 545 m 1,69,70
 744 556 744 556 725 575 c 0,71,72
 701 599 701 599 690 628 c 1,73,-1
 690 545 l 1,74,-1
 766 545 l 1,69,70
EndSplineSet
Colour: ff00ff
EndChar

StartChar: uni305B_uni309A.ccmp
Encoding: 56 -1 56
Width: 1000
Flags: W
LayerCount: 2
Fore
SplineSet
502 -18 m 0,0,1
 394 -18 394 -18 343 1 c 0,2,3
 294 20 294 20 276 66 c 0,4,5
 262 102 262 102 259 187 c 0,6,7
 258 228 258 228 258 426 c 1,8,-1
 158 414 l 2,9,10
 147 413 147 413 122 409 c 0,11,12
 78 404 78 404 62 401 c 1,13,-1
 54 480 l 1,14,15
 84 480 84 480 152 484 c 2,16,-1
 258 495 l 1,17,-1
 259 628 l 2,18,19
 259 661 259 661 254 709 c 1,20,-1
 294 709 l 1,21,-1
 336 709 l 1,22,23
 332 667 332 667 332 632 c 2,24,-1
 331 502 l 1,25,26
 343 503 343 503 368 506 c 0,27,28
 545 523 545 523 633 530 c 1,29,-1
 633 599 l 1,30,-1
 633 668 l 2,31,32
 633 712 633 712 628 740 c 1,33,-1
 698 740 l 1,34,35
 709 768 709 768 733 792 c 0,36,37
 778 836 778 836 840 837 c 0,38,39
 904 837 904 837 948.5 792.5 c 128,-1,40
 993 748 993 748 993 685 c 0,41,42
 992 622 992 622 948 577 c 0,43,44
 918 546 918 546 879 537 c 1,45,-1
 879 473 l 1,46,47
 859 474 859 474 805 472 c 0,48,49
 802 472 802 472 796 472 c 0,50,51
 737 470 737 470 699 467 c 0,52,53
 699 464 699 464 699 457 c 0,54,55
 695 309 695 309 686 266 c 0,56,57
 680 235 680 235 663 222 c 0,58,59
 647 211 647 211 614 211 c 0,60,61
 560 211 560 211 490 225 c 1,62,-1
 492 291 l 1,63,64
 547 279 547 279 586 279 c 0,65,66
 604 279 604 279 611 284 c 0,67,68
 619 289 619 289 621 305 c 0,69,70
 628 352 628 352 632 461 c 1,71,72
 549 455 549 455 372 438 c 0,73,74
 344 435 344 435 331 434 c 1,75,76
 329 263 329 263 331 197 c 0,77,78
 333 136 333 136 340 115 c 0,79,80
 350 83 350 83 383 70 c 0,81,82
 419 57 419 57 498 57 c 0,83,84
 649 57 649 57 777 80 c 1,85,-1
 774 -1 l 1,86,87
 623 -18 623 -18 502 -18 c 0,0,1
840 583 m 128,-1,89
 883 583 883 583 912 612.5 c 128,-1,90
 941 642 941 642 941 685 c 0,91,92
 941 727 941 727 911.5 756.5 c 128,-1,93
 882 786 882 786 840 786 c 0,94,95
 799 786 799 786 769 756 c 128,-1,96
 739 726 739 726 739 684.5 c 128,-1,97
 739 643 739 643 769 613 c 0,98,88
 797 583 797 583 840 583 c 128,-1,89
702 620 m 1,99,-1
 701 536 l 1,100,-1
 786 542 l 1,101,102
 757 553 757 553 733 577 c 0,103,104
 713 597 713 597 702 620 c 1,99,-1
EndSplineSet
Colour: ff00ff
EndChar

StartChar: uni3064_uni309A.ccmp
Encoding: 57 -1 57
Width: 1000
Flags: W
LayerCount: 2
Fore
SplineSet
808 608 m 0,0,1
 851 608 851 608 880 638 c 128,-1,2
 909 668 909 668 909 710 c 0,3,4
 910 752 910 752 880 782 c 0,5,6
 852 812 852 812 808 812 c 0,7,8
 767 812 767 812 737 782 c 0,9,10
 707 752 707 752 707 710 c 0,11,12
 707 670 707 670 737 638 c 0,13,14
 765 608 765 608 808 608 c 0,0,1
356 10 m 1,15,-1
 339 50 l 1,16,-1
 323 90 l 1,17,18
 526 96 526 96 647 159 c 0,19,20
 788 232 788 232 788 369 c 0,21,22
 788 447 788 447 736 497 c 0,23,24
 681 550 681 550 588 550 c 0,25,26
 450 550 450 550 149 426 c 0,27,28
 128 417 128 417 120 414 c 1,29,-1
 102 456 l 1,30,-1
 85 498 l 1,31,32
 123 506 123 506 189 526 c 0,33,34
 200 530 200 530 228 539 c 0,35,36
 334 575 334 575 399 592 c 0,37,38
 513 622 513 622 590 622 c 0,39,40
 649 622 649 622 697 607 c 1,41,42
 656 650 656 650 656 710 c 0,43,44
 656 774 656 774 701 818 c 128,-1,45
 746 862 746 862 808 862 c 0,46,47
 872 862 872 862 916.5 818 c 128,-1,48
 961 774 961 774 961 710 c 0,49,50
 960 648 960 648 916 602 c 0,51,52
 870 556 870 556 808 558 c 0,53,54
 796 558 796 558 785 559 c 1,55,56
 787 557 787 557 789 556 c 0,57,58
 870 486 870 486 870 368 c 0,59,60
 870 203 870 203 722 109 c 0,61,62
 587 24 587 24 356 10 c 1,15,-1
EndSplineSet
Colour: ff00ff
EndChar

StartChar: uni3068_uni309A.ccmp
Encoding: 58 -1 58
Width: 1000
Flags: W
LayerCount: 2
Fore
SplineSet
825 598 m 0,0,1
 868 598 868 598 897 628 c 128,-1,2
 926 658 926 658 926 700 c 0,3,4
 926 742 926 742 896 772 c 0,5,6
 868 802 868 802 825 802 c 0,7,8
 784 802 784 802 754 772 c 0,9,10
 724 742 724 742 724 700 c 0,11,12
 724 660 724 660 754 628 c 0,13,14
 782 598 782 598 825 598 c 0,0,1
498 -25 m 0,15,16
 356 -25 356 -25 280 20 c 0,17,18
 195 70 195 70 195 172 c 0,19,20
 195 307 195 307 357 421 c 1,21,22
 302 524 302 524 220 717 c 1,23,-1
 294 748 l 1,24,25
 347 602 347 602 420 463 c 1,26,27
 473 496 473 496 572 549 c 0,28,29
 621 575 621 575 640 586 c 0,30,31
 675 607 675 607 695 622 c 1,32,33
 673 656 673 656 673 700 c 0,34,35
 673 764 673 764 718 808 c 128,-1,36
 763 852 763 852 825 852 c 0,37,38
 889 852 889 852 933.5 808 c 128,-1,39
 978 764 978 764 978 700 c 0,40,41
 978 638 978 638 934 592 c 0,42,43
 888 546 888 546 825 548 c 0,44,45
 774 548 774 548 735 578 c 1,46,-1
 744 561 l 1,47,48
 717 545 717 545 673 522 c 0,49,50
 657 513 657 513 617 493 c 0,51,52
 481 421 481 421 412 375 c 0,53,54
 273 282 273 282 273 181 c 0,55,56
 273 120 273 120 329 86 c 0,57,58
 386 51 386 51 495 51 c 0,59,60
 572 51 572 51 656.5 60.5 c 128,-1,61
 741 70 741 70 796 84 c 1,62,-1
 795 41 l 1,63,-1
 795 -1 l 1,64,65
 675 -25 675 -25 498 -25 c 0,15,16
EndSplineSet
Colour: ff00ff
EndChar

StartChar: uni3089_uni309A.ccmp
Encoding: 59 -1 59
Width: 1000
Flags: W
LayerCount: 2
Fore
SplineSet
801 563 m 128,-1,1
 844 563 844 563 873 592.5 c 128,-1,2
 902 622 902 622 902 665 c 0,3,4
 902 707 902 707 872.5 736.5 c 128,-1,5
 843 766 843 766 801 766 c 0,6,7
 760 766 760 766 730 736 c 128,-1,8
 700 706 700 706 700 664 c 0,9,10
 700 624 700 624 730 593 c 0,11,0
 758 563 758 563 801 563 c 128,-1,1
801 512 m 0,12,13
 739 512 739 512 694 557 c 0,14,15
 671 580 671 580 660 607 c 1,16,17
 574 621 574 621 472 641 c 0,18,19
 358 665 358 665 296 682 c 1,20,-1
 315 755 l 1,21,22
 382 734 382 734 496 711 c 0,23,24
 592 692 592 692 650 684 c 1,25,26
 656 734 656 734 694 772 c 0,27,28
 739 816 739 816 801 817 c 0,29,30
 865 817 865 817 909.5 772.5 c 128,-1,31
 954 728 954 728 954 665 c 128,-1,32
 954 602 954 602 909.5 557 c 128,-1,33
 865 512 865 512 801 512 c 0,12,13
303 -32 m 1,34,-1
 280 47 l 1,35,36
 496 21 496 21 612 75 c 0,37,38
 722 124 722 124 722 229 c 0,39,40
 722 286 722 286 675 323 c 128,-1,41
 628 360 628 360 556 360 c 0,42,43
 464 360 464 360 389 326 c 0,44,45
 315 293 315 293 265 231 c 0,46,47
 248 211 248 211 237 183 c 1,48,-1
 167 201 l 1,49,50
 181 265 181 265 196 391 c 0,51,52
 211 513 211 513 215 590 c 1,53,54
 246 586 246 586 275 576 c 0,55,56
 306 566 306 566 305 558 c 0,57,58
 304 552 304 552 297 547 c 0,59,60
 287 540 287 540 284 523 c 0,61,62
 280 495 280 495 272 432 c 0,63,64
 260 338 260 338 255 310 c 1,65,66
 385 427 385 427 561 427 c 0,67,68
 667 427 667 427 735 369 c 0,69,70
 801 312 801 312 801 227 c 0,71,72
 801 90 801 90 683 22 c 0,73,74
 554 -54 554 -54 303 -32 c 1,34,-1
EndSplineSet
Colour: ff00ff
EndChar

StartChar: uni308A_uni309A.ccmp
Encoding: 60 -1 60
Width: 1000
Flags: W
LayerCount: 2
Fore
SplineSet
795 567 m 128,-1,1
 838 567 838 567 867 596.5 c 128,-1,2
 896 626 896 626 896 669 c 0,3,4
 896 711 896 711 866.5 740.5 c 128,-1,5
 837 770 837 770 795 770 c 0,6,7
 754 770 754 770 724 740 c 128,-1,8
 694 710 694 710 694 668 c 0,9,10
 694 628 694 628 724 597 c 0,11,0
 752 567 752 567 795 567 c 128,-1,1
348 -46 m 1,12,-1
 304 23 l 1,13,14
 475 49 475 49 562 123 c 0,15,16
 667 212 667 212 667 380 c 0,17,18
 667 498 667 498 630 568 c 0,19,20
 590 641 590 641 518 641 c 0,21,22
 462 641 462 641 406 591 c 0,23,24
 356 546 356 546 320 475 c 0,25,26
 286 405 286 405 280 341 c 0,27,28
 273 291 273 291 282 223 c 1,29,-1
 210 217 l 1,30,31
 199 298 199 298 199 370 c 0,32,33
 199 474 199 474 228 680 c 0,34,35
 232 708 232 708 236 759 c 0,36,37
 236 761 236 761 236 762 c 1,38,-1
 277 760 l 1,39,-1
 319 759 l 1,40,41
 305 710 305 710 291 625 c 0,42,43
 279 550 279 550 274 493 c 1,44,45
 308 577 308 577 372 638 c 0,46,47
 448 710 448 710 530 710 c 0,48,49
 595 710 595 710 643 668 c 1,50,51
 643 668 643 668 643 669 c 0,52,53
 643 732 643 732 688 776.5 c 128,-1,54
 733 821 733 821 795 821 c 0,55,56
 859 821 859 821 903.5 776.5 c 128,-1,57
 948 732 948 732 948 669 c 128,-1,58
 948 606 948 606 903.5 561 c 128,-1,59
 859 516 859 516 795 516 c 0,60,61
 756 516 756 516 724 534 c 1,62,63
 744 468 744 468 744 381 c 0,64,65
 744 192 744 192 633 84 c 0,66,67
 535 -12 535 -12 348 -46 c 1,12,-1
EndSplineSet
Colour: ff00ff
EndChar

StartChar: uni308B_uni309A.ccmp
Encoding: 61 -1 61
Width: 1000
Flags: W
LayerCount: 2
Fore
SplineSet
761 555 m 128,-1,1
 804 555 804 555 833 584.5 c 128,-1,2
 862 614 862 614 862 657 c 0,3,4
 862 699 862 699 832.5 728.5 c 128,-1,5
 803 758 803 758 761 758 c 0,6,7
 720 758 720 758 690 728 c 128,-1,8
 660 698 660 698 660 656 c 0,9,10
 660 616 660 616 690 585 c 0,11,0
 718 555 718 555 761 555 c 128,-1,1
761 504 m 0,12,13
 699 504 699 504 654 549 c 0,14,15
 630 573 630 573 619 602 c 1,16,17
 573 563 573 563 480 484 c 0,18,19
 427 439 427 439 406 421 c 1,20,21
 463 441 463 441 537 441 c 0,22,23
 654 441 654 441 729.5 377 c 128,-1,24
 805 313 805 313 805 215 c 0,25,26
 805 98 805 98 717.5 29.5 c 128,-1,27
 630 -39 630 -39 481 -39 c 0,28,29
 386 -39 386 -39 330 -1 c 0,30,31
 275 36 275 36 275 97 c 0,32,33
 275 148 275 148 315 184 c 0,34,35
 357 222 357 222 420 222 c 0,36,37
 504 222 504 222 556 171 c 0,38,39
 603 125 603 125 612 52 c 1,40,41
 729 99 729 99 729 216 c 0,42,43
 729 287 729 287 669.5 334 c 128,-1,44
 610 381 610 381 519 381 c 0,45,46
 409 381 409 381 325 332 c 0,47,48
 261 294 261 294 159 189 c 1,49,-1
 105 246 l 1,50,51
 130 267 130 267 358 461 c 0,52,53
 526 604 526 604 576 649 c 1,54,55
 550 648 550 648 425 642 c 0,56,57
 313 637 313 637 289 636 c 0,58,59
 255 634 255 634 227 630 c 1,60,-1
 224 710 l 1,61,62
 252 706 252 706 290 706 c 0,63,64
 332 706 332 706 451 710 c 0,65,66
 578 715 578 715 613 718 c 0,67,68
 617 718 617 718 622 719 c 0,69,70
 633 744 633 744 654 764 c 0,71,72
 699 808 699 808 761 809 c 0,73,74
 825 809 825 809 869.5 764.5 c 128,-1,75
 914 720 914 720 914 657 c 128,-1,76
 914 594 914 594 869.5 549 c 128,-1,77
 825 504 825 504 761 504 c 0,12,13
469 28 m 0,78,79
 511 28 511 28 545 34 c 1,80,81
 539 93 539 93 507 128 c 0,82,83
 473 164 473 164 419 164 c 0,84,85
 388 164 388 164 366 146 c 128,-1,86
 344 128 344 128 344 103 c 0,87,88
 344 69 344 69 379 48 c 0,89,90
 413 28 413 28 469 28 c 0,78,79
EndSplineSet
Colour: ff00ff
EndChar

StartChar: uni308C_uni309A.ccmp
Encoding: 62 -1 62
Width: 1000
Flags: W
LayerCount: 2
Fore
SplineSet
789 555 m 0,0,1
 832 555 832 555 861 584.5 c 128,-1,2
 890 614 890 614 890 657 c 0,3,4
 890 699 890 699 860.5 728.5 c 128,-1,5
 831 758 831 758 789 758 c 0,6,7
 748 758 748 758 718 728 c 128,-1,8
 688 698 688 698 688 656 c 0,9,10
 688 621 688 621 712 592 c 0,11,12
 714 590 714 590 715 589 c 0,13,14
 718 585 718 585 721 581 c 0,15,16
 749 555 749 555 789 555 c 0,0,1
245 -34 m 1,17,18
 248 -8 248 -8 248 22 c 0,19,20
 248 49 248 49 249 94 c 0,21,22
 250 194 250 194 251 268 c 2,23,-1
 252 305 l 1,24,25
 187 207 187 207 99 79 c 1,26,-1
 51 145 l 1,27,28
 95 201 95 201 157 288 c 0,29,30
 226 385 226 385 259 437 c 1,31,-1
 266 532 l 1,32,-1
 174 519 l 1,33,-1
 82 506 l 1,34,-1
 74 585 l 1,35,36
 93 584 93 584 130 586 c 0,37,38
 133 586 133 586 135 586 c 0,39,40
 210 591 210 591 271 602 c 1,41,-1
 275 693 l 2,42,43
 275 740 275 740 272 764 c 1,44,-1
 360 761 l 1,45,46
 352 722 352 722 341 616 c 1,47,-1
 347 618 l 1,48,-1
 374 585 l 1,49,50
 351 550 351 550 332 518 c 1,51,-1
 327 462 l 1,52,53
 395 526 395 526 464 569 c 0,54,55
 553 624 553 624 617 624 c 0,56,57
 629 624 629 624 641 623 c 1,58,59
 637 639 637 639 637 657 c 0,60,61
 637 720 637 720 682 764.5 c 128,-1,62
 727 809 727 809 789 809 c 0,63,64
 853 809 853 809 897.5 764.5 c 128,-1,65
 942 720 942 720 942 657 c 128,-1,66
 942 594 942 594 897.5 549 c 128,-1,67
 853 504 853 504 789 504 c 0,68,69
 767 504 767 504 746 510 c 1,70,71
 747 503 747 503 747 495 c 0,72,73
 747 447 747 447 730 317 c 0,74,75
 713 185 713 185 713 136 c 0,76,77
 713 111 713 111 725 95 c 0,78,79
 738 78 738 78 761 78 c 0,80,81
 829 78 829 78 903 158 c 1,82,-1
 916 75 l 1,83,84
 838 -5 838 -5 743 -5 c 0,85,86
 695 -5 695 -5 667 26 c 0,87,88
 638 58 638 58 638 116 c 0,89,90
 638 171 638 171 657 306 c 0,91,92
 674 429 674 429 674 474 c 0,93,94
 674 553 674 553 598 553 c 0,95,96
 545 553 545 553 464 496 c 0,97,98
 393 447 393 447 321 369 c 0,99,100
 321 366 321 366 321 360 c 0,101,102
 319 287 319 287 319 255 c 0,103,104
 319 240 319 240 319 212 c 0,105,106
 319 95 319 95 322 24 c 0,107,108
 324 -7 324 -7 327 -34 c 1,109,-1
 286 -34 l 1,110,-1
 245 -34 l 1,17,18
EndSplineSet
Colour: ff00ff
EndChar

StartChar: uni308D_uni309A.ccmp
Encoding: 63 -1 63
Width: 1000
Flags: W
LayerCount: 2
Fore
SplineSet
753 549 m 128,-1,1
 796 549 796 549 825 578.5 c 128,-1,2
 854 608 854 608 854 651 c 0,3,4
 854 693 854 693 824.5 722.5 c 128,-1,5
 795 752 795 752 753 752 c 0,6,7
 712 752 712 752 682 722 c 128,-1,8
 652 692 652 692 652 650 c 0,9,10
 652 610 652 610 682 579 c 0,11,0
 710 549 710 549 753 549 c 128,-1,1
753 498 m 0,12,13
 691 498 691 498 646 543 c 0,14,15
 624 565 624 565 613 591 c 1,16,17
 545 533 545 533 423 431 c 0,18,19
 409 420 409 420 403 415 c 1,20,21
 473 441 473 441 538 441 c 0,22,23
 655 441 655 441 728 380 c 128,-1,24
 801 319 801 319 801 221 c 0,25,26
 801 83 801 83 673 14 c 0,27,28
 543 -55 543 -55 312 -36 c 1,29,-1
 291 41 l 1,30,31
 487 17 487 17 604.5 66.5 c 128,-1,32
 722 116 722 116 722 222 c 0,33,34
 722 291 722 291 668 334 c 128,-1,35
 614 377 614 377 525 377 c 0,36,37
 415 377 415 377 325 321 c 0,38,39
 268 285 268 285 159 178 c 1,40,-1
 130 207 l 1,41,-1
 102 237 l 1,42,43
 201 316 201 316 356 450 c 0,44,45
 508 581 508 581 567 642 c 1,46,47
 543 641 543 641 453 637 c 0,48,49
 315 631 315 631 287 629 c 0,50,51
 257 628 257 628 220 622 c 1,52,-1
 218 703 l 1,53,54
 244 700 244 700 284 700 c 0,55,56
 327 700 327 700 442 703 c 0,57,58
 566 706 566 706 607 709 c 0,59,60
 610 709 610 709 612 709 c 0,61,62
 623 736 623 736 646 758 c 0,63,64
 691 802 691 802 753 803 c 0,65,66
 817 803 817 803 861.5 758.5 c 128,-1,67
 906 714 906 714 906 651 c 128,-1,68
 906 588 906 588 861.5 543 c 128,-1,69
 817 498 817 498 753 498 c 0,12,13
EndSplineSet
Colour: ff00ff
EndChar

StartChar: uni30E9_uni309A.ccmp
Encoding: 64 -1 64
Width: 1000
Flags: W
LayerCount: 2
Fore
SplineSet
339 -37 m 1,0,-1
 310 -4 l 1,1,-1
 281 31 l 1,2,3
 490 75 490 75 612 206 c 0,4,5
 693 294 693 294 724 419 c 1,6,7
 601 419 601 419 478 419 c 0,8,9
 352 419 352 419 225 419 c 0,10,11
 183 419 183 419 133 416 c 1,12,-1
 133 496 l 1,13,14
 190 491 190 491 225 491 c 0,15,16
 473 491 473 491 720 491 c 0,17,18
 757 491 757 491 772 498 c 1,19,20
 831 459 831 459 830 455 c 0,21,22
 829 453 829 453 825 453 c 0,23,24
 820 453 820 453 818 449 c 0,25,26
 817 448 817 448 816 445 c 0,27,28
 814 439 814 439 813 436 c 0,29,30
 769 268 769 268 676 163 c 0,31,32
 548 20 548 20 339 -37 c 1,0,-1
815 529 m 0,33,34
 753 529 753 529 708 574 c 0,35,36
 679 603 679 603 669 640 c 1,37,-1
 486 640 l 2,38,39
 394 640 394 640 302 640 c 0,40,41
 269 640 269 640 217 638 c 1,42,-1
 217 717 l 1,43,44
 248 712 248 712 302 712 c 0,45,46
 394 712 394 712 485 712 c 2,47,-1
 666 712 l 1,48,49
 674 756 674 756 708 790 c 0,50,51
 753 834 753 834 815 834 c 0,52,53
 879 834 879 834 923.5 789.5 c 128,-1,54
 968 745 968 745 968 682 c 128,-1,55
 968 619 968 619 923.5 574 c 128,-1,56
 879 529 879 529 815 529 c 0,33,34
815 580 m 128,-1,58
 858 580 858 580 887 609.5 c 128,-1,59
 916 639 916 639 916 682 c 0,60,61
 916 724 916 724 886.5 753.5 c 128,-1,62
 857 783 857 783 815 783 c 0,63,64
 774 783 774 783 744 753 c 0,65,66
 714 724 714 724 714 682 c 0,67,68
 714 642 714 642 744 610 c 0,69,57
 772 580 772 580 815 580 c 128,-1,58
EndSplineSet
Colour: ff00ff
EndChar

StartChar: uni30EA_uni309A.ccmp
Encoding: 65 -1 65
Width: 1000
Flags: W
LayerCount: 2
Fore
SplineSet
815 594 m 128,-1,1
 858 594 858 594 887 623.5 c 128,-1,2
 916 653 916 653 916 696 c 0,3,4
 916 738 916 738 886.5 767.5 c 128,-1,5
 857 797 857 797 815 797 c 0,6,7
 774 797 774 797 744 767 c 0,8,9
 714 738 714 738 714 696 c 0,10,11
 714 656 714 656 744 624 c 0,12,0
 772 594 772 594 815 594 c 128,-1,1
207 260 m 1,13,14
 212 298 212 298 212 334 c 0,15,16
 212 494 212 494 212 654 c 0,17,18
 212 687 212 687 208 723 c 1,19,-1
 293 723 l 1,20,21
 290 696 290 696 290 654 c 0,22,23
 290 576 290 576 290 498 c 0,24,25
 290 416 290 416 290 333 c 0,26,27
 290 287 290 287 293 260 c 1,28,-1
 250 260 l 1,29,-1
 207 260 l 1,13,14
404 -37 m 1,30,-1
 373 -4 l 1,31,-1
 343 29 l 1,32,33
 492 67 492 67 568 157 c 0,34,35
 616 214 616 214 632 288 c 0,36,37
 646 353 646 353 646 495 c 0,38,39
 646 571 646 571 646 647 c 0,40,41
 646 691 646 691 641 731 c 1,42,-1
 667 731 l 1,43,44
 676 772 676 772 708 804 c 0,45,46
 753 848 753 848 815 848 c 0,47,48
 879 848 879 848 923.5 803.5 c 128,-1,49
 968 759 968 759 968 696 c 128,-1,50
 968 633 968 633 923.5 588 c 128,-1,51
 879 543 879 543 815 543 c 0,52,53
 766 543 766 543 727 572 c 1,54,-1
 727 492 l 2,55,56
 727 327 727 327 703 242 c 0,57,58
 684 173 684 173 628 103 c 0,59,60
 558 16 558 16 404 -37 c 1,30,-1
EndSplineSet
Colour: ff00ff
EndChar

StartChar: uni30EB_uni309A.ccmp
Encoding: 66 -1 66
Width: 1000
Flags: W
LayerCount: 2
Fore
SplineSet
133 -21 m 1,0,-1
 97 3 l 1,1,-1
 62 27 l 1,2,3
 179 113 179 113 226 263 c 0,4,5
 254 353 254 353 254 649 c 0,6,7
 254 684 254 684 247 719 c 1,8,-1
 290 719 l 1,9,-1
 334 719 l 1,10,11
 334 717 334 717 333 710 c 0,12,13
 329 673 329 673 329 650 c 0,14,15
 329 353 329 353 300 242 c 0,16,17
 257 82 257 82 133 -21 c 1,0,-1
542 -20 m 1,18,-1
 493 22 l 1,19,20
 498 49 498 49 498 76 c 0,21,22
 498 217 498 217 498 357 c 0,23,24
 498 504 498 504 498 651 c 0,25,26
 498 675 498 675 495 709 c 0,27,28
 494 719 494 719 494 722 c 1,29,-1
 537 722 l 1,30,-1
 580 722 l 1,31,32
 576 690 576 690 576 651 c 0,33,34
 576 374 576 374 576 97 c 1,35,36
 646 129 646 129 719 190 c 0,37,38
 799 256 799 256 851 333 c 1,39,-1
 895 268 l 1,40,41
 837 188 837 188 745 114 c 0,42,43
 661 46 661 46 574 2 c 0,44,45
 553 -11 553 -11 542 -20 c 1,18,-1
803 501 m 4,46,47
 741 501 741 501 696 546 c 132,-1,48
 651 591 651 591 651 654 c 132,-1,49
 651 717 651 717 696 761.5 c 132,-1,50
 741 806 741 806 803 806 c 4,51,52
 867 806 867 806 911.5 761.5 c 132,-1,53
 956 717 956 717 956 654 c 132,-1,54
 956 591 956 591 911.5 546 c 132,-1,55
 867 501 867 501 803 501 c 4,46,47
803 552 m 260,56,57
 846 552 846 552 875 581.5 c 132,-1,58
 904 611 904 611 904 654 c 4,59,60
 904 696 904 696 874.5 725.5 c 132,-1,61
 845 755 845 755 803 755 c 4,62,63
 762 755 762 755 732 725 c 4,64,65
 702 696 702 696 702 654 c 4,66,67
 702 614 702 614 732 582 c 4,68,69
 760 552 760 552 803 552 c 260,56,57
EndSplineSet
Colour: ff00ff
EndChar

StartChar: uni30EC_uni309A.ccmp
Encoding: 67 -1 67
Width: 1000
Flags: W
LayerCount: 2
Fore
SplineSet
263 -15 m 1,0,-1
 209 33 l 1,1,2
 218 56 218 56 218 80 c 0,3,4
 218 355 218 355 218 629 c 0,5,6
 218 665 218 665 210 716 c 1,7,-1
 256 716 l 1,8,-1
 303 716 l 1,9,10
 296 674 296 674 296 629 c 0,11,12
 296 357 296 357 296 85 c 1,13,14
 437 121 437 121 577 208 c 0,15,16
 726 300 726 300 810 412 c 1,17,-1
 853 345 l 1,18,19
 761 229 761 229 620 141 c 0,20,21
 479 55 479 55 303 2 c 0,22,23
 282 -4 282 -4 263 -15 c 1,0,-1
701 489 m 4,24,25
 639 489 639 489 594 534 c 132,-1,26
 549 579 549 579 549 642 c 132,-1,27
 549 705 549 705 594 749.5 c 132,-1,28
 639 794 639 794 701 794 c 4,29,30
 765 794 765 794 809.5 749.5 c 132,-1,31
 854 705 854 705 854 642 c 132,-1,32
 854 579 854 579 809.5 534 c 132,-1,33
 765 489 765 489 701 489 c 4,24,25
701 540 m 260,34,35
 744 540 744 540 773 569.5 c 132,-1,36
 802 599 802 599 802 642 c 4,37,38
 802 684 802 684 772.5 713.5 c 132,-1,39
 743 743 743 743 701 743 c 4,40,41
 660 743 660 743 630 713 c 4,42,43
 600 684 600 684 600 642 c 4,44,45
 600 602 600 602 630 570 c 4,46,47
 658 540 658 540 701 540 c 260,34,35
EndSplineSet
Colour: ff00ff
EndChar

StartChar: uni30ED_uni309A.ccmp
Encoding: 68 -1 68
Width: 1000
Flags: W
LayerCount: 2
Fore
SplineSet
781 566 m 128,-1,1
 824 566 824 566 853 595.5 c 128,-1,2
 882 625 882 625 882 668 c 0,3,4
 882 710 882 710 852.5 739.5 c 128,-1,5
 823 769 823 769 781 769 c 0,6,7
 740 769 740 769 710 739 c 0,8,9
 680 710 680 710 680 668 c 0,10,11
 680 628 680 628 710 596 c 0,12,0
 738 566 738 566 781 566 c 128,-1,1
215 126 m 1,13,-1
 472 126 l 1,14,-1
 729 126 l 1,15,-1
 729 524 l 1,16,17
 699 535 699 535 674 560 c 0,18,19
 663 571 663 571 655 582 c 1,20,-1
 472 582 l 1,21,-1
 215 582 l 1,22,-1
 215 126 l 1,13,-1
136 -5 m 1,23,24
 139 34 139 34 139 112 c 0,25,26
 139 349 139 349 139 585 c 0,27,28
 139 637 139 637 137 660 c 1,29,30
 147 660 147 660 166 659 c 0,31,32
 205 658 205 658 221 658 c 2,33,-1
 629 658 l 1,34,35
 629 663 629 663 629 668 c 0,36,37
 629 731 629 731 674 775.5 c 128,-1,38
 719 820 719 820 781 820 c 0,39,40
 845 820 845 820 889.5 775.5 c 128,-1,41
 934 731 934 731 934 668 c 128,-1,42
 934 605 934 605 890 560 c 0,43,44
 855 524 855 524 807 517 c 1,45,-1
 807 111 l 2,46,47
 807 6 807 6 808 -5 c 1,48,-1
 728 -5 l 1,49,-1
 729 51 l 1,50,-1
 600 51 l 1,51,-1
 472 51 l 1,52,-1
 215 51 l 1,53,-1
 217 -5 l 1,54,-1
 136 -5 l 1,23,24
EndSplineSet
Colour: ff00ff
EndChar

StartChar: uni308F_uni3099.ccmp
Encoding: 69 -1 69
Width: 1000
Flags: W
LayerCount: 2
Fore
SplineSet
245 -34 m 1,0,1
 248 -15 248 -15 248 22 c 0,2,3
 248 49 248 49 249 94 c 0,4,5
 250 194 250 194 251 268 c 2,6,-1
 252 305 l 1,7,8
 187 207 187 207 99 79 c 1,9,-1
 52 145 l 1,10,11
 95 200 95 200 157 288 c 0,12,13
 226 385 226 385 259 438 c 1,14,-1
 266 531 l 1,15,-1
 174 518 l 1,16,-1
 82 505 l 1,17,-1
 74 585 l 1,18,19
 93 584 93 584 130 586 c 0,20,21
 133 586 133 586 135 586 c 0,22,23
 198 590 198 590 271 602 c 1,24,-1
 275 693 l 2,25,26
 275 740 275 740 272 764 c 1,27,-1
 360 761 l 1,28,29
 352 722 352 722 341 616 c 1,30,-1
 346 618 l 1,31,-1
 374 585 l 1,32,33
 351 550 351 550 332 518 c 1,34,-1
 327 455 l 1,35,36
 472 576 472 576 627 576 c 0,37,38
 728 576 728 576 798 510 c 0,39,40
 872 441 872 441 873 333 c 0,41,42
 874 66 874 66 531 -1 c 1,43,-1
 496 71 l 1,44,45
 629 90 629 90 707 150 c 0,46,47
 798 220 798 220 797 335 c 0,48,49
 797 399 797 399 753 448 c 0,50,51
 702 506 702 506 616 506 c 0,52,53
 466 506 466 506 321 369 c 0,54,55
 321 366 321 366 321 360 c 0,56,57
 319 287 319 287 319 255 c 0,58,59
 319 240 319 240 319 212 c 0,60,61
 319 95 319 95 322 24 c 0,62,63
 324 -7 324 -7 327 -34 c 1,64,-1
 286 -34 l 1,65,-1
 245 -34 l 1,0,1
758 604 m 5,66,67
 745 635 745 635 723 674 c 132,-1,68
 701 713 701 713 682 740 c 5,69,-1
 729 761 l 5,70,71
 775 696 775 696 807 627 c 5,72,-1
 758 604 l 5,66,67
861 645 m 5,73,74
 847 673 847 673 824 713 c 4,75,76
 803 751 803 751 782 777 c 5,77,-1
 828 799 l 5,78,79
 865 750 865 750 909 669 c 5,80,-1
 861 645 l 5,73,74
EndSplineSet
Colour: ff00ff
EndChar

StartChar: uni3090_uni3099.ccmp
Encoding: 70 -1 70
Width: 1000
Flags: W
LayerCount: 2
Fore
SplineSet
735 567 m 1,0,1
 708 621 708 621 693 647 c 0,2,3
 669 691 669 691 646 722 c 1,4,-1
 700 745 l 1,5,6
 714 726 714 726 745 674 c 0,7,8
 774 625 774 625 790 593 c 1,9,-1
 735 567 l 1,0,1
860 618 m 1,10,11
 835 666 835 666 817 696 c 0,12,13
 794 735 794 735 768 769 c 1,14,-1
 821 794 l 1,15,16
 831 782 831 782 856 743 c 0,17,18
 865 730 865 730 869 724 c 0,19,20
 900 673 900 673 914 645 c 1,21,-1
 860 618 l 1,10,11
561 -37 m 0,22,23
 488 -37 488 -37 444 -3.5 c 128,-1,24
 400 30 400 30 400 88 c 0,25,26
 400 141 400 141 439 175.5 c 128,-1,27
 478 210 478 210 534 210 c 0,28,29
 599 210 599 210 644 173 c 0,30,31
 684 140 684 140 703 85 c 1,32,33
 763 144 763 144 763 248 c 0,34,35
 763 346 763 346 703 409 c 0,36,37
 640 475 640 475 533 475 c 0,38,39
 506 475 506 475 476 470 c 1,40,41
 443 367 443 367 423 310 c 0,42,43
 359 124 359 124 292 50 c 0,44,45
 254 4 254 4 186 4 c 0,46,47
 144 4 144 4 116 35 c 0,48,49
 85 69 85 69 85 128 c 0,50,51
 85 258 85 258 182 372 c 0,52,53
 280 488 280 488 424 525 c 1,54,55
 447 603 447 603 461 662 c 1,56,57
 330 657 330 657 200 643 c 1,58,-1
 196 721 l 1,59,60
 236 717 236 717 257 718 c 0,61,62
 354 718 354 718 452 725 c 0,63,64
 484 730 484 730 506 737 c 1,65,66
 563 694 563 694 560 687 c 0,67,68
 559 684 559 684 554 684 c 0,69,70
 545 684 545 684 542 678 c 0,71,72
 534 660 534 660 530 650 c 2,73,-1
 513 593 l 1,74,-1
 496 538 l 1,75,-1
 535 540 l 1,76,77
 672 540 672 540 755 456 c 0,78,79
 836 374 836 374 836 247 c 0,80,81
 836 126 836 126 771 50 c 0,82,83
 698 -37 698 -37 561 -37 c 0,22,23
556 27 m 0,84,85
 604 27 604 27 648 45 c 1,86,87
 634 98 634 98 606 125 c 0,88,89
 579 154 579 154 535 154 c 0,90,91
 504 154 504 154 483 137.5 c 128,-1,92
 462 121 462 121 462 94 c 0,93,94
 462 64 462 64 489 45 c 0,95,96
 517 27 517 27 556 27 c 0,84,85
194 86 m 0,97,98
 226 86 226 86 250 111 c 0,99,100
 300 170 300 170 368 353 c 1,101,-1
 384 402 l 1,102,-1
 400 451 l 1,103,104
 292 410 292 410 217 313 c 0,105,106
 150 224 150 224 150 145 c 0,107,108
 150 117 150 117 164 101 c 0,109,110
 176 86 176 86 194 86 c 0,97,98
EndSplineSet
Colour: ff00ff
EndChar

StartChar: uni3091_uni3099.ccmp
Encoding: 71 -1 71
Width: 1000
Flags: W
LayerCount: 2
Fore
SplineSet
799 -45 m 1,0,1
 740 118 740 118 638 118 c 0,2,3
 596 118 596 118 558.5 86 c 128,-1,4
 521 54 521 54 503 4 c 0,5,6
 496 -14 496 -14 494 -36 c 1,7,-1
 420 -36 l 1,8,9
 419 -31 419 -31 418 -22 c 0,10,11
 416 -3 416 -3 414 5 c 0,12,13
 382 107 382 107 300 107 c 0,14,15
 255 107 255 107 206 61 c 0,16,17
 172 29 172 29 120 -43 c 1,18,-1
 55 -4 l 1,19,20
 116 64 116 64 194 137 c 0,21,22
 274 213 274 213 335 261 c 1,23,24
 278 292 278 292 278 347 c 0,25,26
 278 391 278 391 322 420 c 0,27,28
 363 446 363 446 418 446 c 0,29,30
 477 446 477 446 513 421.5 c 128,-1,31
 549 397 549 397 549 356 c 0,32,33
 549 322 549 322 519 295 c 1,34,35
 591 301 591 301 639 334 c 0,36,37
 690 368 690 368 690 417 c 0,38,39
 690 468 690 468 640 500 c 0,40,41
 592 531 592 531 521 531 c 0,42,43
 424 531 424 531 352 498 c 0,44,45
 280 467 280 467 163 373 c 1,46,-1
 117 428 l 1,47,48
 191 480 191 480 312 554 c 0,49,50
 401 609 401 609 515 676 c 1,51,52
 505 675 505 675 457 674 c 0,53,54
 275 667 275 667 231 662 c 1,55,-1
 229 730 l 1,56,-1
 230 730 l 2,57,58
 273 727 273 727 292 727 c 0,59,60
 410 727 410 727 571 734 c 0,61,62
 613 737 613 737 634 745 c 1,63,-1
 676 690 l 1,64,65
 644 680 644 680 570 641 c 0,66,67
 504 606 504 606 445 570 c 1,68,69
 490 581 490 581 544 581 c 0,70,71
 637 580 637 580 698 537 c 0,72,73
 762 492 762 492 762 419 c 0,74,75
 762 329 762 329 678 278 c 0,76,77
 601 231 601 231 483 231 c 0,78,79
 442 231 442 231 410 237 c 1,80,81
 359 200 359 200 309 158 c 1,82,83
 361 165 361 165 401 138 c 0,84,85
 439 113 439 113 461 60 c 1,86,87
 490 114 490 114 539 147 c 0,88,89
 589 182 589 182 644 182 c 0,90,91
 719 182 719 182 780 126 c 0,92,93
 836 76 836 76 874 -14 c 1,94,-1
 837 -30 l 1,95,-1
 799 -45 l 1,0,1
427 296 m 1,96,97
 483 322 483 322 483 356 c 0,98,99
 483 376 483 376 463 388 c 0,100,101
 443 399 443 399 413 399 c 0,102,103
 384 399 384 399 363 388 c 0,104,105
 338 374 338 374 338 352 c 128,-1,106
 338 330 338 330 358 317 c 0,107,108
 379 302 379 302 427 296 c 1,96,97
770 609 m 5,109,110
 757 640 757 640 735 679 c 132,-1,111
 713 718 713 718 694 745 c 5,112,-1
 741 766 l 5,113,114
 787 701 787 701 819 632 c 5,115,-1
 770 609 l 5,109,110
873 650 m 5,116,117
 859 678 859 678 836 718 c 4,118,119
 815 756 815 756 794 782 c 5,120,-1
 840 804 l 5,121,122
 877 755 877 755 921 674 c 5,123,-1
 873 650 l 5,116,117
EndSplineSet
Colour: ff00ff
EndChar

StartChar: uni3092_uni3099.ccmp
Encoding: 72 -1 72
Width: 1000
Flags: W
LayerCount: 2
Fore
SplineSet
507 -41 m 0,0,1
 394 -41 394 -41 335 -11 c 0,2,3
 264 24 264 24 264 106 c 0,4,5
 264 182 264 182 334 248 c 0,6,7
 382 293 382 293 486 349 c 1,8,9
 473 408 473 408 400 408 c 0,10,11
 357 408 357 408 313 388 c 0,12,13
 272 369 272 369 239 338 c 0,14,15
 217 317 217 317 171 260 c 0,16,17
 159 246 159 246 153 238 c 1,18,-1
 89 286 l 1,19,20
 241 436 241 436 306 580 c 1,21,-1
 265 580 l 2,22,23
 189 580 189 580 111 586 c 1,24,-1
 111 658 l 1,25,26
 190 647 190 647 270 647 c 2,27,-1
 332 648 l 1,28,29
 352 710 352 710 355 768 c 1,30,31
 386 765 386 765 414 757 c 0,32,33
 444 748 444 748 443 741 c 0,34,35
 442 736 442 736 435 732 c 0,36,37
 425 726 425 726 422 712 c 0,38,39
 418 692 418 692 405 650 c 1,40,41
 550 657 550 657 648 672 c 1,42,43
 648 672 648 672 648 602 c 1,44,45
 544 588 544 588 379 582 c 1,46,47
 343 499 343 499 294 433 c 1,48,49
 320 450 320 450 358 460 c 0,50,51
 393 469 393 469 425 469 c 0,52,53
 472 469 472 469 505 447 c 0,54,55
 540 423 540 423 550 382 c 1,56,57
 590 401 590 401 660 432 c 0,58,59
 702 451 702 451 721 460 c 0,60,61
 762 477 762 477 798 497 c 1,62,-1
 829 425 l 1,63,64
 809 420 809 420 759 401 c 0,65,66
 750 397 750 397 744 394 c 0,67,68
 625 347 625 347 555 312 c 1,69,-1
 555 266 l 1,70,-1
 556 220 l 1,71,-1
 557 128 l 1,72,-1
 485 128 l 1,73,74
 488 184 488 184 488 278 c 1,75,76
 416 239 416 239 381 203 c 0,77,78
 339 161 339 161 339 116 c 0,79,80
 339 64 339 64 388 45 c 0,81,82
 425 30 425 30 509 30 c 0,83,84
 639 30 639 30 766 53 c 1,85,-1
 764 -24 l 1,86,87
 643 -41 643 -41 507 -41 c 0,0,1
752 588 m 1,88,89
 739 619 739 619 717 658 c 128,-1,90
 695 697 695 697 676 724 c 1,91,-1
 723 745 l 1,92,93
 769 680 769 680 801 611 c 1,94,-1
 752 588 l 1,88,89
855 629 m 1,95,96
 841 657 841 657 818 697 c 0,97,98
 797 735 797 735 776 761 c 1,99,-1
 822 783 l 1,100,101
 859 734 859 734 903 653 c 1,102,-1
 855 629 l 1,95,96
EndSplineSet
Colour: ff00ff
EndChar

StartChar: uni3063_uni309A.ccmp
Encoding: 73 -1 73
Width: 1000
Flags: W
LayerCount: 2
Fore
SplineSet
377 -64 m 1,0,-1
 347 10 l 1,1,2
 516 16 516 16 614 65 c 0,3,4
 729 123 729 123 729 233 c 0,5,6
 729 294 729 294 686 334 c 0,7,8
 641 375 641 375 570 375 c 0,9,10
 466 375 466 375 212 272 c 0,11,12
 194 265 194 265 187 262 c 1,13,-1
 171 302 l 1,14,-1
 155 341 l 1,15,16
 200 350 200 350 244 365 c 0,17,18
 254 368 254 368 281 377 c 0,19,20
 482 444 482 444 576 444 c 0,21,22
 677 444 677 444 740 387 c 0,23,24
 805 328 805 328 805 231 c 0,25,26
 805 97 805 97 686 20 c 0,27,28
 574 -52 574 -52 377 -64 c 1,0,-1
769 426 m 4,29,30
 707 426 707 426 662 471 c 132,-1,31
 617 516 617 516 617 579 c 132,-1,32
 617 642 617 642 662 686.5 c 132,-1,33
 707 731 707 731 769 731 c 4,34,35
 833 731 833 731 877.5 686.5 c 132,-1,36
 922 642 922 642 922 579 c 132,-1,37
 922 516 922 516 877.5 471 c 132,-1,38
 833 426 833 426 769 426 c 4,29,30
769 477 m 260,39,40
 812 477 812 477 841 506.5 c 132,-1,41
 870 536 870 536 870 579 c 4,42,43
 870 621 870 621 840.5 650.5 c 132,-1,44
 811 680 811 680 769 680 c 4,45,46
 728 680 728 680 698 650 c 132,-1,47
 668 620 668 620 668 578 c 4,48,49
 668 538 668 538 698 507 c 4,50,51
 726 477 726 477 769 477 c 260,39,40
EndSplineSet
Colour: ff00ff
EndChar

StartChar: uni30E7_uni3099.ccmp
Encoding: 74 -1 74
Width: 1000
Flags: W
LayerCount: 2
Fore
SplineSet
767 439 m 5,0,1
 754 470 754 470 732 509 c 132,-1,2
 710 548 710 548 691 575 c 5,3,-1
 738 596 l 5,4,5
 784 531 784 531 816 462 c 5,6,-1
 767 439 l 5,0,1
870 480 m 5,7,8
 856 508 856 508 833 548 c 4,9,10
 812 586 812 586 791 612 c 5,11,-1
 837 634 l 5,12,13
 874 585 874 585 918 504 c 5,14,-1
 870 480 l 5,7,8
658 -96 m 1,15,-1
 659 -57 l 1,16,-1
 470 -57 l 1,17,-1
 281 -57 l 2,18,19
 263 -57 263 -57 229 -58 c 0,20,21
 209 -59 209 -59 203 -59 c 1,22,-1
 203 18 l 1,23,24
 233 14 233 14 280 14 c 2,25,-1
 469 14 l 1,26,-1
 659 14 l 1,27,-1
 659 185 l 1,28,-1
 320 185 l 2,29,30
 273 185 273 185 235 183 c 1,31,-1
 236 257 l 1,32,-1
 238 257 l 2,33,34
 289 254 289 254 319 254 c 2,35,-1
 659 254 l 1,36,-1
 659 413 l 1,37,38
 485 413 485 413 311 413 c 0,39,40
 266 413 266 413 215 410 c 1,41,-1
 215 485 l 1,42,43
 249 481 249 481 311 481 c 0,44,45
 493 481 493 481 674 481 c 0,46,47
 706 481 706 481 732 483 c 1,48,49
 731 473 731 473 731 434 c 0,50,51
 731 195 731 195 731 -44 c 0,52,53
 731 -68 731 -68 733 -96 c 1,54,-1
 658 -96 l 1,15,-1
EndSplineSet
Colour: ff00ff
EndChar

StartChar: uni30FC_uni3099.ccmp
Encoding: 75 -1 75
Width: 1000
Flags: W
LayerCount: 2
Fore
SplineSet
125 453 m 1,0,-1
 172 534 l 1,1,2
 215 505 215 505 283 465 c 2,3,-1
 351 425 l 1,4,-1
 771 425 l 2,5,6
 821 425 821 425 873 430 c 1,7,-1
 873 336 l 1,8,9
 869 336 869 336 860 337 c 0,10,11
 806 340 806 340 772 340 c 2,12,-1
 514 340 l 1,13,-1
 366 340 l 2,14,15
 329 340 329 340 310 351 c 2,16,17
 310 353 310 353 240 391 c 2,18,19
 177 427 177 427 125 453 c 1,0,-1
723 503 m 1,20,21
 696 557 696 557 681 583 c 0,22,23
 657 627 657 627 634 658 c 1,24,-1
 688 681 l 1,25,26
 702 662 702 662 733 610 c 0,27,28
 762 561 762 561 778 529 c 1,29,-1
 723 503 l 1,20,21
848 554 m 1,30,31
 823 602 823 602 805 632 c 0,32,33
 782 671 782 671 756 705 c 1,34,-1
 809 730 l 1,35,36
 818 717 818 717 844 679 c 0,37,38
 853 666 853 666 857 660 c 0,39,40
 888 609 888 609 902 581 c 1,41,-1
 848 554 l 1,30,31
EndSplineSet
Colour: ff00ff
EndChar

StartChar: uni3046_uni309A.ccmp
Encoding: 76 -1 76
Width: 1000
Flags: W
LayerCount: 2
Fore
SplineSet
814 514 m 128,-1,1
 857 514 857 514 886 543.5 c 128,-1,2
 915 573 915 573 915 616 c 0,3,4
 915 658 915 658 885.5 687.5 c 128,-1,5
 856 717 856 717 814 717 c 0,6,7
 773 717 773 717 743 687 c 0,8,9
 713 658 713 658 713 616 c 0,10,11
 713 576 713 576 743 544 c 0,12,0
 771 514 771 514 814 514 c 128,-1,1
814 463 m 0,13,14
 752 463 752 463 707 508 c 128,-1,15
 662 553 662 553 662 616 c 0,16,17
 662 634 662 634 666 650 c 1,18,19
 572 656 572 656 474 668 c 0,20,21
 358 679 358 679 273 695 c 1,22,-1
 285 768 l 1,23,24
 359 751 359 751 489 737 c 0,25,26
 605 725 605 725 684 723 c 1,27,-1
 678 685 l 1,28,29
 689 706 689 706 707 724 c 0,30,31
 752 768 752 768 814 768 c 0,32,33
 878 768 878 768 922.5 723.5 c 128,-1,34
 967 679 967 679 967 616 c 128,-1,35
 967 553 967 553 922.5 508 c 128,-1,36
 878 463 878 463 814 463 c 0,13,14
334 -30 m 1,37,-1
 290 42 l 1,38,39
 471 66 471 66 571 136 c 0,40,41
 680 212 680 212 680 335 c 0,42,43
 680 396 680 396 635.5 435 c 128,-1,44
 591 474 591 474 519 474 c 0,45,46
 424 474 424 474 286 432 c 0,47,48
 270 427 270 427 263 425 c 0,49,50
 220 412 220 412 183 396 c 1,51,-1
 171 440 l 1,52,-1
 160 484 l 1,53,54
 194 488 194 488 245 499 c 0,55,56
 255 501 255 501 276 507 c 0,57,58
 433 546 433 546 526 546 c 0,59,60
 630 546 630 546 693 491 c 0,61,62
 759 433 759 433 759 332 c 0,63,64
 759 183 759 183 638 87 c 0,65,66
 526 -2 526 -2 334 -30 c 1,37,-1
EndSplineSet
Colour: ff00ff
EndChar

StartChar: uni30A6_uni309A.ccmp
Encoding: 77 -1 77
Width: 1000
Flags: W
LayerCount: 2
Fore
SplineSet
802 626 m 128,-1,1
 845 626 845 626 874 655.5 c 128,-1,2
 903 685 903 685 903 728 c 0,3,4
 903 770 903 770 873.5 799.5 c 128,-1,5
 844 829 844 829 802 829 c 0,6,7
 761 829 761 829 731 799 c 0,8,9
 701 770 701 770 701 728 c 0,10,11
 701 688 701 688 731 656 c 0,12,0
 759 626 759 626 802 626 c 128,-1,1
361 -32 m 1,13,-1
 300 39 l 1,14,15
 357 50 357 50 397 66 c 0,16,17
 471 90 471 90 538 141 c 0,18,19
 609 194 609 194 651 260 c 0,20,21
 687 316 687 316 712 399 c 0,22,23
 733 469 733 469 741 539 c 1,24,-1
 609 539 l 1,25,-1
 478 539 l 1,26,-1
 216 539 l 1,27,28
 216 453 216 453 216 367 c 0,29,30
 216 332 216 332 219 311 c 1,31,-1
 137 311 l 1,32,33
 141 343 141 343 141 372 c 0,34,35
 141 456 141 456 141 540 c 0,36,37
 141 586 141 586 137 614 c 1,38,39
 173 610 173 610 225 610 c 2,40,-1
 433 610 l 1,41,-1
 433 699 l 2,42,43
 433 735 433 735 428 771 c 1,44,-1
 518 771 l 1,45,46
 512 728 512 728 512 699 c 2,47,-1
 512 610 l 1,48,-1
 706 610 l 1,49,50
 700 615 700 615 695 620 c 0,51,52
 650 665 650 665 650 728 c 128,-1,53
 650 791 650 791 695 835.5 c 128,-1,54
 740 880 740 880 802 880 c 0,55,56
 866 880 866 880 910.5 835.5 c 128,-1,57
 955 791 955 791 955 728 c 0,58,59
 954 665 954 665 910 620 c 0,60,61
 880 589 880 589 841 580 c 1,62,63
 847 575 847 575 847 573 c 0,64,65
 846 570 846 570 841 569 c 0,66,67
 833 567 833 567 831.5 559.5 c 128,-1,68
 830 552 830 552 826 538 c 0,69,70
 825 531 825 531 824 528 c 0,71,72
 796 350 796 350 732 240 c 0,73,74
 679 144 679 144 585 74 c 0,75,76
 489 3 489 3 361 -32 c 1,13,-1
EndSplineSet
Colour: ff00ff
EndChar

StartChar: uni535C
Encoding: 78 21340 78
Width: 1000
Flags: W
LayerCount: 2
Fore
SplineSet
414 -84 m 128,-1,1
 371 -84 371 -84 365 -79 c 1,2,3
 373 12 373 12 373 150 c 2,4,-1
 373 379 l 1,5,-1
 373 609 l 2,6,7
 373 661 373 661 372 708 c 1,8,9
 369 708 369 708 365 708 c 0,10,11
 337 708 337 708 317.5 727.5 c 128,-1,12
 298 747 298 747 298 775 c 128,-1,13
 298 803 298 803 317.5 822.5 c 128,-1,14
 337 842 337 842 365 842 c 0,15,16
 399 844 399 844 433 841 c 0,17,18
 475 837 475 837 475 828 c 1,19,20
 455 796 455 796 455 764 c 2,21,-1
 455 496 l 1,22,-1
 478 530 l 1,23,24
 587 482 587 482 700 424 c 0,25,26
 826 360 826 360 892 316 c 1,27,-1
 845 243 l 1,28,29
 716 331 716 331 455 459 c 1,30,-1
 455 190 l 1,31,-1
 455 55 l 2,32,33
 455 -30 455 -30 461 -79 c 1,34,0
 457 -84 457 -84 414 -84 c 128,-1,1
EndSplineSet
EndChar

StartChar: u1B150
Encoding: 79 110928 79
Width: 1000
Flags: W
LayerCount: 2
Fore
SplineSet
594 -54 m 0,0,1
 533 -54 533 -54 496 -26 c 0,2,3
 458 3 458 3 458 54 c 0,4,5
 458 100 458 100 491 130.5 c 128,-1,6
 524 161 524 161 573 161 c 0,7,8
 624 161 624 161 659 135 c 0,9,10
 692 111 692 111 708 70 c 1,11,12
 743 116 743 116 743 186 c 0,13,14
 743 263 743 263 696 311 c 0,15,16
 646 362 646 362 564 362 c 0,17,18
 544 362 544 362 524 359 c 1,19,20
 499 281 499 281 485 241 c 0,21,22
 462 172 462 172 434 112 c 0,23,24
 402 48 402 48 374 16 c 0,25,26
 340 -23 340 -23 281 -23 c 0,27,28
 244 -23 244 -23 220 4 c 0,29,30
 192 34 192 34 192 84 c 0,31,32
 192 192 192 192 272 287 c 0,33,34
 353 384 353 384 471 415 c 1,35,36
 491 481 491 481 498 515 c 1,37,38
 435 513 435 513 290 500 c 1,39,-1
 286 578 l 1,40,41
 310 575 310 575 339 575 c 0,42,43
 403 573 403 573 498 580 c 0,44,45
 527 583 527 583 546 590 c 1,46,47
 601 548 601 548 597 542 c 0,48,49
 595 540 595 540 591 538 c 0,50,51
 584 538 584 538 581 532 c 0,52,53
 576 521 576 521 570 504 c 2,54,-1
 545 426 l 1,55,-1
 564 427 l 1,56,57
 679 427 679 427 749 358 c 0,58,59
 817 291 817 291 818 185 c 0,60,61
 818 84 818 84 764 18 c 0,62,63
 704 -54 704 -54 594 -54 c 0,0,1
587 13 m 0,64,65
 625 13 625 13 654 26 c 1,66,67
 644 65 644 65 624 85 c 0,68,69
 604 105 604 105 573 105 c 0,70,71
 551 105 551 105 535.5 92.5 c 128,-1,72
 520 80 520 80 520 60 c 128,-1,73
 520 40 520 40 539 26 c 0,74,75
 558 13 558 13 587 13 c 0,64,65
290 62 m 0,76,77
 314 62 314 62 332 84 c 0,78,79
 355 112 355 112 385 178 c 0,80,81
 413 240 413 240 429 287 c 2,82,-1
 446 338 l 1,83,84
 364 304 364 304 309 228 c 0,85,86
 260 164 260 164 260 104 c 0,87,88
 260 84 260 84 269 73 c 256,89,90
 279 62 279 62 290 62 c 0,76,77
EndSplineSet
Colour: ffff00
EndChar

StartChar: u1B151
Encoding: 80 110929 80
Width: 1000
Flags: W
LayerCount: 2
Fore
SplineSet
771 -60 m 1,0,1
 729 67 729 67 649 67 c 0,2,3
 618 67 618 67 591 43 c 128,-1,4
 564 19 564 19 549 -19 c 0,5,6
 542 -34 542 -34 542 -52 c 1,7,-1
 464 -52 l 1,8,9
 462 -32 462 -32 458 -17 c 0,10,11
 436 60 436 60 374 60 c 0,12,13
 339 60 339 60 301 23 c 0,14,15
 274 -3 274 -3 237 -59 c 1,16,-1
 170 -20 l 1,17,18
 291 112 291 112 392 194 c 1,19,20
 353 219 353 219 352 264 c 0,21,22
 352 301 352 301 389 326 c 0,23,24
 423 349 423 349 471 349 c 0,25,26
 522 349 522 349 552 328 c 128,-1,27
 582 307 582 307 582 273 c 0,28,29
 582 252 582 252 566 230 c 1,30,31
 618 238 618 238 650 262 c 0,32,33
 683 287 683 287 683 322 c 0,34,35
 683 360 683 360 644 386 c 0,36,37
 607 410 607 410 551 410 c 0,38,39
 470 410 470 410 414 383 c 0,40,41
 355 356 355 356 263 279 c 1,42,-1
 216 336 l 1,43,44
 267 370 267 370 369 433 c 0,45,46
 464 492 464 492 528 528 c 1,47,48
 385 524 385 524 315 518 c 1,49,-1
 312 583 l 1,50,51
 349 581 349 581 370 581 c 0,52,53
 395 581 395 581 476 583 c 0,54,55
 570 585 570 585 595 587 c 0,56,57
 624 589 624 589 648 597 c 1,58,-1
 689 542 l 1,59,60
 627 523 627 523 507 453 c 1,61,62
 544 460 544 460 577 460 c 0,63,64
 656 458 656 458 707.5 420.5 c 128,-1,65
 759 383 759 383 759 323 c 0,66,67
 759 246 759 246 688 203 c 0,68,69
 624 164 624 164 524 164 c 0,70,71
 495 164 495 164 467 168 c 1,72,-1
 431 141 l 1,73,-1
 396 113 l 1,74,75
 469 120 469 120 507 40 c 1,76,77
 533 82 533 82 572 106 c 0,78,79
 613 131 613 131 656 132 c 0,80,81
 719 132 719 132 771 86 c 0,82,83
 817 44 817 44 848 -29 c 1,84,-1
 771 -60 l 1,0,1
480 229 m 1,85,86
 517 249 517 249 517 272 c 0,87,88
 517 287 517 287 502.5 295.5 c 128,-1,89
 488 304 488 304 466 304 c 0,90,91
 445 304 445 304 431 296 c 0,92,93
 413 286 413 286 413 269 c 0,94,95
 413 254 413 254 428 244 c 128,-1,96
 443 234 443 234 480 229 c 1,85,86
EndSplineSet
Colour: ffff00
EndChar

StartChar: u1B152
Encoding: 81 110930 81
Width: 1000
Flags: W
LayerCount: 2
Fore
SplineSet
542 -57 m 0,0,1
 339 -57 339 -57 339 68 c 0,2,3
 339 133 339 133 397 189 c 0,4,5
 439 229 439 229 520 271 c 1,6,7
 506 310 506 310 457 310 c 0,8,9
 424 310 424 310 388 294 c 0,10,11
 355 279 355 279 330 254 c 0,12,13
 306 230 306 230 260 170 c 1,14,-1
 194 221 l 1,15,16
 262 286 262 286 303 342 c 0,17,18
 340 393 340 393 367 449 c 1,19,-1
 345 449 l 2,20,21
 282 449 282 449 217 454 c 1,22,-1
 217 527 l 1,23,24
 275 519 275 519 349 519 c 2,25,-1
 394 519 l 1,26,27
 409 566 409 566 412 613 c 1,28,29
 443 611 443 611 472 603 c 0,30,31
 501 596 501 596 501 591 c 0,32,33
 500 587 500 587 494 583 c 0,34,35
 486 579 486 579 484 569 c 0,36,37
 477 541 477 541 471 521 c 1,38,39
 597 527 597 527 696 544 c 1,40,-1
 696 472 l 1,41,42
 580 456 580 456 444 451 c 1,43,44
 420 396 420 396 385 348 c 1,45,46
 403 359 403 359 432 366 c 0,47,48
 459 372 459 372 483 371 c 0,49,50
 520 371 520 371 547.5 354 c 128,-1,51
 575 337 575 337 586 305 c 1,52,53
 604 313 604 313 635 327 c 0,54,55
 686 351 686 351 709 362 c 0,56,57
 742 377 742 377 781 396 c 1,58,-1
 813 324 l 1,59,60
 774 312 774 312 735 295 c 0,61,62
 656 263 656 263 592 234 c 1,63,-1
 593 161 l 1,64,-1
 595 89 l 1,65,-1
 521 89 l 1,66,67
 523 113 523 113 524 187 c 0,68,69
 524 195 524 195 524 199 c 1,70,71
 471 170 471 170 446 144 c 0,72,73
 417 114 417 114 418 80 c 0,74,75
 418 43 418 43 452 28 c 0,76,77
 481 16 481 16 545 16 c 0,78,79
 645 16 645 16 758 36 c 1,80,-1
 755 -43 l 1,81,82
 637 -57 637 -57 542 -57 c 0,0,1
EndSplineSet
Colour: ffff00
EndChar

StartChar: u1B164
Encoding: 82 110948 82
Width: 1000
Flags: W
LayerCount: 2
Fore
SplineSet
593 -49 m 1,0,1
 596 -8 596 -8 596 23 c 2,2,-1
 596 113 l 1,3,-1
 431 113 l 1,4,-1
 267 113 l 2,5,6
 234 113 234 113 196 111 c 1,7,-1
 196 193 l 1,8,9
 220 189 220 189 267 189 c 2,10,-1
 352 189 l 1,11,-1
 352 400 l 1,12,-1
 295 400 l 2,13,14
 257 400 257 400 224 397 c 1,15,-1
 224 477 l 1,16,17
 258 472 258 472 295 472 c 2,18,-1
 445 472 l 1,19,-1
 596 472 l 1,20,-1
 596 534 l 2,21,22
 596 561 596 561 593 592 c 1,23,-1
 676 592 l 1,24,25
 674 563 674 563 674 534 c 2,26,-1
 674 472 l 1,27,-1
 750 472 l 2,28,29
 777 472 777 472 818 477 c 1,30,-1
 818 397 l 1,31,32
 797 400 797 400 750 400 c 2,33,-1
 674 400 l 1,34,-1
 674 189 l 1,35,-1
 769 189 l 2,36,37
 803 189 803 189 836 193 c 1,38,-1
 836 111 l 1,39,40
 815 113 815 113 769 113 c 2,41,-1
 674 113 l 1,42,-1
 674 25 l 2,43,44
 674 -8 674 -8 676 -49 c 1,45,-1
 593 -49 l 1,0,1
428 189 m 1,46,-1
 511 189 l 1,47,-1
 596 189 l 1,48,-1
 596 400 l 1,49,-1
 428 400 l 1,50,-1
 428 294 l 1,51,-1
 428 189 l 1,46,-1
EndSplineSet
Colour: ffff00
EndChar

StartChar: u1B165
Encoding: 83 110949 83
Width: 1000
Flags: W
LayerCount: 2
Fore
SplineSet
190 2 m 1,0,-1
 190 93 l 1,1,2
 227 88 227 88 264 88 c 2,3,-1
 459 88 l 1,4,-1
 459 318 l 2,5,6
 459 366 459 366 456 392 c 1,7,-1
 546 392 l 1,8,9
 542 347 542 347 542 318 c 2,10,-1
 542 88 l 1,11,-1
 775 88 l 2,12,13
 794 88 794 88 826 91 c 0,14,15
 837 92 837 92 842 93 c 1,16,-1
 842 2 l 1,17,18
 816 6 816 6 775 6 c 2,19,-1
 647 6 l 1,20,-1
 519 6 l 1,21,-1
 264 6 l 2,22,23
 232 6 232 6 190 2 c 1,0,-1
654 263 m 1,24,-1
 587 308 l 1,25,26
 665 367 665 367 714 450 c 1,27,28
 615 450 615 450 515 450 c 0,29,30
 416 450 416 450 318 450 c 0,31,32
 276 448 276 448 233 446 c 1,33,-1
 233 531 l 1,34,35
 274 527 274 527 313 527 c 0,36,37
 416 527 416 527 519 527 c 0,38,39
 624 527 624 527 729 527 c 0,40,41
 761 527 761 527 781 534 c 1,42,43
 801 520 801 520 818.5 505 c 128,-1,44
 836 490 836 490 835 488.5 c 128,-1,45
 834 487 834 487 830 487 c 0,46,47
 824 487 824 487 822 483 c 0,48,49
 821 482 821 482 819 480 c 0,50,51
 814 473 814 473 813 468 c 0,52,53
 789 419 789 419 745 362 c 0,54,55
 698 301 698 301 654 263 c 1,24,-1
EndSplineSet
Colour: ffff00
EndChar

StartChar: u1B166
Encoding: 84 110950 84
Width: 1000
Flags: W
LayerCount: 2
Fore
SplineSet
387 -56 m 1,0,-1
 324 13 l 1,1,2
 423 37 423 37 503.5 89.5 c 128,-1,3
 584 142 584 142 634 217 c 0,4,5
 649 241 649 241 661 269 c 1,6,-1
 501 269 l 1,7,-1
 342 269 l 2,8,9
 307 269 307 269 269 267 c 1,10,-1
 269 345 l 1,11,12
 275 345 275 345 287 344 c 0,13,14
 322 342 322 342 340 343 c 2,15,-1
 513 343 l 1,16,-1
 686 343 l 1,17,18
 705 407 705 407 712 472 c 1,19,20
 522 472 522 472 331 472 c 0,21,22
 304 472 304 472 249 468 c 1,23,-1
 249 554 l 1,24,25
 297 547 297 547 331 547 c 0,26,27
 513 547 513 547 695 547 c 0,28,29
 733 547 733 547 751 553 c 1,30,31
 817 510 817 510 816 507 c 0,32,33
 815 505 815 505 812 504 c 0,34,35
 808 503 808 503 806 500 c 0,36,37
 803 493 803 493 801 482 c 0,38,39
 764 276 764 276 710 190 c 0,40,41
 655 104 655 104 582 47 c 0,42,43
 502 -16 502 -16 387 -56 c 1,0,-1
EndSplineSet
Colour: ffff00
EndChar

StartChar: u1B167
Encoding: 85 110951 85
Width: 1000
Flags: W
LayerCount: 2
Fore
SplineSet
281 -38 m 1,0,-1
 255 2 l 1,1,-1
 229 43 l 1,2,3
 394 68 394 68 531 152 c 0,4,5
 619 207 619 207 692 291 c 0,6,7
 759 367 759 367 797 447 c 1,8,-1
 819 404 l 1,9,-1
 843 362 l 1,10,11
 800 282 800 282 733 211 c 0,12,13
 660 133 660 133 574 79 c 0,14,15
 432 -10 432 -10 281 -38 c 1,0,-1
444 340 m 1,16,17
 412 373 412 373 355 424 c 0,18,19
 293 478 293 478 252 505 c 1,20,-1
 308 566 l 1,21,22
 344 542 344 542 410 488 c 0,23,24
 478 432 478 432 505 403 c 1,25,-1
 474 371 l 1,26,-1
 444 340 l 1,16,17
EndSplineSet
Colour: ffff00
EndChar

StartChar: u1B132
Encoding: 86 110898 86
Width: 1000
Flags: W
LayerCount: 2
Fore
SplineSet
509 -43 m 0,0,1
 388 -43 388 -43 321 -2 c 0,2,3
 256 39 256 39 256 115 c 0,4,5
 256 153 256 153 269 217 c 0,6,7
 270 223 270 223 271 226 c 1,8,9
 303 223 303 223 330 216 c 0,10,11
 359 208 359 208 358 201 c 0,12,13
 357 196 357 196 352 193 c 0,14,15
 342 188 342 188 339 176 c 0,16,17
 335 153 335 153 335 134 c 0,18,19
 335 91 335 91 377 67 c 0,20,21
 422 40 422 40 507 40 c 0,22,23
 584 40 584 40 655 49 c 0,24,25
 722 56 722 56 771 71 c 1,26,-1
 772 -15 l 1,27,28
 670 -43 670 -43 509 -43 c 0,0,1
510 451 m 0,29,30
 417 451 417 451 304 460 c 1,31,-1
 304 541 l 1,32,33
 389 531 389 531 509 531 c 0,34,35
 549 531 549 531 622 534 c 0,36,37
 640 535 640 535 674 538 c 0,38,39
 709 540 709 540 723 542 c 1,40,-1
 723 461 l 1,41,42
 708 460 708 460 667 457 c 0,43,44
 638 455 638 455 624 454 c 0,45,46
 547 451 547 451 510 451 c 0,29,30
EndSplineSet
Colour: ffff00
EndChar

StartChar: u1B155
Encoding: 87 110933 87
Width: 1000
Flags: W
LayerCount: 2
Fore
SplineSet
701 -28 m 1,0,-1
 702 14 l 1,1,-1
 339 14 l 2,2,3
 280 14 280 14 247 11 c 1,4,-1
 247 99 l 1,5,6
 302 95 302 95 336 95 c 2,7,-1
 703 95 l 1,8,-1
 703 444 l 1,9,-1
 345 444 l 2,10,11
 287 444 287 444 256 441 c 1,12,-1
 256 528 l 1,13,14
 310 523 310 523 345 523 c 2,15,-1
 535 523 l 1,16,-1
 726 523 l 2,17,18
 760 523 760 523 788 525 c 1,19,20
 786 491 786 491 786 459 c 2,21,-1
 786 256 l 1,22,-1
 786 54 l 2,23,24
 786 23 786 23 789 -28 c 1,25,-1
 701 -28 l 1,0,-1
EndSplineSet
Colour: ffff00
EndChar

StartChar: u1B11F
Encoding: 88 110879 88
Width: 1000
Flags: W
LayerCount: 2
Fore
SplineSet
430 635 m 1,0,-1
 430 702 l 1,1,2
 538 694 538 694 663 699 c 0,3,4
 777 703 777 703 865 716 c 1,5,-1
 865 649 l 1,6,7
 786 640 786 640 711 636 c 1,8,-1
 711 633 l 1,9,-1
 712 478 l 1,10,11
 798 483 798 483 886 494 c 1,12,-1
 886 424 l 1,13,14
 803 413 803 413 712 409 c 1,15,16
 711 305 711 305 705 254 c 0,17,18
 693 157 693 157 653 90 c 0,19,20
 607 14 607 14 513 -43 c 1,21,-1
 445 12 l 1,22,23
 500 36 500 36 536 72 c 0,24,25
 605 134 605 134 627 228 c 0,26,27
 640 285 640 285 642 406 c 1,28,29
 534 404 534 404 416 410 c 1,30,-1
 416 480 l 1,31,32
 527 472 527 472 642 475 c 1,33,34
 642 561 642 561 638 633 c 1,35,36
 529 629 529 629 430 635 c 1,0,-1
174 -22 m 1,37,38
 138 102 138 102 138 282 c 0,39,40
 138 369 138 369 155 505 c 0,41,42
 164 577 164 577 180 681 c 0,43,44
 186 725 186 725 186 749 c 1,45,-1
 227 746 l 1,46,-1
 270 742 l 1,47,48
 263 724 263 724 253 678 c 0,49,50
 237 603 237 603 223 494 c 0,51,52
 208 370 208 370 208 295 c 0,53,54
 208 223 208 223 216 160 c 1,55,56
 236 219 236 219 271 304 c 1,57,58
 289 289 289 289 302 274 c 0,59,60
 318 254 318 254 315 246 c 0,61,62
 313 239 313 239 305 235 c 0,63,64
 293 227 293 227 287 209 c 0,65,66
 251 104 251 104 242 60 c 0,67,68
 238 34 238 34 238 17 c 0,69,70
 239 11 239 11 240 -3 c 0,71,72
 241 -13 241 -13 241 -17 c 2,73,-1
 174 -22 l 1,37,38
EndSplineSet
Colour: ffff00
EndChar

StartChar: u1B120
Encoding: 89 110880 89
Width: 1000
Flags: W
LayerCount: 2
Fore
SplineSet
607 220 m 0,0,1
 756 312 756 312 840 424 c 1,2,-1
 883 357 l 1,3,4
 791 241 791 241 650 153 c 0,5,6
 454 34 454 34 148 -16 c 1,7,-1
 126 23 l 1,8,-1
 105 62 l 1,9,10
 241 70 241 70 365 109 c 1,11,-1
 365 461 l 1,12,-1
 365 663 l 2,13,14
 365 737 365 737 359 766 c 1,15,-1
 405 766 l 1,16,-1
 451 766 l 1,17,-1
 445 663 l 1,18,-1
 445 138 l 1,19,20
 529 171 529 171 607 220 c 0,0,1
EndSplineSet
Colour: ffff00
EndChar

StartChar: u1B121
Encoding: 90 110881 90
Width: 1000
Flags: W
LayerCount: 2
Fore
SplineSet
109 52 m 1,0,-1
 109 140 l 1,1,2
 151 134 151 134 192 134 c 2,3,-1
 457 134 l 1,4,-1
 457 491.573242188 l 1,5,6
 329.643554688 421.809570312 329.643554688 421.809570312 180 376 c 1,7,-1
 145 447 l 1,8,9
 231 467 231 467 332 512 c 0,10,11
 418 551 418 551 483 592 c 0,12,13
 548 632 548 632 610 687 c 0,14,15
 669 739 669 739 707 787 c 1,16,17
 731 763 731 763 749 739 c 0,18,19
 768 712 768 712 763.5 707.5 c 128,-1,20
 759 703 759 703 751 703 c 0,21,22
 739 703 739 703 728 691 c 0,23,24
 640.819335938 606.14453125 640.819335938 606.14453125 537 539.173828125 c 1,25,-1
 537 134 l 1,26,-1
 813 134 l 2,27,28
 843 134 843 134 891 140 c 1,29,-1
 891 52 l 1,30,31
 866 56 866 56 813 56 c 2,32,-1
 502 56 l 1,33,-1
 192 56 l 2,34,35
 148 56 148 56 109 52 c 1,0,-1
EndSplineSet
Colour: ffff00
EndChar

StartChar: u1B122
Encoding: 91 110882 91
Width: 1000
Flags: W
LayerCount: 2
Fore
SplineSet
472 -14 m 0,0,1
 393 -14 393 -14 338 -7 c 1,2,-1
 332 69 l 1,3,4
 388 58 388 58 440 58 c 0,5,6
 477 58 477 58 477 95 c 2,7,-1
 477 406 l 1,8,-1
 342 406 l 1,9,-1
 201 406 l 2,10,11
 146 406 146 406 119 404 c 1,12,-1
 120 483 l 1,13,-1
 122 483 l 1,14,15
 173 479 173 479 201 479 c 2,16,-1
 477 479 l 1,17,-1
 477 648 l 1,18,-1
 318 648 l 2,19,20
 268 648 268 648 232 645 c 1,21,-1
 232 724 l 1,22,23
 237 724 237 724 248 723 c 0,24,25
 293 719 293 719 317 719 c 0,26,27
 413 719 413 719 508 719 c 128,-1,28
 603 719 603 719 697 719 c 0,29,30
 740 719 740 719 785 724 c 1,31,-1
 785 645 l 1,32,33
 745 648 745 648 697 648 c 2,34,-1
 553 648 l 1,35,-1
 553 479 l 1,36,-1
 817 479 l 2,37,38
 861 479 861 479 890 483 c 1,39,-1
 890 404 l 1,40,41
 848 406 848 406 817 406 c 2,42,-1
 689 406 l 1,43,-1
 553 406 l 1,44,-1
 553 62 l 2,45,46
 553 -14 553 -14 472 -14 c 0,0,1
EndSplineSet
Colour: ffff00
EndChar

StartChar: uni3057_uni309A.ccmp
Encoding: 92 -1 92
Width: 1000
Flags: W
LayerCount: 2
Fore
SplineSet
470 -42 m 0,0,1
 241 -42 241 -42 241 172 c 0,2,3
 241 224 241 224 244 358 c 0,4,5
 245 407 245 407 246 431 c 0,6,7
 251 583 251 583 251 658 c 0,8,9
 251 714 251 714 242 756 c 1,10,-1
 289 755 l 1,11,-1
 337 755 l 1,12,13
 330 702 330 702 329 658 c 0,14,15
 318 364 318 364 318 180 c 0,16,17
 318 37 318 37 472 37 c 0,18,19
 589 37 589 37 680 99 c 0,20,21
 749 147 749 147 808 236 c 1,22,-1
 862 170 l 1,23,24
 711 -42 711 -42 470 -42 c 0,0,1
676 503 m 128,-1,26
 719 503 719 503 748 532.5 c 128,-1,27
 777 562 777 562 777 605 c 0,28,29
 777 647 777 647 747.5 676.5 c 128,-1,30
 718 706 718 706 676 706 c 0,31,32
 635 706 635 706 605 676 c 128,-1,33
 575 646 575 646 575 604.5 c 128,-1,34
 575 563 575 563 605 533 c 0,35,25
 633 503 633 503 676 503 c 128,-1,26
676 452 m 0,36,37
 614 452 614 452 569 497 c 128,-1,38
 524 542 524 542 524 605 c 128,-1,39
 524 668 524 668 569 712.5 c 128,-1,40
 614 757 614 757 676 757 c 0,41,42
 740 757 740 757 784.5 712.5 c 128,-1,43
 829 668 829 668 829 605 c 128,-1,44
 829 542 829 542 784.5 497 c 128,-1,45
 740 452 740 452 676 452 c 0,36,37
EndSplineSet
Colour: ff00ff
EndChar

StartChar: NameMe.95
Encoding: 93 -1 93
Width: 1000
Flags: W
LayerCount: 2
Fore
SplineSet
454 225 m 0,0,1
 496 225 496 225 519 259 c 0,2,3
 542 295 542 295 538 360 c 1,4,5
 516 422 516 422 453 422 c 0,6,7
 416 422 416 422 387 395 c 0,8,9
 358 364 358 364 358 320 c 0,10,11
 358 277 358 277 387 250 c 0,12,13
 414 225 414 225 454 225 c 0,0,1
338 -48 m 1,14,-1
 275 15 l 1,15,16
 471 61 471 61 525 185 c 1,17,18
 490 159 490 159 443 159 c 0,19,20
 379 159 379 159 336 200 c 0,21,22
 288 245 288 245 288 319 c 0,23,24
 288 389 288 389 337 437.5 c 128,-1,25
 386 486 386 486 454 486 c 0,26,27
 485 486 485 486 517 476 c 1,28,-1
 516 572 l 1,29,30
 297 570 297 570 96 555 c 1,31,-1
 93 630 l 1,32,33
 136 631 136 631 249 634 c 0,34,35
 432 639 432 639 515 640 c 1,36,-1
 513 703 l 2,37,38
 510 739 510 739 507 764 c 1,39,-1
 549 764 l 1,40,-1
 592 764 l 1,41,42
 591 757 591 757 589 723 c 0,43,44
 587 707 587 707 587 703 c 2,45,-1
 586 641 l 1,46,-1
 601 641 l 2,47,48
 628 641 628 641 663 641 c 1,49,50
 642 676 642 676 642 719 c 0,51,52
 642 782 642 782 687 826.5 c 128,-1,53
 732 871 732 871 794 871 c 0,54,55
 858 871 858 871 902.5 826.5 c 128,-1,56
 947 782 947 782 947 719 c 128,-1,57
 947 656 947 656 902.5 611 c 128,-1,58
 858 566 858 566 794 566 c 0,59,60
 771 566 771 566 751 572 c 1,61,62
 686 573 686 573 600 573 c 2,63,-1
 586 573 l 1,64,-1
 587 494 l 1,65,-1
 588 415 l 1,66,67
 618 367 618 367 618 292 c 0,68,69
 618 180 618 180 560 98 c 0,70,71
 489 -2 489 -2 338 -48 c 1,14,-1
794 617 m 128,-1,73
 837 617 837 617 866 646.5 c 128,-1,74
 895 676 895 676 895 719 c 0,75,76
 895 761 895 761 865.5 790.5 c 128,-1,77
 836 820 836 820 794 820 c 0,78,79
 753 820 753 820 723 790 c 128,-1,80
 693 760 693 760 693 718.5 c 128,-1,81
 693 677 693 677 723 647 c 0,82,72
 751 617 751 617 794 617 c 128,-1,73
EndSplineSet
Colour: ff00ff
EndChar

StartChar: uni305D_uni309A.ccmp
Encoding: 94 -1 94
Width: 1000
Flags: W
LayerCount: 2
Fore
SplineSet
425 19 m 0,0,1
 334 74 334 74 334 184 c 0,2,3
 334 240 334 240 371 294 c 0,4,5
 401 340 401 340 443 365 c 1,6,7
 293 353 293 353 104 323 c 1,8,-1
 98 395 l 1,9,10
 125 398 125 398 187 405 c 0,11,12
 238 412 238 412 259 414 c 1,13,14
 351 478 351 478 549 654 c 0,15,16
 565 668 565 668 571 674 c 1,17,18
 555 673 555 673 484 669 c 0,19,20
 349 661 349 661 323 659 c 0,21,22
 306 658 306 658 270 654 c 0,23,24
 257 653 257 653 252 652 c 1,25,-1
 248 731 l 1,26,27
 283 728 283 728 322 728 c 0,28,29
 356 728 356 728 462 733 c 0,30,31
 573 739 573 739 612 743 c 0,32,33
 616 744 616 744 623 744 c 0,34,35
 653 749 653 749 663 752 c 1,36,37
 681 732 681 732 697 708 c 0,38,39
 697 708 697 708 698 707 c 0,40,41
 733 729 733 729 777 729 c 0,42,43
 841 729 841 729 885.5 684.5 c 128,-1,44
 930 640 930 640 930 577 c 128,-1,45
 930 514 930 514 886 469 c 0,46,47
 860 442 860 442 826 431 c 1,48,-1
 826 383 l 1,49,50
 671 390 671 390 587 378 c 0,51,52
 516 367 516 367 462 315 c 0,53,54
 406 261 406 261 406 194.5 c 128,-1,55
 406 128 406 128 455 93 c 0,56,57
 494 64 494 64 569 53 c 0,58,59
 629 46 629 46 703 51 c 1,60,-1
 688 -27 l 1,61,62
 517 -35 517 -35 425 19 c 0,0,1
777 475 m 128,-1,64
 820 475 820 475 849 504.5 c 128,-1,65
 878 534 878 534 878 577 c 0,66,67
 878 619 878 619 848.5 648.5 c 128,-1,68
 819 678 819 678 777 678 c 0,69,70
 736 678 736 678 706 648 c 128,-1,71
 676 618 676 618 676 576.5 c 128,-1,72
 676 535 676 535 706 505 c 0,73,63
 734 475 734 475 777 475 c 128,-1,64
640 644 m 1,74,75
 623 630 623 630 597 608 c 0,76,77
 435 471 435 471 379 425 c 1,78,79
 465 436 465 436 605 445 c 0,80,81
 649 448 649 448 692 451 c 1,82,83
 681 459 681 459 670 469 c 0,84,85
 625 514 625 514 625 577 c 0,86,87
 625 614 625 614 640 644 c 1,74,75
EndSplineSet
Colour: ff00ff
EndChar

StartChar: uni30B7_uni309A.ccmp
Encoding: 95 -1 95
Width: 1000
Flags: W
LayerCount: 2
Fore
SplineSet
461 543 m 1,0,1
 434 565 434 565 364 613 c 0,2,3
 302 655 302 655 259 680 c 1,4,-1
 302 745 l 1,5,6
 323 733 323 733 381 695 c 0,7,8
 400 682 400 682 409.5 676 c 128,-1,9
 419 670 419 670 437 658 c 0,10,11
 491 621 491 621 506 609 c 1,12,-1
 461 543 l 1,0,1
323 332 m 1,13,14
 276 367 276 367 225 399 c 0,15,16
 147 449 147 449 117 463 c 1,17,-1
 160 529 l 1,18,19
 200 507 200 507 268 464.5 c 128,-1,20
 336 422 336 422 366 399 c 1,21,-1
 323 332 l 1,13,14
204 -20 m 1,22,-1
 182 19 l 1,23,-1
 161 58 l 1,24,25
 336 89 336 89 476 170 c 0,26,27
 711 307 711 307 831 520 c 1,28,29
 808 513 808 513 784 513 c 0,30,31
 722 513 722 513 677 558 c 128,-1,32
 632 603 632 603 632 666 c 128,-1,33
 632 729 632 729 677 773.5 c 128,-1,34
 722 818 722 818 784 818 c 0,35,36
 848 818 848 818 893 773.5 c 128,-1,37
 938 729 938 729 938 666 c 128,-1,38
 938 603 938 603 893 558 c 0,39,40
 866 531 866 531 833 520 c 1,41,-1
 854 482 l 1,42,-1
 877 442 l 1,43,44
 815 346 815 346 721 256.5 c 128,-1,45
 627 167 627 167 515 99 c 0,46,47
 449 60 449 60 357 26 c 0,48,49
 276 -4 276 -4 204 -20 c 1,22,-1
785 564 m 128,-1,51
 828 564 828 564 857 593.5 c 128,-1,52
 886 623 886 623 886 666 c 0,53,54
 886 708 886 708 856 737.5 c 128,-1,55
 826 767 826 767 784 767 c 0,56,57
 743 767 743 767 713.5 737 c 128,-1,58
 684 707 684 707 684 665.5 c 128,-1,59
 684 624 684 624 714 594 c 0,60,50
 742 564 742 564 785 564 c 128,-1,51
EndSplineSet
Colour: ff00ff
EndChar

StartChar: uni30B9_uni309A.ccmp
Encoding: 96 -1 96
Width: 1000
Flags: W
LayerCount: 2
Fore
SplineSet
790 -29 m 1,0,1
 676 125 676 125 532 257 c 1,2,3
 359 67 359 67 165 -24 c 1,4,-1
 135 7 l 1,5,-1
 105 40 l 1,6,7
 213 82 213 82 320 164 c 0,8,9
 414 236 414 236 492 325 c 0,10,11
 541 382 541 382 586 457 c 0,12,13
 631 534 631 534 649 593 c 1,14,15
 466 593 466 593 282 593 c 0,16,17
 237 593 237 593 187 588 c 1,18,-1
 187 674 l 1,19,20
 252 669 252 669 282 669 c 0,21,22
 464 669 464 669 645 669 c 0,23,24
 660 669 660 669 672 670 c 1,25,26
 661 697 661 697 661 728 c 0,27,28
 661 791 661 791 706 835.5 c 128,-1,29
 751 880 751 880 813 880 c 0,30,31
 877 880 877 880 921.5 835.5 c 128,-1,32
 966 791 966 791 966 728 c 128,-1,33
 966 665 966 665 921.5 620 c 128,-1,34
 877 575 877 575 813 575 c 0,35,36
 772 575 772 575 739 595 c 1,37,38
 680 443 680 443 582 315 c 1,39,40
 651 255 651 255 733 168 c 0,41,42
 805 91 805 91 856 29 c 1,43,-1
 823 0 l 1,44,-1
 790 -29 l 1,0,1
813 626 m 128,-1,46
 856 626 856 626 885 655.5 c 128,-1,47
 914 685 914 685 914 728 c 0,48,49
 914 770 914 770 884.5 799.5 c 128,-1,50
 855 829 855 829 813 829 c 0,51,52
 772 829 772 829 742 799 c 128,-1,53
 712 769 712 769 712 727.5 c 128,-1,54
 712 686 712 686 742 656 c 0,55,45
 770 626 770 626 813 626 c 128,-1,46
EndSplineSet
Colour: ff00ff
EndChar

StartChar: uni30BD_uni309A.ccmp
Encoding: 97 -1 97
Width: 1000
Flags: W
LayerCount: 2
Fore
SplineSet
289 366 m 1,0,1
 263 424 263 424 209 517 c 0,2,3
 162 602 162 602 132 644 c 1,4,-1
 205 682 l 1,5,6
 257 606 257 606 364 410 c 1,7,-1
 326 387 l 1,8,-1
 289 366 l 1,0,1
334 -34 m 1,9,-1
 299 -4 l 1,10,-1
 264 27 l 1,11,12
 624 184 624 184 702 573 c 0,13,14
 706 589 706 589 708 604 c 1,15,16
 698 611 698 611 690 620 c 0,17,18
 645 665 645 665 644.5 728 c 128,-1,19
 644 791 644 791 689 835.5 c 128,-1,20
 734 880 734 880 796 880 c 0,21,22
 860 880 860 880 905 835.5 c 128,-1,23
 950 791 950 791 950 728 c 128,-1,24
 950 665 950 665 905 620 c 128,-1,25
 860 575 860 575 796 575 c 0,26,27
 792 575 792 575 788 575 c 1,28,29
 786 569 786 569 785 562 c 0,30,31
 742 378 742 378 660 250 c 0,32,33
 544 71 544 71 334 -34 c 1,9,-1
738 644 m 2,34,-1
 759 640 l 1,35,-1
 805 631 l 1,36,37
 804 629 804 629 803 626 c 1,38,39
 842 628 842 628 868 656 c 0,40,41
 898 686 898 686 898 728 c 0,42,43
 898 770 898 770 868 799.5 c 128,-1,44
 838 829 838 829 796 829 c 0,45,46
 755 829 755 829 725.5 799 c 128,-1,47
 696 769 696 769 696 727.5 c 128,-1,48
 696 686 696 686 726 656 c 0,49,50
 732 649 732 649 738 644 c 2,34,-1
EndSplineSet
Colour: ff00ff
EndChar

StartChar: uni3057.salt
Encoding: 98 -1 98
Width: 1000
Flags: W
LayerCount: 2
Fore
SplineSet
443 564 m 1,0,1
 407 592 407 592 346 632 c 0,2,3
 275 681 275 681 241 700 c 1,4,-1
 283 764 l 1,5,6
 314 748 314 748 391 696 c 0,7,8
 451 656 451 656 487 629 c 1,9,-1
 443 564 l 1,0,1
481 -35 m 0,10,11
 241 -35 241 -35 253 179 c 0,12,13
 255 216 255 216 255 284 c 0,14,15
 255 293 255 293 256 311 c 0,16,17
 257 366 257 366 258 421 c 0,18,19
 258 480 258 480 251 519 c 1,20,-1
 298 518 l 1,21,-1
 346 518 l 1,22,23
 339 470 339 470 337 421 c 0,24,25
 331 290 331 290 330.5 167 c 128,-1,26
 330 44 330 44 484 44 c 0,27,28
 601 44 601 44 692 106 c 0,29,30
 759 152 759 152 821 242 c 1,31,-1
 874 177 l 1,32,33
 723 -35 723 -35 481 -35 c 0,10,11
EndSplineSet
Colour: ffff00
EndChar

StartChar: uni3058.salt
Encoding: 99 -1 99
Width: 1000
Flags: W
LayerCount: 2
Fore
SplineSet
443 564 m 1,0,1
 407 592 407 592 346 632 c 0,2,3
 275 681 275 681 241 700 c 1,4,-1
 283 764 l 1,5,6
 314 748 314 748 391 696 c 0,7,8
 451 656 451 656 487 629 c 1,9,-1
 443 564 l 1,0,1
481 -35 m 0,10,11
 241 -35 241 -35 253 179 c 0,12,13
 255 216 255 216 255 284 c 0,14,15
 255 293 255 293 256 311 c 0,16,17
 257 366 257 366 258 421 c 0,18,19
 258 480 258 480 251 519 c 1,20,-1
 298 518 l 1,21,-1
 346 518 l 1,22,23
 339 470 339 470 337 421 c 0,24,25
 331 290 331 290 330.5 167 c 128,-1,26
 330 44 330 44 484 44 c 0,27,28
 601 44 601 44 692 106 c 0,29,30
 759 152 759 152 821 242 c 1,31,-1
 874 177 l 1,32,33
 723 -35 723 -35 481 -35 c 0,10,11
633 498 m 1,34,35
 606 552 606 552 591 578 c 0,36,37
 567 622 567 622 544 653 c 1,38,-1
 598 676 l 1,39,40
 612 657 612 657 643 605 c 0,41,42
 672 556 672 556 688 524 c 1,43,-1
 633 498 l 1,34,35
758 549 m 1,44,45
 733 597 733 597 715 627 c 0,46,47
 692 666 692 666 666 700 c 1,48,-1
 719 725 l 1,49,50
 729 713 729 713 754 674 c 0,51,52
 763 661 763 661 767 655 c 0,53,54
 798 604 798 604 812 576 c 1,55,-1
 758 549 l 1,44,45
EndSplineSet
Colour: ffff00
EndChar

StartChar: uni305D.salt
Encoding: 100 -1 100
Width: 1000
Flags: W
LayerCount: 2
Fore
SplineSet
384 592 m 1,0,1
 339 637 339 637 319 654 c 0,2,3
 290 679 290 679 260 704 c 1,4,-1
 306 756 l 1,5,6
 341 731 341 731 368 705 c 0,7,8
 413 666 413 666 432 644 c 1,9,-1
 384 592 l 1,0,1
453 19 m 0,10,11
 362 72 362 72 362 183 c 0,12,13
 362 240 362 240 399 294 c 0,14,15
 429 339 429 339 471 364 c 1,16,17
 302 351 302 351 132 322 c 1,18,-1
 126 394 l 1,19,20
 141 396 141 396 173 400 c 0,21,22
 255 409 255 409 289 413 c 1,23,24
 451 528 451 528 599 673 c 0,25,26
 682 755 682 755 682 762 c 1,27,28
 700 741 700 741 720.5 712 c 128,-1,29
 741 683 741 683 737.5 681 c 128,-1,30
 734 679 734 679 729 681 c 0,31,32
 721 685 721 685 714 680 c 0,33,34
 701 672 701 672 688 661 c 0,35,36
 669 645 669 645 620 603 c 0,37,38
 462 469 462 469 407 425 c 1,39,40
 484 430 484 430 626 444 c 0,41,42
 631 445 631 445 633 445 c 0,43,44
 758 453 758 453 854 453 c 1,45,-1
 854 382 l 1,46,47
 693 389 693 389 616 378 c 0,48,49
 545 367 545 367 491 315 c 0,50,51
 435 260 435 260 435 194 c 0,52,53
 435 72 435 72 597 53 c 0,54,55
 656 46 656 46 732 50 c 1,56,-1
 716 -27 l 1,57,58
 547 -36 547 -36 453 19 c 0,10,11
EndSplineSet
Colour: ffff00
EndChar

StartChar: uni305E.salt
Encoding: 101 -1 101
Width: 1000
Flags: W
LayerCount: 2
Fore
SplineSet
376 570 m 1,0,1
 331 615 331 615 311 632 c 0,2,3
 282 657 282 657 252 682 c 1,4,-1
 298 734 l 1,5,6
 333 709 333 709 360 683 c 0,7,8
 405 644 405 644 424 622 c 1,9,-1
 376 570 l 1,0,1
445 -3 m 0,10,11
 354 50 354 50 354 161 c 0,12,13
 354 218 354 218 391 272 c 0,14,15
 421 317 421 317 463 342 c 1,16,17
 294 329 294 329 124 300 c 1,18,-1
 118 372 l 1,19,20
 133 374 133 374 165 378 c 0,21,22
 247 387 247 387 281 391 c 1,23,24
 429 497 429 497 571 636 c 0,25,26
 651 715 651 715 651 739 c 1,27,28
 669 718 669 718 693 684 c 128,-1,29
 717 650 717 650 713.5 648 c 128,-1,30
 710 646 710 646 705 648 c 0,31,32
 697 652 697 652 690 647 c 0,33,34
 671 635 671 635 664 628 c 0,35,36
 608 578 608 578 579 556 c 0,37,38
 539 525 539 525 399 403 c 1,39,40
 583 415 583 415 618 422 c 0,41,42
 623 423 623 423 625 423 c 0,43,44
 750 431 750 431 846 431 c 1,45,-1
 846 360 l 1,46,47
 685 367 685 367 608 356 c 0,48,49
 537 345 537 345 483 293 c 0,50,51
 427 238 427 238 427 172 c 0,52,53
 427 50 427 50 589 31 c 0,54,55
 648 24 648 24 724 28 c 1,56,-1
 708 -49 l 1,57,58
 539 -58 539 -58 445 -3 c 0,10,11
781 642 m 1,59,60
 766 674 766 674 749 706 c 0,61,62
 731 738 731 738 710 766 c 1,63,-1
 758 787 l 1,64,65
 763 780 763 780 794 731 c 0,66,67
 813 701 813 701 829 665 c 1,68,-1
 781 642 l 1,59,60
883 682 m 1,69,70
 868 714 868 714 850 745 c 0,71,72
 827 782 827 782 810 804 c 1,73,-1
 857 826 l 1,74,75
 872 808 872 808 895 770 c 0,76,77
 916 736 916 736 931 706 c 1,78,-1
 883 682 l 1,69,70
EndSplineSet
Colour: ffff00
EndChar

StartChar: uni30CD.hist
Encoding: 102 -1 102
Width: 1000
Flags: W
LayerCount: 2
Fore
SplineSet
879 354 m 128,-1,1
 879 320 879 320 875 311 c 1,2,3
 805 318 805 318 703 318 c 2,4,-1
 538 318 l 1,5,-1
 538 72 l 2,6,7
 538 30 538 30 524.5 16 c 128,-1,8
 511 2 511 2 493 -3 c 0,9,10
 460 -15 460 -15 356 -16 c 0,11,12
 343 -16 343 -16 325 -15 c 1,13,14
 318 17 318 17 295 59 c 1,15,16
 345 57 345 57 381 57 c 128,-1,17
 417 57 417 57 436 57 c 2,18,-1
 439 57 l 2,19,20
 442 57 442 57 444 57 c 128,-1,21
 446 57 446 57 452 58 c 0,22,23
 465 59 465 59 465 73 c 2,24,-1
 465 318 l 1,25,-1
 300 318 l 2,26,27
 221 318 221 318 127 311 c 1,28,29
 122 320 122 320 122.5 354 c 128,-1,30
 123 388 123 388 127 397 c 1,31,32
 199 390 199 390 300 390 c 2,33,-1
 465 390 l 1,34,-1
 465 525 l 1,35,-1
 470 525 l 1,36,-1
 507 525 l 1,37,38
 591 573 591 573 665 633 c 1,39,-1
 331 633 l 2,40,41
 273 633 273 633 212 628 c 1,42,43
 207 636 207 636 207.5 670 c 128,-1,44
 208 704 208 704 213 712 c 1,45,46
 273 706 273 706 347 705 c 2,47,-1
 742 705 l 1,48,-1
 756 709 l 1,49,-1
 758 709 l 1,50,-1
 811 669 l 1,51,52
 755 612 755 612 681.5 558 c 128,-1,53
 608 504 608 504 538 465 c 1,54,-1
 538 390 l 1,55,-1
 703 390 l 2,56,57
 783 390 783 390 875 397 c 1,58,0
 879 388 879 388 879 354 c 128,-1,1
EndSplineSet
Colour: ffff00
EndChar

StartChar: uni30F0.hist
Encoding: 103 -1 103
Width: 1000
Flags: W
LayerCount: 2
Fore
SplineSet
139 246 m 1,0,1
 134 253 134 253 134 287.5 c 128,-1,2
 134 322 134 322 139 329 c 1,3,4
 179 325 179 325 231 324 c 2,5,-1
 316 324 l 1,6,7
 320 365 320 365 320 423 c 2,8,-1
 320 511 l 1,9,-1
 246 511 l 2,10,11
 219 511 219 511 165 507 c 1,12,13
 159 513 159 513 159 547 c 128,-1,14
 159 581 159 581 165 587 c 1,15,16
 205 583 205 583 246 583 c 2,17,-1
 320 583 l 1,18,-1
 320 663 l 2,19,20
 320 710 320 710 315 755 c 1,21,22
 330 756 330 756 344 756 c 0,23,24
 411 756 411 756 411 739 c 2,25,-1
 411 738 l 1,26,27
 394 711 394 711 394 686 c 2,28,-1
 394 583 l 1,29,-1
 611 583 l 1,30,-1
 611 663 l 2,31,32
 611 711 611 711 606 756 c 1,33,34
 621 757 621 757 635 757 c 0,35,36
 702 757 702 757 702 740 c 2,37,-1
 702 739 l 1,38,39
 685 712 685 712 685 687 c 2,40,-1
 685 583 l 1,41,-1
 761 583 l 2,42,43
 788 583 788 583 844 587 c 1,44,45
 850 581 850 581 849.5 547 c 128,-1,46
 849 513 849 513 844 507 c 1,47,48
 802 511 802 511 761 511 c 2,49,-1
 685 511 l 1,50,-1
 685 324 l 1,51,-1
 771 324 l 2,52,53
 811 324 811 324 863 329 c 1,54,55
 868 322 868 322 868 295 c 0,56,57
 868 253 868 253 863 246 c 1,58,59
 823 250 823 250 771 251 c 2,60,-1
 685 251 l 1,61,-1
 685 120 l 2,62,63
 685 43 685 43 691 -18 c 1,64,65
 684 -25 684 -25 648 -25 c 128,-1,66
 612 -25 612 -25 608 -17 c 1,67,68
 611 18 611 18 611 52 c 2,69,-1
 611 251 l 1,70,-1
 382 251 l 1,71,72
 367 165 367 165 326 95.5 c 128,-1,73
 285 26 285 26 201 -31 c 1,74,75
 180 -2 180 -2 141 22 c 1,76,-1
 147 26 l 2,77,78
 273 109 273 109 306 251 c 1,79,-1
 226 251 l 2,80,81
 189 250 189 250 139 246 c 1,0,1
611 511 m 1,82,-1
 394 511 l 1,83,-1
 394 423 l 2,84,85
 394 368 394 368 391 324 c 1,86,-1
 611 324 l 1,87,-1
 611 511 l 1,82,-1
EndSplineSet
Colour: ffff00
EndChar

StartChar: uni30F8.hist
Encoding: 104 -1 104
Width: 1000
Flags: W
LayerCount: 2
Fore
SplineSet
125 240 m 1,0,1
 120 247 120 247 120 281.5 c 128,-1,2
 120 316 120 316 125 323 c 1,3,4
 165 319 165 319 217 318 c 2,5,-1
 302 318 l 1,6,7
 306 359 306 359 306 417 c 2,8,-1
 306 505 l 1,9,-1
 232 505 l 2,10,11
 205 505 205 505 151 501 c 1,12,13
 145 507 145 507 145 541 c 128,-1,14
 145 575 145 575 151 581 c 1,15,16
 191 577 191 577 232 577 c 2,17,-1
 306 577 l 1,18,-1
 306 657 l 2,19,20
 306 704 306 704 301 749 c 1,21,22
 316 750 316 750 330 750 c 0,23,24
 397 750 397 750 397 733 c 2,25,-1
 397 732 l 1,26,27
 380 705 380 705 380 680 c 2,28,-1
 380 577 l 1,29,-1
 597 577 l 1,30,-1
 597 657 l 2,31,32
 597 705 597 705 592 750 c 1,33,34
 607 751 607 751 621 751 c 0,35,36
 688 751 688 751 688 734 c 2,37,-1
 688 733 l 1,38,39
 671 706 671 706 671 681 c 2,40,-1
 671 577 l 1,41,-1
 747 577 l 2,42,43
 774 577 774 577 830 581 c 1,44,45
 836 575 836 575 835.5 541 c 128,-1,46
 835 507 835 507 830 501 c 1,47,48
 788 505 788 505 747 505 c 2,49,-1
 671 505 l 1,50,-1
 671 318 l 1,51,-1
 757 318 l 2,52,53
 797 318 797 318 849 323 c 1,54,55
 854 316 854 316 854 289 c 0,56,57
 854 247 854 247 849 240 c 1,58,59
 809 244 809 244 757 245 c 2,60,-1
 671 245 l 1,61,-1
 671 114 l 2,62,63
 671 37 671 37 677 -24 c 1,64,65
 670 -31 670 -31 634 -31 c 128,-1,66
 598 -31 598 -31 594 -23 c 1,67,68
 597 12 597 12 597 46 c 2,69,-1
 597 245 l 1,70,-1
 368 245 l 1,71,72
 353 159 353 159 312 89.5 c 128,-1,73
 271 20 271 20 187 -37 c 1,74,75
 166 -8 166 -8 127 16 c 1,76,-1
 133 20 l 2,77,78
 259 103 259 103 292 245 c 1,79,-1
 212 245 l 2,80,81
 175 244 175 244 125 240 c 1,0,1
597 505 m 1,82,-1
 380 505 l 1,83,-1
 380 417 l 2,84,85
 380 362 380 362 377 318 c 1,86,-1
 597 318 l 1,87,-1
 597 505 l 1,82,-1
786 632 m 1,88,89
 774 667 774 667 760 700 c 0,90,91
 745 739 745 739 731 765 c 1,92,-1
 776 779 l 1,93,94
 791 751 791 751 806 716 c 0,95,96
 826 668 826 668 832 649 c 1,97,-1
 786 632 l 1,88,89
881 663 m 1,98,99
 876 679 876 679 862 714 c 0,100,101
 857 725 857 725 855 731 c 0,102,103
 837 772 837 772 825 794 c 1,104,-1
 870 809 l 1,105,106
 880 792 880 792 900 746 c 0,107,108
 914 716 914 716 927 678 c 1,109,-1
 881 663 l 1,98,99
EndSplineSet
Colour: ffff00
EndChar

StartChar: u1B000
Encoding: 105 110592 105
Width: 1000
Flags: W
LayerCount: 2
Fore
SplineSet
878 537 m 1,0,1
 874 530 874 530 870 522 c 128,-1,2
 866 514 866 514 865 508 c 0,3,4
 823 422 823 422 780.5 350.5 c 128,-1,5
 738 279 738 279 660 199 c 0,6,7
 579 119 579 119 494 71 c 128,-1,8
 409 23 409 23 220 -37 c 1,9,-1
 158 33 l 1,10,11
 356 88 356 88 438 131.5 c 128,-1,12
 520 175 520 175 592 244 c 0,13,14
 665 317 665 317 699 368.5 c 128,-1,15
 733 420 733 420 766 490 c 1,16,-1
 270 490 l 2,17,18
 251 490 251 490 225 489 c 128,-1,19
 199 488 199 488 172 487 c 1,20,-1
 172 571 l 1,21,22
 200 568 200 568 225 566.5 c 128,-1,23
 250 565 250 565 270 565 c 2,24,-1
 466 565 l 1,25,-1
 466 714 l 2,26,27
 466 735 466 735 465 759.5 c 128,-1,28
 464 784 464 784 461 802 c 1,29,-1
 553 802 l 1,30,31
 550 784 550 784 548.5 759.5 c 128,-1,32
 547 735 547 735 547 714 c 2,33,-1
 547 565 l 1,34,-1
 766 565 l 2,35,36
 784 565 784 565 798 567 c 128,-1,37
 812 569 812 569 821 573 c 1,38,-1
 878 537 l 1,0,1
EndSplineSet
Colour: ffbf00
EndChar

StartChar: u1B001
Encoding: 106 110593 106
Width: 1000
Flags: W
LayerCount: 2
Fore
SplineSet
215 519 m 1,0,1
 195 433 195 433 194 339 c 0,2,3
 192 244 192 244 210 160 c 1,4,5
 210 161 210 161 211 162 c 0,6,7
 221 194 221 194 235 234 c 0,8,9
 255 282 255 282 273 328 c 0,10,11
 333 452 333 452 403 528 c 1,12,13
 485 631 485 631 605 672 c 1,14,15
 733 711 733 711 832 674.5 c 128,-1,16
 931 638 931 638 915 502 c 0,17,18
 903 397 903 397 850.5 322 c 128,-1,19
 798 247 798 247 720 178 c 0,20,21
 682 143 682 143 652 122 c 1,22,23
 690 124 690 124 744.5 121 c 128,-1,24
 799 118 799 118 843 116.5 c 128,-1,25
 887 115 887 115 898.5 114 c 128,-1,26
 910 113 910 113 926 113 c 1,27,-1
 916 34 l 1,28,29
 895 36 895 36 843 39.5 c 128,-1,30
 791 43 791 43 710.5 44.5 c 128,-1,31
 630 46 630 46 509 44 c 2,32,-1
 426 40 l 1,33,-1
 414 113 l 1,34,35
 474 116 474 116 490.5 117 c 128,-1,36
 507 118 507 118 552 143 c 128,-1,37
 597 168 597 168 663 230 c 128,-1,38
 729 292 729 292 775 357 c 128,-1,39
 821 422 821 422 832 511 c 0,40,41
 838 585 838 585 776 600.5 c 128,-1,42
 714 616 714 616 629 590 c 1,43,44
 548 561 548 561 473 488 c 0,45,46
 387 402 387 402 320 277 c 0,47,48
 283 205 283 205 259 130 c 0,49,50
 248 92 248 92 242 66 c 0,51,52
 239 54 239 54 237.5 42 c 128,-1,53
 236 30 236 30 237 21 c 0,54,55
 238 13 238 13 238.5 4 c 128,-1,56
 239 -5 239 -5 240 -13 c 1,57,-1
 172 -21 l 1,58,59
 156 27 156 27 138 113.5 c 128,-1,60
 120 200 120 200 119 297 c 0,61,62
 120 420 120 420 137 541 c 1,63,-1
 215 519 l 1,0,1
204 629 m 1,64,65
 231 650 231 650 244 663 c 1,66,67
 239 668 239 668 202.5 685 c 128,-1,68
 166 702 166 702 111 721 c 1,69,-1
 156 781 l 1,70,71
 191 769 191 769 219.5 758 c 128,-1,72
 248 747 248 747 276.5 734.5 c 128,-1,73
 305 722 305 722 328 707 c 1,74,-1
 349 661 l 1,75,76
 287 630 287 630 244 608 c 1,77,-1
 204 629 l 1,64,65
EndSplineSet
Colour: ffbf00
EndChar

StartChar: u1B002
Encoding: 107 110594 107
Width: 1000
Flags: W
LayerCount: 2
Fore
SplineSet
809 575 m 1,0,1
 804 620 804 620 740 625.5 c 128,-1,2
 676 631 676 631 575 621 c 1,3,4
 499 609 499 609 434 598 c 1,5,6
 432 587 432 587 429 575 c 0,7,8
 412 491 412 491 409 468 c 256,9,10
 406 445 406 445 403 412 c 1,11,12
 435 420 435 420 474 426 c 0,13,14
 513 431 513 431 548 433 c 0,15,16
 564 434 564 434 580 434 c 1,17,18
 580 436 580 436 581 438 c 0,19,20
 590 468 590 468 602 511 c 1,21,-1
 684 488 l 1,22,23
 670 453 670 453 659 425 c 1,24,-1
 660 425 l 1,25,26
 777 402 777 402 838.5 340 c 128,-1,27
 900 278 900 278 901 194 c 0,28,29
 898 106 898 106 838.5 36 c 128,-1,30
 779 -34 779 -34 619 -91 c 1,31,-1
 571 -30 l 1,32,33
 694 0 694 0 760 60 c 0,34,35
 826 120 826 120 827 188 c 1,36,37
 834 253 834 253 779 302 c 128,-1,38
 724 351 724 351 637 367 c 1,39,-1
 636 367 l 1,40,41
 624 340 624 340 617 324 c 0,42,43
 588 246 588 246 543 188 c 0,44,45
 499 133 499 133 442 87 c 1,46,47
 452 53 452 53 463 18 c 1,48,-1
 393 -3 l 1,49,50
 388 11 388 11 384.5 23.5 c 128,-1,51
 381 36 381 36 380 42 c 2,52,-1
 379 44 l 1,53,-1
 368 37 l 1,54,55
 335 21 335 21 295.5 7.5 c 128,-1,56
 256 -6 256 -6 218 -6 c 0,57,58
 172 -6 172 -6 141 21.5 c 128,-1,59
 110 49 110 49 109 105 c 0,60,61
 110 165 110 165 140.5 218 c 128,-1,62
 171 271 171 271 221 315 c 128,-1,63
 271 359 271 359 331 385 c 0,64,65
 334 386 334 386 337 388 c 0,66,67
 337 389 337 389 337 391 c 0,68,69
 340 482 340 482 358 572 c 0,70,71
 359 578 359 578 360 584 c 1,72,73
 281 567 281 567 231 555 c 0,74,75
 200 547 200 547 174 540 c 128,-1,76
 148 533 148 533 137 525 c 1,77,-1
 105 608 l 1,78,79
 118 612 118 612 148 616 c 128,-1,80
 178 620 178 620 207 627 c 0,81,82
 271 642 271 642 371 661 c 0,83,84
 374 661 374 661 378 662 c 0,85,86
 383 679 383 679 387 692 c 0,87,88
 399 734 399 734 402 747 c 0,89,90
 413 774 413 774 416 792 c 1,91,-1
 495 773 l 1,92,93
 489 766 489 766 484 754 c 128,-1,94
 479 742 479 742 476 734 c 0,95,96
 471 722 471 722 458 686 c 0,97,98
 456 681 456 681 455 676 c 1,99,100
 515 686 515 686 578 693 c 0,101,102
 724 710 724 710 804 685 c 128,-1,103
 884 660 884 660 883 582 c 1,104,105
 877 508 877 508 781 477 c 1,106,-1
 734 523 l 1,107,108
 793 537 793 537 809 575 c 1,0,1
547 370 m 0,109,110
 502 369 502 369 467 362 c 0,111,112
 435 355 435 355 401 345 c 1,113,114
 401 327 401 327 402 314 c 0,115,116
 404 268 404 268 410.5 231 c 128,-1,117
 417 194 417 194 424 168 c 1,118,-1
 424 167 l 1,119,120
 459 199 459 199 490 241 c 0,121,122
 524 290 524 290 551 352 c 0,123,124
 555 362 555 362 559 371 c 1,125,126
 553 370 553 370 547 370 c 0,109,110
329 312 m 0,127,128
 267 279 267 279 227 224.5 c 128,-1,129
 187 170 187 170 185 118 c 0,130,131
 185 95 185 95 196 81.5 c 128,-1,132
 207 68 207 68 231 68 c 0,133,134
 256 68 256 68 286.5 79.5 c 128,-1,135
 317 91 317 91 351 110 c 0,136,137
 357 113 357 113 362 117 c 1,138,139
 353 160 353 160 347 206 c 0,140,141
 340 253 340 253 337 308 c 0,142,143
 337 312 337 312 337 315 c 1,144,145
 333 314 333 314 329 312 c 0,127,128
EndSplineSet
Colour: ffbf00
EndChar

StartChar: u1B003
Encoding: 108 110595 108
Width: 1000
Flags: W
LayerCount: 2
Fore
SplineSet
184 730 m 1,0,1
 220 716 220 716 288 702 c 0,2,3
 356 690 356 690 424 688 c 0,4,5
 455 686 455 686 488 687 c 1,6,7
 493 742 493 742 497 788 c 1,8,-1
 582 785 l 1,9,10
 579 744 579 744 571 690 c 1,11,12
 649 695 649 695 801 730 c 0,13,14
 824 737 824 737 844 746 c 1,15,-1
 864 668 l 1,16,17
 835 664 835 664 810 656 c 0,18,19
 654 623 654 623 571 616 c 0,20,21
 565 615 565 615 560 615 c 1,22,23
 559 609 559 609 558 604 c 0,24,25
 539 494 539 494 515 424 c 1,26,-1
 440 446 l 1,27,28
 470 530 470 530 480 611 c 1,29,30
 447 611 447 611 415 613 c 0,31,32
 341 616 341 616 264 631 c 128,-1,33
 187 646 187 646 157 650 c 1,34,-1
 184 730 l 1,0,1
316 496 m 1,35,-1
 348 469 l 1,36,37
 293 386 293 386 281 337 c 1,38,-1
 229 363 l 1,39,40
 218 391 218 391 208.5 421.5 c 128,-1,41
 199 452 199 452 190 484.5 c 128,-1,42
 181 517 181 517 172 551 c 1,43,44
 172 550 172 550 242 562 c 1,45,46
 253 515 253 515 271 462 c 1,47,-1
 316 496 l 1,35,-1
852 496 m 1,48,49
 784 438 784 438 739 412.5 c 128,-1,50
 694 387 694 387 639.5 363.5 c 128,-1,51
 585 340 585 340 535 328 c 1,52,53
 686 301 686 301 691 254 c 0,54,55
 693 226 693 226 666 209.5 c 128,-1,56
 639 193 639 193 617 180 c 0,57,58
 539 132 539 132 547 66 c 1,59,60
 561 22 561 22 584.5 7.5 c 128,-1,61
 608 -7 608 -7 713.5 -1 c 128,-1,62
 819 5 819 5 892 24 c 1,63,-1
 896 -51 l 1,64,65
 786 -74 786 -74 692.5 -76 c 128,-1,66
 599 -78 599 -78 552 -55 c 128,-1,67
 505 -32 505 -32 484 27 c 0,68,69
 446 155 446 155 590 242 c 0,70,71
 628 263 628 263 395 305 c 1,72,-1
 406 363 l 1,73,74
 479 372 479 372 567.5 406 c 128,-1,75
 656 440 656 440 710 478 c 0,76,77
 764 516 764 516 803 562 c 1,78,-1
 852 496 l 1,48,49
EndSplineSet
Colour: ffbf00
EndChar

StartChar: u1B004
Encoding: 109 110596 109
Width: 1000
Flags: W
LayerCount: 2
Fore
SplineSet
275 734 m 1,0,-1
 316 701 l 1,1,2
 302 653 302 653 286.5 581.5 c 128,-1,3
 271 510 271 510 257 434.5 c 128,-1,4
 243 359 243 359 239 302 c 0,5,6
 237 266 237 266 237 232.5 c 128,-1,7
 237 199 237 199 240 163 c 1,8,9
 255 197 255 197 273.5 235.5 c 128,-1,10
 292 274 292 274 307 306 c 1,11,-1
 345 271 l 1,12,13
 331 237 331 237 313.5 195.5 c 128,-1,14
 296 154 296 154 281.5 117 c 128,-1,15
 267 80 267 80 260 55 c 0,16,17
 257 45 257 45 255 33 c 128,-1,18
 253 21 253 21 253 11 c 2,19,-1
 253 -24 l 1,20,-1
 183 -25 l 1,21,22
 171 30 171 30 165.5 111 c 128,-1,23
 160 192 160 192 166 292 c 0,24,25
 172 367 172 367 185.5 447.5 c 128,-1,26
 199 528 199 528 223 647 c 1,27,-1
 82 617 l 1,28,-1
 82 699 l 1,29,30
 116 701 116 701 275 734 c 1,0,-1
445 695 m 1,31,32
 485 693 485 693 652.5 712.5 c 128,-1,33
 820 732 820 732 863 738 c 1,34,-1
 867 660 l 1,35,-1
 651 638 l 2,36,37
 482 620 482 620 445 610 c 1,38,-1
 445 695 l 1,31,32
668 247 m 0,39,40
 630 172 630 172 559 152 c 128,-1,41
 488 132 488 132 439 206.5 c 128,-1,42
 390 281 390 281 431 384.5 c 128,-1,43
 472 488 472 488 597.5 506.5 c 128,-1,44
 723 525 723 525 789.5 481.5 c 128,-1,45
 856 438 856 438 881 367.5 c 128,-1,46
 906 297 906 297 894.5 218.5 c 128,-1,47
 883 140 883 140 829.5 79.5 c 128,-1,48
 776 19 776 19 644 -32 c 1,49,-1
 562 17 l 1,50,51
 670 43 670 43 729.5 85.5 c 128,-1,52
 789 128 789 128 809.5 200.5 c 128,-1,53
 830 273 830 273 814 328 c 128,-1,54
 798 383 798 383 766 411 c 0,55,56
 746 428 746 428 712 436 c 1,57,58
 703 315 703 315 668 247 c 0,39,40
517 378 m 0,59,60
 476 307 476 307 504 258 c 128,-1,61
 532 209 532 209 567 243.5 c 128,-1,62
 602 278 602 278 617 337 c 0,63,64
 630 385 630 385 627 441 c 1,65,66
 550 437 550 437 517 378 c 0,59,60
EndSplineSet
Colour: ffbf00
EndChar

StartChar: u1B005
Encoding: 110 110597 110
Width: 1000
Flags: W
LayerCount: 2
Fore
SplineSet
485 646 m 1,0,1
 509 671 509 671 521 685 c 1,2,3
 516 689 516 689 477 701.5 c 128,-1,4
 438 714 438 714 382 726 c 1,5,-1
 419 791 l 1,6,7
 456 784 456 784 485.5 776.5 c 128,-1,8
 515 769 515 769 544.5 759.5 c 128,-1,9
 574 750 574 750 599 738 c 1,10,-1
 625 695 l 1,11,12
 567 657 567 657 527 630 c 1,13,-1
 485 646 l 1,0,1
256 546 m 1,14,15
 306 546 306 546 366 550 c 128,-1,16
 426 554 426 554 496 558.5 c 128,-1,17
 566 563 566 563 601 568 c 1,18,-1
 629 503 l 1,19,20
 547 461 547 461 477 408.5 c 128,-1,21
 407 356 407 356 414 335 c 1,22,23
 425 323 425 323 502 335 c 128,-1,24
 579 347 579 347 618.5 354.5 c 128,-1,25
 658 362 658 362 688 370 c 1,26,-1
 711 292 l 1,27,-1
 641 280 l 2,28,29
 553 266 553 266 473.5 262.5 c 128,-1,30
 394 259 394 259 360 298 c 1,31,32
 315 390 315 390 469 483 c 1,33,34
 401 477 401 477 354.5 473.5 c 128,-1,35
 308 470 308 470 259 467 c 1,36,-1
 256 546 l 1,14,15
383 230 m 1,37,38
 345 202 345 202 320 168 c 1,39,40
 391 174 391 174 432 146 c 128,-1,41
 473 118 473 118 496 64 c 1,42,43
 527 120 527 120 578.5 155 c 128,-1,44
 630 190 630 190 691 191 c 0,45,46
 774 189 774 189 836 133 c 128,-1,47
 898 77 898 77 937 -13 c 1,48,-1
 856 -45 l 1,49,50
 825 40 825 40 781.5 82.5 c 128,-1,51
 738 125 738 125 686 125 c 0,52,53
 639 124 639 124 600.5 91.5 c 128,-1,54
 562 59 562 59 541 6 c 0,55,56
 537 -4 537 -4 534.5 -15.5 c 128,-1,57
 532 -27 532 -27 531 -36 c 1,58,-1
 453 -36 l 1,59,60
 451 -25 451 -25 449.5 -14 c 128,-1,61
 448 -3 448 -3 446 7 c 0,62,63
 429 60 429 60 398.5 86.5 c 128,-1,64
 368 113 368 113 325 113 c 0,65,66
 272 111 272 111 224.5 65 c 128,-1,67
 177 19 177 19 134 -43 c 1,68,-1
 64 -2 l 1,69,70
 130 69 130 69 211.5 145 c 128,-1,71
 293 221 293 221 355 262 c 1,72,-1
 383 230 l 1,37,38
EndSplineSet
Colour: ffbf00
EndChar

StartChar: u1B006
Encoding: 111 110598 111
Width: 1000
Flags: W
LayerCount: 2
Fore
SplineSet
213 226 m 1,0,-1
 237 201 l 1,1,2
 158 85 158 85 132 26 c 1,3,-1
 89 60 l 1,4,5
 80 103 80 103 74.5 163.5 c 128,-1,6
 69 224 69 224 65 286 c 0,7,8
 60 348 60 348 62 392 c 1,9,-1
 131 410 l 1,10,11
 133 345 133 345 138.5 270.5 c 128,-1,12
 144 196 144 196 154 151 c 1,13,-1
 213 226 l 1,0,-1
312 427 m 1,14,-1
 384 438 l 1,15,16
 382 384 382 384 386 335.5 c 128,-1,17
 390 287 390 287 394 248 c 128,-1,18
 398 209 398 209 410 158 c 1,19,-1
 335 144 l 1,20,21
 317 231 317 231 313 296 c 128,-1,22
 309 361 309 361 312 427 c 1,14,-1
619 748 m 1,23,24
 724 765 724 765 771.5 723.5 c 128,-1,25
 819 682 819 682 835 616.5 c 128,-1,26
 851 551 851 551 852 483 c 128,-1,27
 853 415 853 415 844.5 355.5 c 128,-1,28
 836 296 836 296 826.5 254.5 c 128,-1,29
 817 213 817 213 816 195 c 1,30,31
 824 182 824 182 922 160 c 1,32,-1
 949 121 l 1,33,34
 888 44 888 44 762 -82 c 1,35,-1
 720 -65 l 1,36,37
 828 68 828 68 844 109 c 1,38,39
 796 127 796 127 758 141 c 1,40,41
 731 161 731 161 733.5 184.5 c 128,-1,42
 736 208 736 208 747 265.5 c 128,-1,43
 758 323 758 323 767.5 415.5 c 128,-1,44
 777 508 777 508 767 568 c 128,-1,45
 757 628 757 628 722 662 c 128,-1,46
 687 696 687 696 602 671 c 1,47,-1
 619 748 l 1,23,24
EndSplineSet
Colour: ffbf00
EndChar

StartChar: u1B007
Encoding: 112 110599 112
Width: 1000
Flags: W
LayerCount: 2
Fore
SplineSet
341 717 m 1,0,1
 303 682 303 682 271 643 c 128,-1,2
 239 604 239 604 210 567 c 128,-1,3
 181 530 181 530 145 477 c 1,4,-1
 82 529 l 1,5,6
 120 570 120 570 152 608.5 c 128,-1,7
 184 647 184 647 213.5 685.5 c 128,-1,8
 243 724 243 724 268 762 c 1,9,-1
 341 717 l 1,0,1
327 426 m 1,10,11
 534 502 534 502 662 527 c 1,12,-1
 701 471 l 1,13,14
 664 431 664 431 642.5 405.5 c 128,-1,15
 621 380 621 380 600 351 c 128,-1,16
 579 322 579 322 549.5 282.5 c 128,-1,17
 520 243 520 243 531 234 c 0,18,19
 540 226 540 226 586 234 c 0,20,21
 635 243 635 243 679 259 c 0,22,23
 687 261 687 261 694 264 c 0,24,25
 694 265 694 265 695 267 c 0,26,27
 715 342 715 342 721.5 390 c 128,-1,28
 728 438 728 438 730 478 c 1,29,-1
 810 465 l 1,30,31
 797 425 797 425 787 368 c 0,32,33
 781 333 781 333 771 291 c 1,34,35
 809 306 809 306 879 344 c 1,36,-1
 918 281 l 1,37,38
 884 258 884 258 811 229 c 0,39,40
 777 215 777 215 748 206 c 1,41,42
 729 144 729 144 704 88 c 0,43,44
 673 18 673 18 611 -82 c 1,45,-1
 537 -57 l 1,46,47
 606 43 606 43 641 117 c 0,48,49
 657 149 657 149 668 183 c 1,50,51
 632 175 632 175 590 168 c 0,52,53
 501 157 501 157 473 204 c 0,54,55
 458 232 458 232 488 287.5 c 128,-1,56
 518 343 518 343 544 381 c 128,-1,57
 570 419 570 419 580 436 c 1,58,59
 532 424 532 424 452 393 c 128,-1,60
 372 362 372 362 347 346 c 1,61,-1
 327 426 l 1,10,11
641 595 m 1,62,-1
 724 641 l 1,63,64
 682 659 682 659 609 675.5 c 128,-1,65
 536 692 536 692 472 704 c 1,66,-1
 502 770 l 1,67,68
 545 764 545 764 605.5 750 c 128,-1,69
 666 736 666 736 725 721.5 c 128,-1,70
 784 707 784 707 825 691 c 1,71,-1
 828 641 l 1,72,73
 789 627 789 627 662 567 c 1,74,-1
 641 595 l 1,62,-1
207 449 m 1,75,76
 218 327 218 327 223 268 c 128,-1,77
 228 209 228 209 249.5 90 c 128,-1,78
 271 -29 271 -29 275 -48 c 1,79,-1
 199 -59 l 1,80,81
 187 -11 187 -11 171 77 c 128,-1,82
 155 165 155 165 154 262 c 0,83,84
 153 330 153 330 158 395 c 0,85,86
 158 412 158 412 165 461 c 1,87,-1
 207 449 l 1,75,76
EndSplineSet
Colour: ffbf00
EndChar

StartChar: u1B008
Encoding: 113 110600 113
Width: 1000
Flags: W
LayerCount: 2
Fore
SplineSet
482 520 m 1,0,1
 552 458 552 458 696 452 c 1,2,-1
 666 374 l 1,3,4
 589 375 589 375 532 367 c 0,5,6
 495 360 495 360 488.5 335 c 128,-1,7
 482 310 482 310 515 293 c 0,8,9
 536 281 536 281 560.5 274.5 c 128,-1,10
 585 268 585 268 629 265.5 c 128,-1,11
 673 263 673 263 717 260 c 1,12,-1
 707 188 l 1,13,14
 668 191 668 191 619 191.5 c 128,-1,15
 570 192 570 192 438 184 c 1,16,-1
 426 211 l 1,17,-1
 473 234 l 1,18,19
 457 242 457 242 442 261 c 0,20,21
 396 315 396 315 428 369 c 0,22,23
 455 411 455 411 495 424 c 1,24,25
 470 445 470 445 435 507 c 1,26,-1
 482 520 l 1,0,1
305 102 m 1,27,28
 279 82 279 82 285 62 c 1,29,30
 301 39 301 39 365 30.5 c 128,-1,31
 429 22 429 22 543 23 c 0,32,33
 634 23 634 23 707 34.5 c 128,-1,34
 780 46 780 46 820 57 c 1,35,-1
 843 -22 l 1,36,37
 798 -30 798 -30 719 -39.5 c 128,-1,38
 640 -49 640 -49 543 -51 c 0,39,40
 412 -52 412 -52 318.5 -33.5 c 128,-1,41
 225 -15 225 -15 203 27 c 0,42,43
 173 99 173 99 242 145 c 1,44,-1
 305 102 l 1,27,28
206 658 m 1,45,46
 241 647 241 647 310.5 638 c 128,-1,47
 380 629 380 629 447.5 630.5 c 128,-1,48
 515 632 515 632 592.5 643 c 128,-1,49
 670 654 670 654 758 680 c 0,50,51
 777 685 777 685 797 693 c 1,52,-1
 822 616 l 1,53,54
 793 608 793 608 767 602 c 0,55,56
 681 581 681 581 599.5 569.5 c 128,-1,57
 518 558 518 558 443.5 556.5 c 128,-1,58
 369 555 369 555 291 564.5 c 128,-1,59
 213 574 213 574 184 577 c 1,60,-1
 206 658 l 1,45,46
373 802 m 1,61,62
 414 787 414 787 449.5 777 c 128,-1,63
 485 767 485 767 543 757.5 c 128,-1,64
 601 748 601 748 638 745 c 1,65,-1
 625 669 l 1,66,67
 583 675 583 675 526.5 685 c 128,-1,68
 470 695 470 695 436 704.5 c 128,-1,69
 402 714 402 714 359 727 c 1,70,-1
 373 802 l 1,61,62
EndSplineSet
Colour: ffbf00
EndChar

StartChar: u1B009
Encoding: 114 110601 114
Width: 1000
Flags: W
LayerCount: 2
Fore
SplineSet
692 36 m 1,0,1
 745 37 745 37 773 50 c 0,2,3
 783 54 783 54 794 62 c 1,4,5
 740 129 740 129 671 179 c 1,6,7
 670 176 670 176 669 174 c 0,8,9
 629 90 629 90 587.5 57 c 128,-1,10
 546 24 546 24 483 23 c 0,11,12
 418 24 418 24 387 96 c 1,13,14
 369 192 369 192 418 262 c 1,15,16
 483 342 483 342 568 315 c 0,17,18
 603 303 603 303 637 289 c 1,19,20
 659 349 659 349 681 421 c 1,21,-1
 762 387 l 1,22,23
 731 313 731 313 704 253 c 1,24,25
 781 206 781 206 849 136 c 1,26,27
 860 162 860 162 863 195 c 0,28,29
 869 330 869 330 855 363 c 1,30,31
 840 422 840 422 797 452 c 128,-1,32
 754 482 754 482 598 492 c 1,33,-1
 566 531 l 1,34,35
 653 616 653 616 703 691 c 1,36,-1
 750 777 l 1,37,-1
 824 738 l 1,38,39
 768 650 768 650 680 547 c 1,40,41
 857 542 857 542 914 418 c 1,42,43
 934 364 934 364 934 266.5 c 128,-1,44
 934 169 934 169 918 125 c 2,45,-1
 902 82 l 1,46,47
 868 15 868 15 821 -9 c 128,-1,48
 774 -33 774 -33 699 -33 c 1,49,-1
 692 36 l 1,0,1
293 721 m 0,50,51
 293 738 293 738 292.5 756.5 c 128,-1,52
 292 775 292 775 290 794 c 1,53,-1
 383 791 l 1,54,55
 379 772 379 772 373.5 732.5 c 128,-1,56
 368 693 368 693 363 641 c 1,57,58
 365 641 365 641 366.5 641.5 c 128,-1,59
 368 642 368 642 369 643 c 1,60,-1
 398 607 l 1,61,62
 388 592 388 592 376.5 574 c 128,-1,63
 365 556 365 556 354 537 c 1,64,65
 353 524 353 524 352 512 c 128,-1,66
 351 500 351 500 350 487 c 1,67,68
 393 526 393 526 430 562 c 1,69,-1
 449 535 l 1,70,71
 379 449 379 449 343 394 c 1,72,73
 341 359 341 359 340 326.5 c 128,-1,74
 339 294 339 294 339 265 c 2,75,-1
 339 144 l 2,76,77
 339 88 339 88 343 23 c 0,78,79
 344 9 344 9 345.5 -7 c 128,-1,80
 347 -23 347 -23 348 -38 c 1,81,-1
 261 -38 l 1,82,83
 262 -26 262 -26 263 -8.5 c 128,-1,84
 264 9 264 9 264 21 c 0,85,86
 264 68 264 68 266 184 c 0,87,88
 266 224 266 224 267 277 c 0,89,90
 267 285 267 285 267.5 295.5 c 128,-1,91
 268 306 268 306 268 317 c 1,92,93
 230 260 230 260 186 196.5 c 128,-1,94
 142 133 142 133 104 81 c 1,95,-1
 56 149 l 1,96,97
 84 185 84 185 126 241.5 c 128,-1,98
 168 298 168 298 209 355.5 c 128,-1,99
 250 413 250 413 276 454 c 1,100,101
 277 478 277 478 279 502.5 c 128,-1,102
 281 527 281 527 283 551 c 1,103,104
 247 546 247 546 192 538.5 c 128,-1,105
 137 531 137 531 87 524 c 1,106,-1
 79 606 l 1,107,108
 96 605 96 605 111 605.5 c 128,-1,109
 126 606 126 606 144 607 c 0,110,111
 170 608 170 608 209 613 c 128,-1,112
 248 618 248 618 288 625 c 1,113,114
 290 661 290 661 291.5 686.5 c 128,-1,115
 293 712 293 712 293 721 c 0,50,51
551 243 m 0,116,117
 503 258 503 258 468 219 c 1,118,119
 438 169 438 169 449 134 c 1,120,121
 452 102 452 102 479 98 c 0,122,123
 509 91 509 91 540 116 c 0,124,125
 569 139 569 139 605 218 c 1,126,127
 579 231 579 231 551 243 c 0,116,117
EndSplineSet
Colour: ffbf00
EndChar

StartChar: u1B00A
Encoding: 115 110602 115
Width: 1000
Flags: W
LayerCount: 2
Fore
SplineSet
800 523 m 1,0,1
 785 559 785 559 727.5 565 c 128,-1,2
 670 571 670 571 571 564 c 0,3,4
 461 552 461 552 374 534 c 128,-1,5
 287 516 287 516 231 502 c 0,6,7
 202 495 202 495 177 487.5 c 128,-1,8
 152 480 152 480 138 473 c 1,9,-1
 105 559 l 1,10,11
 121 562 121 562 150.5 566 c 128,-1,12
 180 570 180 570 208 577 c 0,13,14
 271 591 271 591 369 609.5 c 128,-1,15
 467 628 467 628 574 639 c 0,16,17
 708 649 708 649 796 629.5 c 128,-1,18
 884 610 884 610 890 528 c 1,19,20
 883 450 883 450 793 410 c 1,21,-1
 738 445 l 1,22,23
 800 473 800 473 800 523 c 1,0,1
373 794 m 1,24,25
 414 779 414 779 449.5 769 c 128,-1,26
 485 759 485 759 543 749.5 c 128,-1,27
 601 740 601 740 638 737 c 1,28,-1
 625 661 l 1,29,30
 583 667 583 667 526.5 677.5 c 128,-1,31
 470 688 470 688 436 697 c 128,-1,32
 402 706 402 706 359 719 c 1,33,-1
 373 794 l 1,24,25
599 358 m 2,34,35
 600 296 600 296 599 240 c 1,36,37
 714 222 714 222 846 166 c 1,38,-1
 820 76 l 1,39,40
 705 136 705 136 596 158 c 1,41,42
 596 156 596 156 596 154 c 0,43,44
 592 61 592 61 569.5 13 c 128,-1,45
 547 -35 547 -35 484 -57 c 1,46,47
 397 -76 397 -76 316 -43 c 1,48,49
 211 19 211 19 242 129 c 1,50,51
 287 238 287 238 448 245 c 0,52,53
 484 248 484 248 522 247 c 1,54,55
 522 305 522 305 520 363 c 1,56,57
 465 360 465 360 432 355.5 c 128,-1,58
 399 351 399 351 348 336 c 1,59,-1
 320 422 l 1,60,61
 351 425 351 425 404.5 431 c 128,-1,62
 458 437 458 437 490.5 440 c 128,-1,63
 523 443 523 443 598 449 c 1,64,-1
 599 358 l 2,34,35
461 172 m 0,65,66
 345 170 345 170 316 109 c 1,67,68
 295 44 295 44 355 16 c 1,69,70
 404 -2 404 -2 451 11 c 0,71,72
 482 16 482 16 501 51 c 0,73,74
 519 84 519 84 521 170 c 1,75,76
 491 172 491 172 461 172 c 0,65,66
EndSplineSet
Colour: ffbf00
EndChar

StartChar: u1B00B
Encoding: 116 110603 116
Width: 1000
Flags: W
LayerCount: 2
Fore
SplineSet
573 570 m 0,0,1
 456 558 456 558 363.5 539.5 c 128,-1,2
 271 521 271 521 211 508 c 0,3,4
 180 501 180 501 153.5 493.5 c 128,-1,5
 127 486 127 486 114 479 c 1,6,-1
 82 564 l 1,7,8
 95 567 95 567 126.5 571.5 c 128,-1,9
 158 576 158 576 188 583 c 0,10,11
 254 597 254 597 358 615.5 c 128,-1,12
 462 634 462 634 576 645 c 0,13,14
 718 655 718 655 815.5 634.5 c 128,-1,15
 913 614 913 614 921.5 542.5 c 128,-1,16
 930 471 930 471 832 402 c 1,17,-1
 757 453 l 1,18,19
 823 485 823 485 830.5 525 c 128,-1,20
 838 565 838 565 757.5 571 c 128,-1,21
 677 577 677 577 573 570 c 0,0,1
405 802 m 1,22,23
 446 787 446 787 483.5 777 c 128,-1,24
 521 767 521 767 554.5 761.5 c 128,-1,25
 588 756 588 756 624 753 c 1,26,-1
 612 677 l 1,27,28
 569 683 569 683 538 689 c 128,-1,29
 507 695 507 695 471.5 704.5 c 128,-1,30
 436 714 436 714 392 727 c 1,31,-1
 405 802 l 1,22,23
509 367 m 1,32,33
 529 385 529 385 557 397 c 1,34,35
 541 404 541 404 496 424 c 128,-1,36
 451 444 451 444 402 466 c 1,37,-1
 445 521 l 1,38,39
 481 507 481 507 514 493 c 128,-1,40
 547 479 547 479 580 464 c 128,-1,41
 613 449 613 449 638 433 c 1,42,-1
 651 389 l 1,43,44
 576 365 576 365 525 352 c 1,45,-1
 509 367 l 1,32,33
325 359 m 1,46,47
 457 343 457 343 523.5 326.5 c 128,-1,48
 590 310 590 310 641 273.5 c 128,-1,49
 692 237 692 237 702 165 c 1,50,51
 701 -11 701 -11 489 -83 c 1,52,-1
 418 -23 l 1,53,54
 638 37 638 37 617 158 c 0,55,56
 612 202 612 202 572 223.5 c 128,-1,57
 532 245 532 245 479 257.5 c 128,-1,58
 426 270 426 270 301 282 c 1,59,-1
 325 359 l 1,46,47
EndSplineSet
Colour: ffbf00
EndChar

StartChar: u1B00D
Encoding: 117 110605 117
Width: 1000
Flags: W
LayerCount: 2
Fore
SplineSet
302 781 m 1,0,1
 324 779 324 779 340 779 c 0,2,3
 460 783 460 783 533 784 c 0,4,5
 583 787 583 787 610 787 c 1,6,-1
 656 750 l 1,7,8
 620 616 620 616 568 542 c 0,9,10
 550 518 550 518 533 495 c 1,11,12
 544 478 544 478 551 457 c 0,13,14
 560 404 560 404 556 363 c 1,15,16
 578 390 578 390 623 411.5 c 128,-1,17
 668 433 668 433 731 428 c 128,-1,18
 794 423 794 423 843 383 c 0,19,20
 901 331 901 331 895 238 c 0,21,22
 889 140 889 140 820.5 77.5 c 128,-1,23
 752 15 752 15 667 0 c 1,24,-1
 618 59 l 1,25,26
 674 61 674 61 740.5 110.5 c 128,-1,27
 807 160 807 160 815 234 c 0,28,29
 822 291 822 291 787.5 322.5 c 128,-1,30
 753 354 753 354 692.5 348 c 128,-1,31
 632 342 632 342 591 304.5 c 128,-1,32
 550 267 550 267 534 238 c 1,33,-1
 472 277 l 1,34,35
 484 319 484 319 482 363 c 0,36,37
 480 404 480 404 473 430 c 1,38,39
 462 419 462 419 451 408 c 0,40,41
 386 348 386 348 310.5 311 c 128,-1,42
 235 274 235 274 180 297 c 0,43,44
 149 310 149 310 132 340 c 0,45,46
 100 415 100 415 162.5 488.5 c 128,-1,47
 225 562 225 562 333 570 c 0,48,49
 423 573 423 573 478 545 c 1,50,51
 489 561 489 561 498 576 c 0,52,53
 528 628 528 628 555 711 c 1,54,-1
 526 711 l 2,55,56
 464 709 464 709 341 699 c 0,57,58
 323 698 323 698 305 696 c 1,59,-1
 302 781 l 1,0,1
401 56 m 1,60,61
 441 37 441 37 475.5 25 c 128,-1,62
 510 13 510 13 567.5 -1 c 128,-1,63
 625 -15 625 -15 661 -21 c 1,64,-1
 642 -95 l 1,65,66
 600 -87 600 -87 544.5 -72.5 c 128,-1,67
 489 -58 489 -58 456.5 -46 c 128,-1,68
 424 -34 424 -34 382 -18 c 1,69,-1
 401 56 l 1,60,61
318 500 m 1,70,71
 227 480 227 480 201 424 c 128,-1,72
 175 368 175 368 218 359 c 1,73,74
 252 359 252 359 298 384.5 c 128,-1,75
 344 410 344 410 408 469 c 0,76,77
 419 480 419 480 430 489 c 1,78,79
 390 510 390 510 318 500 c 1,70,71
EndSplineSet
Colour: ffbf00
EndChar

StartChar: u1B00E
Encoding: 118 110606 118
Width: 1000
Flags: W
LayerCount: 2
Fore
SplineSet
804 504 m 1,0,1
 789 540 789 540 731.5 546 c 128,-1,2
 674 552 674 552 575 545 c 0,3,4
 530 540 530 540 490 534 c 1,5,6
 481 483 481 483 485 456 c 1,7,8
 492 441 492 441 517.5 441.5 c 128,-1,9
 543 442 543 442 567.5 443.5 c 128,-1,10
 592 445 592 445 621 451 c 0,11,12
 635 453 635 453 652 457 c 1,13,-1
 664 379 l 1,14,-1
 621 373 l 2,15,16
 593 370 593 370 551 367 c 0,17,18
 508 364 508 364 464 376 c 0,19,20
 420 390 420 390 410 438 c 1,21,22
 407 478 407 478 411 521 c 1,23,24
 394 518 394 518 378 515 c 0,25,26
 291 496 291 496 235 482 c 0,27,28
 206 475 206 475 181 468 c 128,-1,29
 156 461 156 461 142 453 c 1,30,-1
 109 539 l 1,31,32
 125 542 125 542 154.5 546.5 c 128,-1,33
 184 551 184 551 212 558 c 0,34,35
 275 572 275 572 373 590 c 0,36,37
 396 595 396 595 421 599 c 1,38,39
 430 644 430 644 438 680 c 1,40,-1
 531 672 l 1,41,42
 518 642 518 642 509 611 c 1,43,44
 543 615 543 615 578 619 c 0,45,46
 712 629 712 629 800 610 c 128,-1,47
 888 591 888 591 894 509 c 0,48,49
 896 427 896 427 812 379 c 1,50,-1
 734 426 l 1,51,52
 804 454 804 454 804 504 c 1,0,1
379 795 m 1,53,54
 422 786 422 786 458 779 c 128,-1,55
 494 772 494 772 551.5 770 c 128,-1,56
 609 768 609 768 646 768 c 1,57,-1
 643 690 l 1,58,59
 601 692 601 692 543 696 c 128,-1,60
 485 700 485 700 451 705.5 c 128,-1,61
 417 711 417 711 372 720 c 1,62,-1
 379 795 l 1,53,54
498 307 m 1,63,64
 593 278 593 278 600 227 c 0,65,66
 604 191 604 191 551 141 c 1,67,68
 509 89 509 89 504 51 c 1,69,70
 494 14 494 14 541.5 -3 c 128,-1,71
 589 -20 589 -20 674.5 -11 c 128,-1,72
 760 -2 760 -2 798 9 c 1,73,-1
 803 -66 l 1,74,75
 736 -86 736 -86 650.5 -88 c 128,-1,76
 565 -90 565 -90 507.5 -69 c 128,-1,77
 450 -48 450 -48 430 0 c 1,78,79
 411 98 411 98 508 199 c 0,80,81
 544 232 544 232 309 277 c 1,82,-1
 324 351 l 1,83,-1
 498 307 l 1,63,64
EndSplineSet
Colour: ffbf00
EndChar

StartChar: u1B00F
Encoding: 119 110607 119
Width: 1000
Flags: W
LayerCount: 2
Fore
SplineSet
339 773 m 1,0,1
 394 775 394 775 447.5 778 c 128,-1,2
 501 781 501 781 551 786 c 128,-1,3
 601 791 601 791 659 797 c 1,4,-1
 706 746 l 1,5,6
 675 714 675 714 644 668 c 1,7,8
 665 665 665 665 685 660 c 0,9,10
 731 651 731 651 754 630 c 128,-1,11
 777 609 777 609 787 570 c 128,-1,12
 797 531 797 531 798 485 c 0,13,14
 797 439 797 439 784 382.5 c 128,-1,15
 771 326 771 326 732 300.5 c 128,-1,16
 693 275 693 275 647 273 c 0,17,18
 618 271 618 271 593 270 c 1,19,-1
 603 345 l 1,20,-1
 633 345 l 2,21,22
 659 346 659 346 684.5 360.5 c 128,-1,23
 710 375 710 375 718.5 422 c 128,-1,24
 727 469 727 469 724 495 c 0,25,26
 723 529 723 529 710.5 561 c 128,-1,27
 698 593 698 593 657 598 c 0,28,29
 623 602 623 602 573 594 c 1,30,-1
 530 637 l 1,31,32
 564 673 564 673 589 719 c 1,33,34
 507 708 507 708 460.5 704.5 c 128,-1,35
 414 701 414 701 343 691 c 1,36,-1
 339 773 l 1,0,1
515 579 m 1,37,38
 491 522 491 522 469 478 c 1,39,40
 534 440 534 440 586 386 c 1,41,-1
 530 317 l 1,42,43
 491 368 491 368 434 406 c 1,44,45
 400 342 400 342 363 315 c 256,46,47
 327 289 327 289 271 288 c 0,48,49
 213 289 213 289 179 348 c 1,50,51
 148 415 148 415 194 479 c 1,52,53
 254 545 254 545 345 529 c 0,54,55
 373 520 373 520 399 511 c 1,56,57
 418 556 418 556 437 613 c 1,58,-1
 515 579 l 1,37,38
63 194 m 1,59,60
 204 203 204 203 338 214 c 128,-1,61
 472 225 472 225 589 237 c 0,62,63
 705 249 705 249 802 264 c 128,-1,64
 899 279 899 279 919 283 c 1,65,-1
 934 209 l 1,66,67
 501 150 501 150 454 57 c 1,68,69
 454 28 454 28 525 20 c 128,-1,70
 596 12 596 12 731 -2 c 1,71,-1
 715 -78 l 1,72,73
 550 -64 550 -64 464 -43 c 128,-1,74
 378 -22 378 -22 372 51 c 0,75,76
 371 110 371 110 463 155 c 1,77,78
 344 144 344 144 279 138 c 128,-1,79
 214 132 214 132 68 117 c 1,80,-1
 63 194 l 1,59,60
327 457 m 0,81,82
 291 465 291 465 257 443 c 1,83,84
 226 417 226 417 241 378 c 0,85,86
 250 363 250 363 270 359 c 0,87,88
 294 356 294 356 318 375 c 0,89,90
 339 391 339 391 367 441 c 1,91,92
 348 449 348 449 327 457 c 0,81,82
EndSplineSet
Colour: ffbf00
EndChar

StartChar: u1B013
Encoding: 120 110611 120
Width: 1000
Flags: W
LayerCount: 2
Fore
SplineSet
802 514 m 1,0,1
 797 548 797 548 736 552 c 128,-1,2
 675 556 675 556 577 544 c 0,3,4
 512 533 512 533 453 522 c 1,5,6
 449 507 449 507 444 490 c 0,7,8
 427 417 427 417 425 397 c 0,9,10
 423 382 423 382 421 364 c 1,11,12
 445 369 445 369 474 373 c 0,13,14
 513 378 513 378 548 380 c 0,15,16
 564 381 564 381 581 380 c 1,17,18
 590 406 590 406 602 448 c 1,19,-1
 684 426 l 1,20,21
 671 397 671 397 660 373 c 1,22,23
 777 356 777 356 839 300 c 256,24,25
 901 243 901 243 901 169 c 0,26,27
 898 91 898 91 838.5 29.5 c 128,-1,28
 779 -32 779 -32 619 -83 c 1,29,-1
 571 -23 l 1,30,31
 695 5 695 5 760.5 55 c 128,-1,32
 826 105 826 105 827 163 c 1,33,34
 834 218 834 218 779 261.5 c 128,-1,35
 724 305 724 305 637 314 c 0,36,37
 636 314 636 314 634 314 c 0,38,39
 624 293 624 293 617 279 c 0,40,41
 588 212 588 212 543 160 c 0,42,43
 504 117 504 117 455 82 c 1,44,-1
 458 70 l 2,45,46
 468 40 468 40 479 18 c 1,47,-1
 408 -3 l 1,48,49
 403 14 403 14 399.5 18.5 c 128,-1,50
 396 23 396 23 396 28 c 2,51,-1
 392 43 l 1,52,-1
 368 29 l 1,53,54
 335 14 335 14 295.5 2.5 c 128,-1,55
 256 -9 256 -9 218 -9 c 0,56,57
 172 -9 172 -9 141 16 c 128,-1,58
 110 41 110 41 109 92 c 0,59,60
 110 145 110 145 140.5 191 c 128,-1,61
 171 237 171 237 221 276 c 128,-1,62
 271 315 271 315 331 339 c 0,63,64
 343 344 343 344 354 347 c 1,65,66
 358 418 358 418 374 489 c 0,67,68
 376 499 376 499 379 508 c 1,69,70
 299 492 299 492 249 479 c 0,71,72
 221 471 221 471 199 463.5 c 128,-1,73
 177 456 177 456 158 449 c 1,74,-1
 124 529 l 1,75,76
 142 531 142 531 169.5 536.5 c 128,-1,77
 197 542 197 542 224 548 c 0,78,79
 286 563 286 563 381 581 c 0,80,81
 390 583 390 583 399 585 c 0,82,83
 400 589 400 589 402 593 c 0,84,85
 414 630 414 630 418 642 c 0,86,87
 429 664 429 664 432 684 c 1,88,-1
 511 665 l 1,89,90
 505 654 505 654 500 644 c 128,-1,91
 495 634 495 634 491 627 c 0,92,93
 487 619 487 619 479 599 c 1,94,95
 528 608 528 608 579 614 c 0,96,97
 718 633 718 633 797 612 c 128,-1,98
 876 591 876 591 877 521 c 0,99,100
 876 458 876 458 795 421 c 1,101,-1
 729 468 l 1,102,103
 788 484 788 484 802 514 c 1,0,1
379 795 m 1,104,105
 422 786 422 786 458 779 c 128,-1,106
 494 772 494 772 551.5 770 c 128,-1,107
 609 768 609 768 646 768 c 1,108,-1
 643 690 l 1,109,110
 601 692 601 692 543 696 c 128,-1,111
 485 700 485 700 451 705.5 c 128,-1,112
 417 711 417 711 372 720 c 1,113,-1
 379 795 l 1,104,105
547 317 m 0,114,115
 502 316 502 316 467 311 c 0,116,117
 443 306 443 306 417 299 c 1,118,119
 417 278 417 278 418 265 c 0,120,121
 420 227 420 227 427 194 c 0,122,123
 431 173 431 173 435 157 c 1,124,125
 464 181 464 181 490 212 c 0,126,127
 524 254 524 254 551 307 c 0,128,129
 554 313 554 313 556 317 c 1,130,131
 552 317 552 317 547 317 c 0,114,115
329 268 m 0,132,133
 267 239 267 239 227 192.5 c 128,-1,134
 187 146 187 146 185 103 c 0,135,136
 185 84 185 84 196 74 c 128,-1,137
 207 64 207 64 231 64 c 0,138,139
 256 64 256 64 286.5 74 c 128,-1,140
 317 84 317 84 351 100 c 0,141,142
 363 106 363 106 373 111 c 1,143,144
 367 140 367 140 362 171 c 0,145,146
 355 212 355 212 353 260 c 0,147,148
 353 269 353 269 352 277 c 1,149,150
 340 273 340 273 329 268 c 0,132,133
EndSplineSet
Colour: ffbf00
EndChar

